{"glyphs":{"0":{"ha":860,"x_min":93,"x_max":857,"o":"m 372 -15 q 246 15 299 -15 q 160 97 193 46 q 110 214 126 149 q 93 347 93 279 q 121 533 93 442 q 197 706 149 625 q 309 849 246 788 q 444 945 372 910 q 586 981 515 981 q 708 948 657 981 q 792 863 760 915 q 841 745 825 810 q 857 617 857 681 q 833 447 857 535 q 766 277 810 360 q 662 128 722 194 q 528 24 601 63 q 372 -15 454 -15 m 364 24 q 459 65 415 24 q 538 176 503 107 q 598 329 572 246 q 641 499 624 413 q 667 659 658 585 q 676 783 676 733 q 653 903 676 867 q 588 940 631 940 q 495 898 538 940 q 418 785 453 856 q 356 629 383 714 q 311 458 329 544 q 283 296 293 371 q 274 172 274 221 q 287 79 274 111 q 321 35 300 47 q 364 24 342 24 z "},"1":{"ha":567,"x_min":-10,"x_max":542,"o":"m 143 0 l 349 981 l 542 981 l 331 0 l 143 0 m -10 0 l -10 44 l 518 44 l 518 0 l -10 0 m 158 936 l 158 981 l 513 981 l 513 936 l 158 936 z "},"2":{"ha":776,"x_min":1,"x_max":781,"o":"m 1 0 l 28 113 l 325 349 q 471 488 418 421 q 546 622 524 556 q 568 753 568 688 q 531 892 568 847 q 428 936 494 936 q 332 913 375 936 q 264 859 289 889 q 239 808 239 829 q 258 781 239 789 q 303 767 278 774 q 349 742 329 760 q 368 688 368 725 q 340 620 368 644 q 275 596 313 596 q 227 607 254 596 q 178 646 200 618 q 157 724 157 674 q 192 844 157 785 q 297 942 226 903 q 472 981 367 981 q 630 951 560 981 q 740 869 700 922 q 781 742 781 815 q 732 597 781 671 q 558 438 683 524 l 181 168 l 181 163 l 563 163 q 606 171 589 163 q 635 206 622 179 q 660 289 647 233 l 701 289 l 628 0 l 1 0 z "},"3":{"ha":775,"x_min":33,"x_max":750,"o":"m 296 -18 q 146 7 204 -18 q 60 72 88 32 q 33 157 33 113 q 56 233 33 201 q 125 265 79 265 q 185 244 161 265 q 208 188 208 222 q 195 147 208 161 q 165 124 182 132 q 135 108 149 115 q 122 88 122 101 q 147 54 122 69 q 207 30 171 39 q 279 21 243 21 q 373 42 332 21 q 443 102 414 64 q 487 194 472 140 q 501 314 501 249 q 463 457 501 414 q 343 500 425 500 q 315 497 325 500 q 296 490 304 493 q 274 488 288 488 q 240 497 250 488 q 231 519 231 507 q 242 545 231 536 q 268 554 254 554 q 301 550 279 554 q 349 546 324 546 q 445 574 404 546 q 514 646 486 603 q 555 738 542 689 q 568 829 568 788 q 537 921 568 893 q 446 949 506 949 q 363 932 394 949 q 331 889 331 915 q 342 863 331 872 q 364 842 353 853 q 375 807 375 831 q 352 752 375 775 q 293 729 329 729 q 239 749 264 729 q 214 811 214 768 q 249 901 214 861 q 347 964 285 940 q 486 988 410 988 q 633 960 574 988 q 721 886 692 932 q 750 789 750 840 q 678 638 750 708 q 467 529 606 568 l 467 522 q 585 492 529 522 q 678 408 642 461 q 714 288 714 356 q 683 173 714 228 q 597 75 653 118 q 464 7 540 32 q 296 -18 388 -18 z "},"4":{"ha":785,"x_min":21,"x_max":790,"o":"m 44 276 l 21 311 l 640 981 l 664 946 l 496 758 l 490 758 l 82 311 l 82 306 l 44 276 m 229 0 l 229 39 l 649 39 l 649 0 l 229 0 m 21 268 l 21 311 l 738 311 l 738 268 l 21 268 m 689 150 l 751 401 l 790 401 l 728 150 l 689 150 m 336 0 l 508 822 l 640 981 l 735 981 l 524 0 l 336 0 z "},"5":{"ha":825,"x_min":54,"x_max":847,"o":"m 318 -14 q 163 16 221 -14 q 80 89 106 46 q 54 171 54 132 q 67 229 54 201 q 103 275 79 257 q 160 293 126 293 q 226 269 199 293 q 253 204 253 244 q 241 159 253 176 q 213 130 229 142 q 185 109 197 118 q 172 90 172 100 q 206 49 172 74 q 301 25 240 25 q 417 60 371 25 q 490 148 463 94 q 528 259 517 201 q 540 361 540 317 q 517 469 540 431 q 454 524 493 508 q 368 539 415 539 q 280 528 326 539 q 189 499 233 518 l 168 522 l 299 981 l 657 981 q 731 985 706 981 q 772 1003 757 989 q 806 1047 788 1017 l 847 1047 l 742 818 l 301 818 l 229 571 l 235 565 q 328 588 286 581 q 414 594 369 594 q 597 561 519 594 q 717 470 675 528 q 760 338 760 413 q 726 208 760 271 q 632 95 692 146 q 492 15 572 44 q 318 -14 413 -14 z "},"6":{"ha":844,"x_min":85,"x_max":829,"o":"m 390 -18 q 226 24 294 -18 q 122 140 158 65 q 85 314 85 215 q 130 529 85 425 q 251 722 175 633 q 425 876 328 810 q 626 978 522 942 q 829 1015 731 1015 l 829 971 q 658 924 736 961 q 518 832 579 888 q 417 711 457 776 q 361 579 376 646 l 365 575 q 457 626 415 611 q 546 642 499 642 q 688 606 626 642 q 783 510 749 571 q 818 375 818 450 q 784 233 818 303 q 691 106 750 163 q 554 15 632 49 q 390 -18 476 -18 m 382 21 q 477 53 438 21 q 544 139 517 86 q 588 252 572 192 q 610 369 604 313 q 617 467 617 426 q 599 563 617 528 q 525 597 581 597 q 431 571 479 597 q 335 489 383 544 q 310 408 322 458 q 288 298 297 357 q 279 179 279 239 q 302 60 279 99 q 382 21 325 21 z "},"7":{"ha":715,"x_min":117,"x_max":856,"o":"m 319 -14 q 244 12 274 -14 q 214 99 214 38 q 221 144 214 121 q 250 205 228 168 q 316 303 272 242 q 432 464 360 365 l 692 814 l 692 819 l 331 819 q 261 811 289 819 q 212 778 233 803 q 168 701 190 753 l 117 701 l 253 981 l 856 981 l 851 936 l 547 525 q 475 411 499 461 q 443 322 451 361 q 435 254 435 283 q 441 182 435 214 q 447 119 447 150 q 413 22 447 58 q 319 -14 379 -14 z "},"8":{"ha":865,"x_min":61,"x_max":867,"o":"m 392 -18 q 218 14 293 -18 q 102 100 143 46 q 61 221 61 154 q 92 333 61 281 q 180 427 124 386 q 309 491 236 468 q 467 514 382 514 q 643 481 568 514 q 759 392 718 447 q 800 274 800 338 q 769 166 800 218 q 683 72 738 114 q 553 6 628 31 q 392 -18 478 -18 m 386 26 q 489 57 447 26 q 555 135 531 88 q 589 233 579 182 q 599 325 599 283 q 569 440 599 400 q 485 481 540 481 q 375 438 425 481 q 295 326 325 396 q 265 175 265 257 q 296 62 265 97 q 386 26 326 26 m 575 500 l 393 507 l 393 513 q 251 593 304 536 q 199 721 199 650 q 230 823 199 775 q 314 908 261 871 q 435 965 367 944 q 578 986 504 986 q 732 957 667 986 q 832 880 797 928 q 867 775 867 832 q 830 660 867 717 q 727 561 793 603 q 575 506 661 519 l 575 500 m 492 526 q 583 560 547 526 q 641 644 619 594 q 671 745 663 694 q 679 832 679 796 q 655 924 679 897 q 588 951 631 951 q 503 925 540 951 q 442 854 467 899 q 406 758 418 810 q 393 658 393 707 q 418 558 393 590 q 492 526 443 526 z "},"9":{"ha":844,"x_min":128,"x_max":874,"o":"m 128 -18 l 128 26 q 299 73 221 36 q 439 165 378 110 q 540 286 500 221 q 596 418 581 351 l 592 422 q 501 371 543 386 q 411 356 460 356 q 270 391 332 356 q 174 488 208 426 q 139 622 139 549 q 173 765 139 696 q 267 892 207 835 q 403 982 326 949 q 568 1015 481 1015 q 731 974 663 1015 q 836 858 799 932 q 874 683 874 783 q 828 468 874 572 q 706 276 783 364 q 533 122 629 188 q 331 19 436 56 q 128 -18 226 -18 m 433 400 q 526 426 478 400 q 622 508 574 453 q 648 590 635 539 q 669 699 661 640 q 678 818 678 758 q 655 938 678 899 q 576 976 632 976 q 480 944 519 976 q 413 858 440 911 q 370 745 386 806 q 347 628 354 685 q 340 531 340 571 q 360 435 340 469 q 433 400 379 400 z "},"A":{"ha":846,"x_min":-103,"x_max":776,"o":"m -26 28 l 693 1065 l 535 765 l 31 28 l -26 28 m -103 0 l -103 39 l 172 39 l 172 0 l -103 0 m 356 0 l 356 39 l 776 39 l 776 0 l 356 0 m 211 311 l 211 354 l 585 354 l 585 311 l 211 311 m 468 14 l 536 760 l 531 760 l 686 1065 l 743 1065 l 667 14 l 468 14 z "},"Á":{"ha":846,"x_min":-103,"x_max":978,"o":"m -26 28 l 693 1065 l 535 765 l 31 28 l -26 28 m -103 0 l -103 39 l 172 39 l 172 0 l -103 0 m 356 0 l 356 39 l 776 39 l 776 0 l 356 0 m 211 311 l 211 354 l 585 354 l 585 311 l 211 311 m 468 14 l 536 760 l 531 760 l 686 1065 l 743 1065 l 667 14 l 468 14 m 544 1172 l 788 1322 q 855 1358 829 1347 q 907 1368 881 1368 q 959 1349 940 1368 q 978 1304 978 1331 q 958 1257 978 1279 q 897 1226 939 1235 l 633 1172 l 544 1172 z "},"Ă":{"ha":846,"x_min":-103,"x_max":985,"o":"m -26 28 l 693 1065 l 535 765 l 31 28 l -26 28 m -103 0 l -103 39 l 172 39 l 172 0 l -103 0 m 356 0 l 356 39 l 776 39 l 776 0 l 356 0 m 211 311 l 211 354 l 585 354 l 585 311 l 211 311 m 468 14 l 536 760 l 531 760 l 686 1065 l 743 1065 l 667 14 l 468 14 m 736 1172 q 594 1219 642 1172 q 568 1360 546 1267 l 619 1360 q 632 1308 614 1326 q 683 1283 650 1289 q 753 1276 715 1276 q 834 1283 796 1276 q 899 1309 872 1290 q 933 1360 925 1328 l 985 1360 q 898 1222 967 1271 q 736 1172 829 1172 z "},"Ắ":{"ha":846,"x_min":-103,"x_max":1132,"o":"m -26 28 l 693 1065 l 535 765 l 31 28 l -26 28 m -103 0 l -103 39 l 172 39 l 172 0 l -103 0 m 356 0 l 356 39 l 776 39 l 776 0 l 356 0 m 211 311 l 211 354 l 585 354 l 585 311 l 211 311 m 468 14 l 536 760 l 531 760 l 686 1065 l 743 1065 l 667 14 l 468 14 m 746 1154 q 611 1198 656 1154 q 588 1332 567 1242 l 639 1332 q 649 1282 633 1299 q 697 1260 665 1265 q 764 1254 728 1254 q 841 1260 806 1254 q 901 1283 876 1267 q 933 1332 926 1300 l 983 1332 q 902 1199 967 1244 q 746 1154 838 1154 m 700 1378 l 943 1528 q 1010 1563 985 1553 q 1061 1574 1035 1574 q 1115 1555 1096 1574 q 1133 1510 1133 1536 q 1114 1463 1133 1485 q 1051 1432 1094 1440 l 788 1378 l 700 1378 z "},"Ặ":{"ha":846,"x_min":-103,"x_max":985,"o":"m -26 28 l 693 1065 l 535 765 l 31 28 l -26 28 m -103 0 l -103 39 l 172 39 l 172 0 l -103 0 m 356 0 l 356 39 l 776 39 l 776 0 l 356 0 m 211 311 l 211 354 l 585 354 l 585 311 l 211 311 m 468 14 l 536 760 l 531 760 l 686 1065 l 743 1065 l 667 14 l 468 14 m 303 -310 q 230 -278 261 -310 q 199 -204 199 -247 q 230 -130 199 -161 q 303 -99 261 -99 q 378 -130 347 -99 q 410 -204 410 -161 q 378 -278 410 -247 q 303 -310 347 -310 m 736 1172 q 594 1219 642 1172 q 568 1360 546 1267 l 619 1360 q 632 1308 614 1326 q 683 1283 650 1289 q 753 1276 715 1276 q 834 1283 796 1276 q 899 1309 872 1290 q 933 1360 925 1328 l 985 1360 q 898 1222 967 1271 q 736 1172 829 1172 z "},"Ằ":{"ha":846,"x_min":-103,"x_max":972,"o":"m -26 28 l 693 1065 l 535 765 l 31 28 l -26 28 m -103 0 l -103 39 l 172 39 l 172 0 l -103 0 m 356 0 l 356 39 l 776 39 l 776 0 l 356 0 m 211 311 l 211 354 l 585 354 l 585 311 l 211 311 m 468 14 l 536 760 l 531 760 l 686 1065 l 743 1065 l 667 14 l 468 14 m 735 1154 q 600 1198 644 1154 q 576 1332 556 1242 l 628 1332 q 638 1282 622 1299 q 685 1260 654 1265 q 753 1254 717 1254 q 830 1260 794 1254 q 890 1283 865 1267 q 922 1332 915 1300 l 972 1332 q 891 1199 956 1244 q 735 1154 826 1154 m 807 1379 l 547 1436 q 495 1463 511 1443 q 479 1506 479 1483 q 500 1553 479 1532 q 558 1575 521 1575 q 606 1565 583 1575 q 668 1529 629 1554 l 896 1379 l 807 1379 z "},"Ẳ":{"ha":846,"x_min":-103,"x_max":989,"o":"m -26 28 l 693 1065 l 535 765 l 31 28 l -26 28 m -103 0 l -103 39 l 172 39 l 172 0 l -103 0 m 356 0 l 356 39 l 776 39 l 776 0 l 356 0 m 211 311 l 211 354 l 585 354 l 585 311 l 211 311 m 468 14 l 536 760 l 531 760 l 686 1065 l 743 1065 l 667 14 l 468 14 m 751 1154 q 617 1198 661 1154 q 593 1332 572 1242 l 644 1332 q 655 1282 639 1299 q 702 1260 671 1265 q 769 1254 733 1254 q 847 1260 811 1254 q 907 1283 882 1267 q 939 1332 932 1300 l 989 1332 q 908 1199 972 1244 q 751 1154 843 1154 m 765 1339 q 794 1401 774 1379 q 833 1438 814 1424 q 856 1468 853 1451 q 849 1518 863 1503 q 807 1533 835 1533 q 762 1520 781 1533 q 740 1492 743 1507 q 744 1474 739 1478 q 753 1464 749 1469 q 756 1442 758 1458 q 736 1415 754 1424 q 699 1407 718 1407 q 660 1424 674 1407 q 653 1469 647 1442 q 713 1563 665 1535 q 818 1592 761 1592 q 922 1560 890 1592 q 939 1460 953 1529 q 916 1417 933 1432 q 877 1393 899 1403 q 838 1372 856 1383 q 814 1339 821 1361 l 765 1339 z "},"Ẵ":{"ha":846,"x_min":-103,"x_max":1097,"o":"m -26 28 l 693 1065 l 535 765 l 31 28 l -26 28 m -103 0 l -103 39 l 172 39 l 172 0 l -103 0 m 356 0 l 356 39 l 776 39 l 776 0 l 356 0 m 211 311 l 211 354 l 585 354 l 585 311 l 211 311 m 468 14 l 536 760 l 531 760 l 686 1065 l 743 1065 l 667 14 l 468 14 m 743 1154 q 608 1198 653 1154 q 585 1332 564 1242 l 635 1332 q 646 1282 629 1299 q 694 1260 663 1265 q 760 1254 725 1254 q 838 1260 801 1254 q 898 1283 874 1267 q 931 1332 922 1300 l 981 1332 q 899 1199 964 1244 q 743 1154 835 1154 m 565 1381 q 607 1470 581 1429 q 672 1536 633 1511 q 760 1561 711 1561 q 829 1545 803 1561 q 881 1514 856 1529 q 939 1499 906 1499 q 1009 1521 981 1499 q 1049 1564 1038 1543 l 1097 1564 q 1019 1430 1069 1478 q 901 1382 969 1382 q 831 1397 858 1382 q 780 1428 804 1413 q 719 1444 756 1444 q 653 1426 682 1444 q 613 1381 625 1407 l 565 1381 z "},"Â":{"ha":846,"x_min":-103,"x_max":983,"o":"m -26 28 l 693 1065 l 535 765 l 31 28 l -26 28 m -103 0 l -103 39 l 172 39 l 172 0 l -103 0 m 356 0 l 356 39 l 776 39 l 776 0 l 356 0 m 211 311 l 211 354 l 585 354 l 585 311 l 211 311 m 468 14 l 536 760 l 531 760 l 686 1065 l 743 1065 l 667 14 l 468 14 m 503 1172 l 742 1358 l 822 1358 l 983 1172 l 919 1172 l 757 1242 l 565 1172 l 503 1172 z "},"Ấ":{"ha":846,"x_min":-103,"x_max":989,"o":"m -26 28 l 693 1065 l 535 765 l 31 28 l -26 28 m -103 0 l -103 39 l 172 39 l 172 0 l -103 0 m 356 0 l 356 39 l 776 39 l 776 0 l 356 0 m 211 311 l 211 354 l 585 354 l 585 311 l 211 311 m 468 14 l 536 760 l 531 760 l 686 1065 l 743 1065 l 667 14 l 468 14 m 510 1151 l 715 1301 l 796 1301 l 953 1151 l 889 1151 l 746 1213 l 572 1151 l 510 1151 m 556 1349 l 799 1497 q 866 1533 840 1522 q 918 1543 892 1543 q 970 1525 951 1543 q 989 1481 989 1507 q 969 1433 989 1456 q 908 1403 950 1411 l 644 1349 l 556 1349 z "},"Ậ":{"ha":846,"x_min":-103,"x_max":983,"o":"m -26 28 l 693 1065 l 535 765 l 31 28 l -26 28 m -103 0 l -103 39 l 172 39 l 172 0 l -103 0 m 356 0 l 356 39 l 776 39 l 776 0 l 356 0 m 211 311 l 211 354 l 585 354 l 585 311 l 211 311 m 468 14 l 536 760 l 531 760 l 686 1065 l 743 1065 l 667 14 l 468 14 m 303 -310 q 230 -278 261 -310 q 199 -204 199 -247 q 230 -130 199 -161 q 303 -99 261 -99 q 378 -130 347 -99 q 410 -204 410 -161 q 378 -278 410 -247 q 303 -310 347 -310 m 503 1172 l 742 1358 l 822 1358 l 983 1172 l 919 1172 l 757 1242 l 565 1172 l 503 1172 z "},"Ầ":{"ha":846,"x_min":-103,"x_max":1011,"o":"m -26 28 l 693 1065 l 535 765 l 31 28 l -26 28 m -103 0 l -103 39 l 172 39 l 172 0 l -103 0 m 356 0 l 356 39 l 776 39 l 776 0 l 356 0 m 211 311 l 211 354 l 585 354 l 585 311 l 211 311 m 468 14 l 536 760 l 531 760 l 686 1065 l 743 1065 l 667 14 l 468 14 m 515 1151 l 721 1301 l 801 1301 l 958 1151 l 894 1151 l 751 1213 l 578 1151 l 515 1151 m 922 1349 l 663 1404 q 611 1431 628 1411 q 594 1474 594 1451 q 615 1522 594 1501 q 674 1543 636 1543 q 722 1533 699 1543 q 783 1497 744 1522 l 1011 1349 l 922 1349 z "},"Ẩ":{"ha":846,"x_min":-103,"x_max":1089,"o":"m -26 28 l 693 1065 l 535 765 l 31 28 l -26 28 m -103 0 l -103 39 l 172 39 l 172 0 l -103 0 m 356 0 l 356 39 l 776 39 l 776 0 l 356 0 m 211 311 l 211 354 l 585 354 l 585 311 l 211 311 m 468 14 l 536 760 l 531 760 l 686 1065 l 743 1065 l 667 14 l 468 14 m 510 1151 l 715 1301 l 796 1301 l 953 1151 l 889 1151 l 746 1213 l 572 1151 l 510 1151 m 901 1279 q 930 1341 910 1319 q 969 1376 950 1363 q 992 1407 989 1390 q 985 1458 999 1443 q 943 1472 971 1472 q 898 1460 917 1472 q 876 1432 879 1447 q 880 1414 875 1418 q 890 1404 885 1410 q 892 1382 894 1399 q 872 1356 890 1364 q 835 1347 854 1347 q 797 1365 810 1347 q 789 1408 783 1382 q 849 1503 801 1475 q 954 1531 897 1531 q 1058 1500 1026 1531 q 1075 1400 1089 1469 q 1052 1357 1069 1372 q 1013 1333 1035 1342 q 974 1313 992 1324 q 950 1279 957 1301 l 901 1279 z "},"Ẫ":{"ha":846,"x_min":-103,"x_max":1069,"o":"m -26 28 l 693 1065 l 535 765 l 31 28 l -26 28 m -103 0 l -103 39 l 172 39 l 172 0 l -103 0 m 356 0 l 356 39 l 776 39 l 776 0 l 356 0 m 211 311 l 211 354 l 585 354 l 585 311 l 211 311 m 468 14 l 536 760 l 531 760 l 686 1065 l 743 1065 l 667 14 l 468 14 m 508 1151 l 714 1301 l 794 1301 l 951 1151 l 888 1151 l 744 1213 l 571 1151 l 508 1151 m 539 1333 q 580 1423 553 1382 q 645 1489 607 1464 q 732 1514 683 1514 q 801 1498 775 1514 q 853 1467 828 1482 q 911 1451 878 1451 q 981 1474 953 1451 q 1021 1517 1010 1496 l 1069 1517 q 992 1383 1042 1431 q 874 1335 943 1335 q 803 1350 831 1335 q 752 1381 776 1365 q 692 1397 728 1397 q 626 1378 656 1397 q 585 1333 597 1360 l 539 1333 z "},"Ȁ":{"ha":846,"x_min":-103,"x_max":1043,"o":"m -26 28 l 693 1065 l 535 765 l 31 28 l -26 28 m -103 0 l -103 39 l 172 39 l 172 0 l -103 0 m 356 0 l 356 39 l 776 39 l 776 0 l 356 0 m 211 311 l 211 354 l 585 354 l 585 311 l 211 311 m 468 14 l 536 760 l 531 760 l 686 1065 l 743 1065 l 667 14 l 468 14 m 960 1172 l 743 1225 q 695 1251 711 1233 q 679 1290 679 1269 q 699 1337 679 1317 q 753 1357 718 1357 q 800 1349 778 1357 q 857 1314 822 1340 l 1043 1172 l 960 1172 m 651 1172 l 435 1225 q 387 1251 403 1233 q 371 1290 371 1269 q 390 1337 371 1317 q 444 1357 410 1357 q 492 1349 469 1357 q 549 1314 514 1340 l 735 1172 l 651 1172 z "},"Ä":{"ha":846,"x_min":-103,"x_max":996,"o":"m -26 28 l 693 1065 l 535 765 l 31 28 l -26 28 m -103 0 l -103 39 l 172 39 l 172 0 l -103 0 m 356 0 l 356 39 l 776 39 l 776 0 l 356 0 m 211 311 l 211 354 l 585 354 l 585 311 l 211 311 m 468 14 l 536 760 l 531 760 l 686 1065 l 743 1065 l 667 14 l 468 14 m 899 1190 q 831 1218 860 1190 q 803 1286 803 1246 q 831 1353 803 1325 q 899 1381 860 1381 q 968 1353 940 1381 q 996 1286 996 1326 q 968 1218 996 1246 q 899 1190 940 1190 m 604 1190 q 536 1218 564 1190 q 508 1286 508 1246 q 535 1353 508 1325 q 604 1381 563 1381 q 672 1353 643 1381 q 701 1286 701 1326 q 672 1218 701 1246 q 604 1190 643 1190 z "},"Ạ":{"ha":846,"x_min":-103,"x_max":776,"o":"m -26 28 l 693 1065 l 535 765 l 31 28 l -26 28 m -103 0 l -103 39 l 172 39 l 172 0 l -103 0 m 356 0 l 356 39 l 776 39 l 776 0 l 356 0 m 211 311 l 211 354 l 585 354 l 585 311 l 211 311 m 468 14 l 536 760 l 531 760 l 686 1065 l 743 1065 l 667 14 l 468 14 m 303 -310 q 230 -278 261 -310 q 199 -204 199 -247 q 230 -130 199 -161 q 303 -99 261 -99 q 378 -130 347 -99 q 410 -204 410 -161 q 378 -278 410 -247 q 303 -310 347 -310 z "},"À":{"ha":846,"x_min":-103,"x_max":950,"o":"m -26 28 l 693 1065 l 535 765 l 31 28 l -26 28 m -103 0 l -103 39 l 172 39 l 172 0 l -103 0 m 356 0 l 356 39 l 776 39 l 776 0 l 356 0 m 211 311 l 211 354 l 585 354 l 585 311 l 211 311 m 468 14 l 536 760 l 531 760 l 686 1065 l 743 1065 l 667 14 l 468 14 m 863 1172 l 601 1228 q 551 1255 567 1235 q 535 1297 535 1275 q 556 1346 535 1325 q 613 1367 576 1367 q 662 1356 639 1367 q 724 1321 685 1346 l 950 1172 l 863 1172 z "},"Ả":{"ha":846,"x_min":-103,"x_max":913,"o":"m -26 28 l 693 1065 l 535 765 l 31 28 l -26 28 m -103 0 l -103 39 l 172 39 l 172 0 l -103 0 m 356 0 l 356 39 l 776 39 l 776 0 l 356 0 m 211 311 l 211 354 l 585 354 l 585 311 l 211 311 m 468 14 l 536 760 l 531 760 l 686 1065 l 743 1065 l 667 14 l 468 14 m 736 1143 q 757 1192 743 1174 q 787 1226 771 1211 q 814 1252 803 1240 q 826 1281 825 1264 q 817 1323 829 1310 q 778 1336 806 1336 q 733 1324 751 1336 q 711 1296 714 1311 q 715 1278 710 1282 q 724 1268 719 1274 q 726 1246 729 1263 q 707 1219 725 1228 q 669 1211 689 1211 q 633 1227 644 1211 q 624 1267 622 1243 q 651 1342 626 1314 q 714 1382 676 1369 q 789 1394 751 1394 q 884 1367 856 1394 q 910 1288 913 1339 q 892 1239 908 1257 q 853 1207 875 1221 q 811 1179 831 1193 q 785 1143 792 1165 l 736 1143 z "},"Ȃ":{"ha":846,"x_min":-103,"x_max":950,"o":"m -26 28 l 693 1065 l 535 765 l 31 28 l -26 28 m -103 0 l -103 39 l 172 39 l 172 0 l -103 0 m 356 0 l 356 39 l 776 39 l 776 0 l 356 0 m 211 311 l 211 354 l 585 354 l 585 311 l 211 311 m 468 14 l 536 760 l 531 760 l 686 1065 l 743 1065 l 667 14 l 468 14 m 525 1172 q 608 1315 543 1261 q 772 1368 674 1368 q 903 1332 856 1368 q 950 1226 950 1296 q 943 1172 950 1203 l 890 1172 q 860 1244 899 1222 q 757 1265 821 1265 q 638 1243 686 1265 q 578 1172 589 1221 l 525 1172 z "},"Ā":{"ha":846,"x_min":-103,"x_max":1017,"o":"m -26 28 l 693 1065 l 535 765 l 31 28 l -26 28 m -103 0 l -103 39 l 172 39 l 172 0 l -103 0 m 356 0 l 356 39 l 776 39 l 776 0 l 356 0 m 211 311 l 211 354 l 585 354 l 585 311 l 211 311 m 468 14 l 536 760 l 531 760 l 686 1065 l 743 1065 l 667 14 l 468 14 m 529 1203 l 554 1314 l 1017 1314 l 992 1203 l 529 1203 z "},"Ą":{"ha":846,"x_min":-103,"x_max":776,"o":"m -26 28 l 693 1065 l 535 765 l 31 28 l -26 28 m -103 0 l -103 39 l 172 39 l 172 0 l -103 0 m 356 0 l 356 39 l 776 39 l 776 0 l 356 0 m 211 311 l 211 354 l 585 354 l 585 311 l 211 311 m 468 14 l 536 760 l 531 760 l 686 1065 l 743 1065 l 667 14 l 468 14 m 481 -332 q 394 -308 426 -332 q 363 -240 363 -283 q 428 -118 363 -182 q 625 14 493 -54 l 685 11 q 541 -96 594 -39 q 488 -201 488 -153 q 504 -242 488 -228 q 550 -257 521 -257 q 592 -250 568 -257 q 647 -228 615 -243 l 667 -264 q 584 -312 638 -293 q 481 -332 531 -332 z "},"Å":{"ha":846,"x_min":-103,"x_max":850,"o":"m -26 28 l 693 1065 l 535 765 l 31 28 l -26 28 m -103 0 l -103 39 l 172 39 l 172 0 l -103 0 m 356 0 l 356 39 l 776 39 l 776 0 l 356 0 m 211 311 l 211 354 l 585 354 l 585 311 l 211 311 m 468 14 l 536 760 l 531 760 l 686 1065 l 743 1065 l 667 14 l 468 14 m 750 1168 q 678 1196 706 1168 q 650 1268 650 1224 q 678 1340 650 1313 q 750 1367 706 1367 q 822 1340 794 1367 q 850 1268 850 1314 q 822 1196 850 1224 q 750 1168 794 1168 m 750 1211 q 788 1227 775 1211 q 801 1267 801 1243 q 788 1307 801 1292 q 750 1322 774 1322 q 712 1307 726 1322 q 697 1267 697 1292 q 712 1227 697 1243 q 750 1211 726 1211 z "},"Ǻ":{"ha":846,"x_min":-103,"x_max":1183,"o":"m -26 28 l 693 1065 l 535 765 l 31 28 l -26 28 m -103 0 l -103 39 l 172 39 l 172 0 l -103 0 m 356 0 l 356 39 l 776 39 l 776 0 l 356 0 m 211 311 l 211 354 l 585 354 l 585 311 l 211 311 m 468 14 l 536 760 l 531 760 l 686 1065 l 743 1065 l 667 14 l 468 14 m 721 1026 q 649 1054 676 1026 q 621 1126 621 1082 q 649 1198 621 1171 q 721 1225 676 1225 q 793 1199 765 1225 q 821 1126 821 1172 q 793 1054 821 1082 q 721 1026 765 1026 m 721 1069 q 759 1085 746 1069 q 772 1125 772 1101 q 758 1165 772 1150 q 721 1181 744 1181 q 683 1165 697 1181 q 668 1125 668 1150 q 683 1085 668 1101 q 721 1069 697 1069 m 750 1176 l 993 1326 q 1060 1362 1035 1351 q 1113 1372 1086 1372 q 1165 1353 1146 1372 q 1183 1308 1183 1335 q 1164 1261 1183 1283 q 1103 1231 1144 1239 l 839 1176 l 750 1176 z "},"Ã":{"ha":846,"x_min":-103,"x_max":1035,"o":"m -26 28 l 693 1065 l 535 765 l 31 28 l -26 28 m -103 0 l -103 39 l 172 39 l 172 0 l -103 0 m 356 0 l 356 39 l 776 39 l 776 0 l 356 0 m 211 311 l 211 354 l 585 354 l 585 311 l 211 311 m 468 14 l 536 760 l 531 760 l 686 1065 l 743 1065 l 667 14 l 468 14 m 503 1171 q 544 1262 518 1221 q 610 1328 571 1303 q 697 1353 649 1353 q 767 1337 740 1353 q 818 1305 793 1321 q 876 1289 843 1289 q 947 1312 918 1289 q 986 1354 975 1335 l 1035 1354 q 957 1221 1007 1269 q 839 1172 907 1172 q 769 1188 796 1172 q 717 1220 742 1204 q 657 1236 693 1236 q 591 1217 619 1236 q 550 1171 563 1199 l 503 1171 z "},"Æ":{"ha":1363,"x_min":-147,"x_max":1400,"o":"m -71 28 l 678 1029 l 726 1019 l -14 28 l -71 28 m -147 0 l -147 39 l 128 39 l 128 0 l -147 0 m 186 311 l 186 354 l 597 354 l 597 311 l 186 311 m 388 0 l 388 39 l 943 39 q 1057 63 1006 39 q 1157 147 1108 86 q 1258 322 1206 207 l 1308 322 l 1225 0 l 388 0 m 517 0 l 744 1047 l 939 1047 l 706 0 l 517 0 m 1010 315 q 995 444 1010 400 q 951 505 981 489 q 874 521 921 521 l 753 521 l 753 561 l 896 561 q 983 578 946 561 q 1049 635 1019 594 q 1099 743 1078 675 l 1142 743 l 1054 315 l 1010 315 m 1303 764 q 1283 914 1303 861 q 1214 988 1264 967 q 1074 1008 1164 1008 l 524 1008 l 524 1047 l 1400 1047 l 1353 764 l 1303 764 z "},"Ǽ":{"ha":1363,"x_min":-147,"x_max":1400,"o":"m -71 28 l 678 1029 l 726 1019 l -14 28 l -71 28 m -147 0 l -147 39 l 128 39 l 128 0 l -147 0 m 186 311 l 186 354 l 597 354 l 597 311 l 186 311 m 388 0 l 388 39 l 943 39 q 1057 63 1006 39 q 1157 147 1108 86 q 1258 322 1206 207 l 1308 322 l 1225 0 l 388 0 m 517 0 l 744 1047 l 939 1047 l 706 0 l 517 0 m 1010 315 q 995 444 1010 400 q 951 505 981 489 q 874 521 921 521 l 753 521 l 753 561 l 896 561 q 983 578 946 561 q 1049 635 1019 594 q 1099 743 1078 675 l 1142 743 l 1054 315 l 1010 315 m 1303 764 q 1283 914 1303 861 q 1214 988 1264 967 q 1074 1008 1164 1008 l 524 1008 l 524 1047 l 1400 1047 l 1353 764 l 1303 764 m 825 1144 l 1068 1294 q 1135 1330 1110 1319 q 1188 1340 1161 1340 q 1240 1322 1221 1340 q 1258 1276 1258 1303 q 1239 1229 1258 1251 q 1178 1199 1219 1207 l 914 1144 l 825 1144 z "},"B":{"ha":954,"x_min":-29,"x_max":949,"o":"m -29 0 l -29 40 l 429 40 q 553 75 499 40 q 638 178 607 110 q 669 346 669 246 q 638 480 669 433 q 526 526 606 526 l 290 526 l 290 565 l 531 565 q 591 558 558 565 q 660 542 624 551 q 788 491 738 525 q 864 408 839 457 q 889 299 889 360 q 840 140 889 207 q 708 37 792 74 q 515 0 624 0 l -29 0 m 83 0 l 311 1047 l 506 1047 l 272 0 l 83 0 m 247 526 l 247 565 l 517 565 q 635 601 586 565 q 710 701 685 638 q 736 851 736 765 q 705 970 736 932 q 583 1008 674 1008 l 168 1008 l 168 1047 l 594 1047 q 863 981 776 1047 q 949 813 949 915 q 891 660 949 725 q 726 561 833 596 q 465 526 618 526 l 247 526 z "},"C":{"ha":951,"x_min":96,"x_max":1000,"o":"m 479 -18 q 270 40 356 -18 q 140 192 185 97 q 96 396 96 288 q 128 588 96 492 q 219 769 161 683 q 354 920 278 854 q 517 1024 431 986 q 693 1063 604 1063 q 801 1043 754 1063 q 893 979 849 1024 l 956 1047 l 1000 1047 l 935 733 l 896 733 q 867 886 896 822 q 791 984 839 950 q 685 1018 743 1018 q 573 982 624 1018 q 482 885 522 946 q 413 747 442 824 q 363 588 383 671 q 333 426 343 504 q 324 281 324 347 q 368 85 324 140 q 494 31 413 31 q 604 52 544 31 q 728 128 664 74 q 854 286 793 183 l 894 286 l 821 0 l 781 0 l 739 54 q 618 3 682 24 q 479 -18 554 -18 z "},"Ć":{"ha":951,"x_min":96,"x_max":1000,"o":"m 479 -18 q 270 40 356 -18 q 140 192 185 97 q 96 396 96 288 q 128 588 96 492 q 219 769 161 683 q 354 920 278 854 q 517 1024 431 986 q 693 1063 604 1063 q 801 1043 754 1063 q 893 979 849 1024 l 956 1047 l 1000 1047 l 935 733 l 896 733 q 867 886 896 822 q 791 984 839 950 q 685 1018 743 1018 q 573 982 624 1018 q 482 885 522 946 q 413 747 442 824 q 363 588 383 671 q 333 426 343 504 q 324 281 324 347 q 368 85 324 140 q 494 31 413 31 q 604 52 544 31 q 728 128 664 74 q 854 286 793 183 l 894 286 l 821 0 l 781 0 l 739 54 q 618 3 682 24 q 479 -18 554 -18 m 532 1172 l 775 1322 q 842 1358 817 1347 q 894 1368 868 1368 q 947 1349 928 1368 q 965 1304 965 1331 q 946 1257 965 1279 q 885 1226 926 1235 l 621 1172 l 532 1172 z "},"Č":{"ha":951,"x_min":96,"x_max":1004,"o":"m 479 -18 q 270 40 356 -18 q 140 192 185 97 q 96 396 96 288 q 128 588 96 492 q 219 769 161 683 q 354 920 278 854 q 517 1024 431 986 q 693 1063 604 1063 q 801 1043 754 1063 q 893 979 849 1024 l 956 1047 l 1000 1047 l 935 733 l 896 733 q 867 886 896 822 q 791 984 839 950 q 685 1018 743 1018 q 573 982 624 1018 q 482 885 522 946 q 413 747 442 824 q 363 588 383 671 q 333 426 343 504 q 324 281 324 347 q 368 85 324 140 q 494 31 413 31 q 604 52 544 31 q 728 128 664 74 q 854 286 793 183 l 894 286 l 821 0 l 781 0 l 739 54 q 618 3 682 24 q 479 -18 554 -18 m 683 1172 l 522 1358 l 586 1358 l 749 1289 l 940 1358 l 1003 1358 l 764 1172 l 683 1172 z "},"Ç":{"ha":951,"x_min":96,"x_max":1000,"o":"m 479 -18 q 270 40 356 -18 q 140 192 185 97 q 96 396 96 288 q 128 588 96 492 q 219 769 161 683 q 354 920 278 854 q 517 1024 431 986 q 693 1063 604 1063 q 801 1043 754 1063 q 893 979 849 1024 l 956 1047 l 1000 1047 l 935 733 l 896 733 q 867 886 896 822 q 791 984 839 950 q 685 1018 743 1018 q 573 982 624 1018 q 482 885 522 946 q 413 747 442 824 q 363 588 383 671 q 333 426 343 504 q 324 281 324 347 q 368 85 324 140 q 494 31 413 31 q 604 52 544 31 q 728 128 664 74 q 854 286 793 183 l 894 286 l 821 0 l 781 0 l 739 54 q 618 3 682 24 q 479 -18 554 -18 m 381 -322 q 313 -314 339 -322 q 275 -299 286 -306 l 299 -251 q 328 -262 306 -257 q 374 -267 351 -267 q 447 -248 418 -267 q 475 -193 475 -229 q 454 -152 475 -168 q 381 -135 433 -136 l 469 14 l 526 14 l 467 -92 l 493 -92 q 578 -116 549 -92 q 607 -182 607 -140 q 571 -260 607 -229 q 483 -307 535 -292 q 381 -322 431 -322 z "},"Ĉ":{"ha":951,"x_min":96,"x_max":1000,"o":"m 479 -18 q 270 40 356 -18 q 140 192 185 97 q 96 396 96 288 q 128 588 96 492 q 219 769 161 683 q 354 920 278 854 q 517 1024 431 986 q 693 1063 604 1063 q 801 1043 754 1063 q 893 979 849 1024 l 956 1047 l 1000 1047 l 935 733 l 896 733 q 867 886 896 822 q 791 984 839 950 q 685 1018 743 1018 q 573 982 624 1018 q 482 885 522 946 q 413 747 442 824 q 363 588 383 671 q 333 426 343 504 q 324 281 324 347 q 368 85 324 140 q 494 31 413 31 q 604 52 544 31 q 728 128 664 74 q 854 286 793 183 l 894 286 l 821 0 l 781 0 l 739 54 q 618 3 682 24 q 479 -18 554 -18 m 492 1172 l 731 1358 l 811 1358 l 972 1172 l 908 1172 l 746 1242 l 554 1172 l 492 1172 z "},"Ċ":{"ha":951,"x_min":96,"x_max":1000,"o":"m 479 -18 q 270 40 356 -18 q 140 192 185 97 q 96 396 96 288 q 128 588 96 492 q 219 769 161 683 q 354 920 278 854 q 517 1024 431 986 q 693 1063 604 1063 q 801 1043 754 1063 q 893 979 849 1024 l 956 1047 l 1000 1047 l 935 733 l 896 733 q 867 886 896 822 q 791 984 839 950 q 685 1018 743 1018 q 573 982 624 1018 q 482 885 522 946 q 413 747 442 824 q 363 588 383 671 q 333 426 343 504 q 324 281 324 347 q 368 85 324 140 q 494 31 413 31 q 604 52 544 31 q 728 128 664 74 q 854 286 793 183 l 894 286 l 821 0 l 781 0 l 739 54 q 618 3 682 24 q 479 -18 554 -18 m 718 1154 q 644 1185 675 1154 q 613 1258 613 1217 q 644 1334 613 1303 q 718 1365 675 1365 q 794 1334 763 1365 q 825 1258 825 1303 q 794 1185 825 1217 q 718 1154 763 1154 z "},"D":{"ha":1067,"x_min":-44,"x_max":1038,"o":"m -44 0 l -44 42 l 413 42 q 584 88 507 42 q 716 223 661 135 q 801 434 771 311 q 832 710 832 557 q 822 833 832 778 q 785 928 811 889 q 711 988 758 967 q 590 1008 664 1008 l 156 1008 l 156 1047 l 596 1047 q 838 994 740 1047 q 987 843 936 942 q 1038 608 1038 744 q 994 376 1038 486 q 871 181 950 267 q 683 48 792 96 q 446 0 575 0 l -44 0 m 78 0 l 306 1047 l 500 1047 l 267 0 l 78 0 z "},"Ǳ":{"ha":1986,"x_min":-44,"x_max":2058,"o":"m -44 0 l -44 42 l 413 42 q 584 88 507 42 q 716 223 661 135 q 801 434 771 311 q 832 710 832 557 q 822 833 832 778 q 785 928 811 889 q 711 988 758 967 q 590 1008 664 1008 l 156 1008 l 156 1047 l 596 1047 q 838 994 740 1047 q 987 843 936 942 q 1038 608 1038 744 q 994 376 1038 486 q 871 181 950 267 q 683 48 792 96 q 446 0 575 0 l -44 0 m 78 0 l 306 1047 l 500 1047 l 267 0 l 78 0 m 1069 39 l 1826 1003 l 1826 1008 l 2058 1008 l 1311 46 l 1311 39 l 1069 39 m 1069 0 l 1069 39 l 1553 39 q 1667 63 1615 39 q 1767 147 1718 86 q 1868 322 1815 207 l 1919 322 l 1836 0 l 1069 0 m 1271 744 l 1357 1047 l 2058 1047 l 2058 1008 l 1618 1008 q 1510 982 1564 1008 q 1408 898 1457 956 q 1318 744 1360 840 l 1271 744 z "},"Ǆ":{"ha":1986,"x_min":-44,"x_max":2058,"o":"m -44 0 l -44 42 l 413 42 q 584 88 507 42 q 716 223 661 135 q 801 434 771 311 q 832 710 832 557 q 822 833 832 778 q 785 928 811 889 q 711 988 758 967 q 590 1008 664 1008 l 156 1008 l 156 1047 l 596 1047 q 838 994 740 1047 q 987 843 936 942 q 1038 608 1038 744 q 994 376 1038 486 q 871 181 950 267 q 683 48 792 96 q 446 0 575 0 l -44 0 m 78 0 l 306 1047 l 500 1047 l 267 0 l 78 0 m 1069 39 l 1826 1003 l 1826 1008 l 2058 1008 l 1311 46 l 1311 39 l 1069 39 m 1069 0 l 1069 39 l 1553 39 q 1667 63 1615 39 q 1767 147 1718 86 q 1868 322 1815 207 l 1919 322 l 1836 0 l 1069 0 m 1271 744 l 1357 1047 l 2058 1047 l 2058 1008 l 1618 1008 q 1510 982 1564 1008 q 1408 898 1457 956 q 1318 744 1360 840 l 1271 744 m 1675 1172 l 1514 1358 l 1578 1358 l 1740 1289 l 1932 1358 l 1994 1358 l 1756 1172 l 1675 1172 z "},"Ð":{"ha":1067,"x_min":-44,"x_max":1038,"o":"m -44 0 l -44 42 l 413 42 q 584 88 507 42 q 716 223 661 135 q 801 434 771 311 q 832 710 832 557 q 822 833 832 778 q 785 928 811 889 q 711 988 758 967 q 590 1008 664 1008 l 156 1008 l 156 1047 l 596 1047 q 838 994 740 1047 q 987 843 936 942 q 1038 608 1038 744 q 994 376 1038 486 q 871 181 950 267 q 683 48 792 96 q 446 0 575 0 l -44 0 m 78 0 l 306 1047 l 500 1047 l 267 0 l 78 0 m 42 504 l 42 558 l 549 558 l 549 504 l 42 504 z "},"Ď":{"ha":1067,"x_min":-44,"x_max":1038,"o":"m -44 0 l -44 42 l 413 42 q 584 88 507 42 q 716 223 661 135 q 801 434 771 311 q 832 710 832 557 q 822 833 832 778 q 785 928 811 889 q 711 988 758 967 q 590 1008 664 1008 l 156 1008 l 156 1047 l 596 1047 q 838 994 740 1047 q 987 843 936 942 q 1038 608 1038 744 q 994 376 1038 486 q 871 181 950 267 q 683 48 792 96 q 446 0 575 0 l -44 0 m 78 0 l 306 1047 l 500 1047 l 267 0 l 78 0 m 681 1172 l 519 1358 l 583 1358 l 746 1289 l 938 1358 l 1000 1358 l 761 1172 l 681 1172 z "},"Đ":{"ha":1067,"x_min":-44,"x_max":1038,"o":"m -44 0 l -44 42 l 413 42 q 584 88 507 42 q 716 223 661 135 q 801 434 771 311 q 832 710 832 557 q 822 833 832 778 q 785 928 811 889 q 711 988 758 967 q 590 1008 664 1008 l 156 1008 l 156 1047 l 596 1047 q 838 994 740 1047 q 987 843 936 942 q 1038 608 1038 744 q 994 376 1038 486 q 871 181 950 267 q 683 48 792 96 q 446 0 575 0 l -44 0 m 78 0 l 306 1047 l 500 1047 l 267 0 l 78 0 m 42 504 l 42 558 l 549 558 l 549 504 l 42 504 z "},"Ḍ":{"ha":1067,"x_min":-44,"x_max":1038,"o":"m -44 0 l -44 42 l 413 42 q 584 88 507 42 q 716 223 661 135 q 801 434 771 311 q 832 710 832 557 q 822 833 832 778 q 785 928 811 889 q 711 988 758 967 q 590 1008 664 1008 l 156 1008 l 156 1047 l 596 1047 q 838 994 740 1047 q 987 843 936 942 q 1038 608 1038 744 q 994 376 1038 486 q 871 181 950 267 q 683 48 792 96 q 446 0 575 0 l -44 0 m 78 0 l 306 1047 l 500 1047 l 267 0 l 78 0 m 413 -310 q 340 -278 371 -310 q 308 -204 308 -247 q 340 -130 308 -161 q 413 -99 371 -99 q 488 -130 457 -99 q 519 -204 519 -161 q 488 -278 519 -247 q 413 -310 457 -310 z "},"ǲ":{"ha":1743,"x_min":-44,"x_max":1732,"o":"m -44 0 l -44 42 l 413 42 q 584 88 507 42 q 716 223 661 135 q 801 434 771 311 q 832 710 832 557 q 822 833 832 778 q 785 928 811 889 q 711 988 758 967 q 590 1008 664 1008 l 156 1008 l 156 1047 l 596 1047 q 838 994 740 1047 q 987 843 936 942 q 1038 608 1038 744 q 994 376 1038 486 q 871 181 950 267 q 683 48 792 96 q 446 0 575 0 l -44 0 m 78 0 l 306 1047 l 500 1047 l 267 0 l 78 0 m 1128 -15 q 1094 -3 1106 -15 q 1083 29 1083 10 q 1101 76 1083 49 q 1179 156 1119 103 l 1539 472 l 1536 476 q 1433 456 1483 463 q 1346 449 1383 449 q 1288 451 1315 449 q 1231 465 1260 454 l 1179 367 l 1147 381 l 1261 625 l 1292 625 q 1378 602 1336 611 q 1463 588 1421 593 q 1549 579 1504 582 q 1642 576 1593 576 q 1658 586 1654 576 q 1663 608 1661 596 q 1672 629 1665 619 q 1700 639 1679 639 q 1732 611 1732 639 q 1723 585 1732 600 q 1688 546 1714 571 l 1275 188 l 1275 182 q 1393 174 1344 182 q 1476 155 1442 165 q 1535 136 1510 144 q 1579 128 1560 128 q 1622 144 1610 128 q 1633 172 1633 161 q 1620 189 1633 185 q 1590 197 1607 193 q 1558 213 1572 201 q 1544 249 1544 224 q 1564 292 1544 278 q 1606 307 1583 307 q 1657 278 1639 307 q 1675 206 1675 250 q 1647 99 1675 150 q 1570 15 1619 47 q 1458 -18 1521 -18 q 1356 3 1404 -18 q 1265 44 1308 24 q 1185 65 1222 65 q 1165 53 1165 65 q 1167 24 1164 40 q 1164 -3 1169 8 q 1128 -15 1158 -15 z "},"ǅ":{"ha":1743,"x_min":-44,"x_max":1807,"o":"m -44 0 l -44 42 l 413 42 q 584 88 507 42 q 716 223 661 135 q 801 434 771 311 q 832 710 832 557 q 822 833 832 778 q 785 928 811 889 q 711 988 758 967 q 590 1008 664 1008 l 156 1008 l 156 1047 l 596 1047 q 838 994 740 1047 q 987 843 936 942 q 1038 608 1038 744 q 994 376 1038 486 q 871 181 950 267 q 683 48 792 96 q 446 0 575 0 l -44 0 m 78 0 l 306 1047 l 500 1047 l 267 0 l 78 0 m 1128 -15 q 1094 -3 1106 -15 q 1083 29 1083 10 q 1101 76 1083 49 q 1179 156 1119 103 l 1539 472 l 1536 476 q 1433 456 1483 463 q 1346 449 1383 449 q 1288 451 1315 449 q 1231 465 1260 454 l 1179 367 l 1147 381 l 1261 625 l 1292 625 q 1378 602 1336 611 q 1463 588 1421 593 q 1549 579 1504 582 q 1642 576 1593 576 q 1658 586 1654 576 q 1663 608 1661 596 q 1672 629 1665 619 q 1700 639 1679 639 q 1732 611 1732 639 q 1723 585 1732 600 q 1688 546 1714 571 l 1275 188 l 1275 182 q 1393 174 1344 182 q 1476 155 1442 165 q 1535 136 1510 144 q 1579 128 1560 128 q 1622 144 1610 128 q 1633 172 1633 161 q 1620 189 1633 185 q 1590 197 1607 193 q 1558 213 1572 201 q 1544 249 1544 224 q 1564 292 1544 278 q 1606 307 1583 307 q 1657 278 1639 307 q 1675 206 1675 250 q 1647 99 1675 150 q 1570 15 1619 47 q 1458 -18 1521 -18 q 1356 3 1404 -18 q 1265 44 1308 24 q 1185 65 1222 65 q 1165 53 1165 65 q 1167 24 1164 40 q 1164 -3 1169 8 q 1128 -15 1158 -15 m 1460 728 l 1319 1006 l 1379 1006 l 1535 876 l 1747 1006 l 1807 1006 l 1546 728 l 1460 728 z "},"E":{"ha":946,"x_min":-29,"x_max":983,"o":"m 100 0 l 328 1047 l 522 1047 l 289 0 l 100 0 m -29 0 l -29 39 l 526 39 q 640 63 589 39 q 740 147 692 86 q 842 322 789 207 l 892 322 l 808 0 l -29 0 m 593 315 q 578 444 593 400 q 534 505 564 489 q 457 521 504 521 l 336 521 l 336 561 l 479 561 q 566 578 529 561 q 632 635 603 594 q 682 743 661 675 l 725 743 l 638 315 l 593 315 m 886 764 q 867 914 886 861 q 797 988 847 967 q 657 1008 747 1008 l 171 1008 l 171 1047 l 983 1047 l 936 764 l 886 764 z "},"É":{"ha":946,"x_min":-29,"x_max":983,"o":"m 100 0 l 328 1047 l 522 1047 l 289 0 l 100 0 m -29 0 l -29 39 l 526 39 q 640 63 589 39 q 740 147 692 86 q 842 322 789 207 l 892 322 l 808 0 l -29 0 m 593 315 q 578 444 593 400 q 534 505 564 489 q 457 521 504 521 l 336 521 l 336 561 l 479 561 q 566 578 529 561 q 632 635 603 594 q 682 743 661 675 l 725 743 l 638 315 l 593 315 m 886 764 q 867 914 886 861 q 797 988 847 967 q 657 1008 747 1008 l 171 1008 l 171 1047 l 983 1047 l 936 764 l 886 764 m 453 1172 l 696 1322 q 763 1358 738 1347 q 815 1368 789 1368 q 867 1349 849 1368 q 886 1304 886 1331 q 867 1257 886 1279 q 806 1226 847 1235 l 542 1172 l 453 1172 z "},"Ĕ":{"ha":946,"x_min":-29,"x_max":983,"o":"m 100 0 l 328 1047 l 522 1047 l 289 0 l 100 0 m -29 0 l -29 39 l 526 39 q 640 63 589 39 q 740 147 692 86 q 842 322 789 207 l 892 322 l 808 0 l -29 0 m 593 315 q 578 444 593 400 q 534 505 564 489 q 457 521 504 521 l 336 521 l 336 561 l 479 561 q 566 578 529 561 q 632 635 603 594 q 682 743 661 675 l 725 743 l 638 315 l 593 315 m 886 764 q 867 914 886 861 q 797 988 847 967 q 657 1008 747 1008 l 171 1008 l 171 1047 l 983 1047 l 936 764 l 886 764 m 644 1172 q 502 1219 550 1172 q 476 1360 454 1267 l 528 1360 q 540 1308 522 1326 q 591 1283 558 1289 q 661 1276 624 1276 q 742 1283 704 1276 q 807 1309 781 1290 q 842 1360 833 1328 l 893 1360 q 806 1222 875 1271 q 644 1172 738 1172 z "},"Ě":{"ha":946,"x_min":-29,"x_max":983,"o":"m 100 0 l 328 1047 l 522 1047 l 289 0 l 100 0 m -29 0 l -29 39 l 526 39 q 640 63 589 39 q 740 147 692 86 q 842 322 789 207 l 892 322 l 808 0 l -29 0 m 593 315 q 578 444 593 400 q 534 505 564 489 q 457 521 504 521 l 336 521 l 336 561 l 479 561 q 566 578 529 561 q 632 635 603 594 q 682 743 661 675 l 725 743 l 638 315 l 593 315 m 886 764 q 867 914 886 861 q 797 988 847 967 q 657 1008 747 1008 l 171 1008 l 171 1047 l 983 1047 l 936 764 l 886 764 m 604 1172 l 443 1358 l 507 1358 l 669 1289 l 861 1358 l 924 1358 l 685 1172 l 604 1172 z "},"Ê":{"ha":946,"x_min":-29,"x_max":983,"o":"m 100 0 l 328 1047 l 522 1047 l 289 0 l 100 0 m -29 0 l -29 39 l 526 39 q 640 63 589 39 q 740 147 692 86 q 842 322 789 207 l 892 322 l 808 0 l -29 0 m 593 315 q 578 444 593 400 q 534 505 564 489 q 457 521 504 521 l 336 521 l 336 561 l 479 561 q 566 578 529 561 q 632 635 603 594 q 682 743 661 675 l 725 743 l 638 315 l 593 315 m 886 764 q 867 914 886 861 q 797 988 847 967 q 657 1008 747 1008 l 171 1008 l 171 1047 l 983 1047 l 936 764 l 886 764 m 413 1172 l 651 1358 l 732 1358 l 893 1172 l 829 1172 l 667 1242 l 475 1172 l 413 1172 z "},"Ế":{"ha":946,"x_min":-29,"x_max":983,"o":"m 100 0 l 328 1047 l 522 1047 l 289 0 l 100 0 m -29 0 l -29 39 l 526 39 q 640 63 589 39 q 740 147 692 86 q 842 322 789 207 l 892 322 l 808 0 l -29 0 m 593 315 q 578 444 593 400 q 534 505 564 489 q 457 521 504 521 l 336 521 l 336 561 l 479 561 q 566 578 529 561 q 632 635 603 594 q 682 743 661 675 l 725 743 l 638 315 l 593 315 m 886 764 q 867 914 886 861 q 797 988 847 967 q 657 1008 747 1008 l 171 1008 l 171 1047 l 983 1047 l 936 764 l 886 764 m 419 1151 l 625 1301 l 706 1301 l 863 1151 l 799 1151 l 656 1213 l 482 1151 l 419 1151 m 465 1349 l 708 1497 q 776 1533 750 1522 q 828 1543 801 1543 q 880 1525 861 1543 q 899 1481 899 1507 q 879 1433 899 1456 q 818 1403 860 1411 l 554 1349 l 465 1349 z "},"Ệ":{"ha":946,"x_min":-29,"x_max":983,"o":"m 100 0 l 328 1047 l 522 1047 l 289 0 l 100 0 m -29 0 l -29 39 l 526 39 q 640 63 589 39 q 740 147 692 86 q 842 322 789 207 l 892 322 l 808 0 l -29 0 m 593 315 q 578 444 593 400 q 534 505 564 489 q 457 521 504 521 l 336 521 l 336 561 l 479 561 q 566 578 529 561 q 632 635 603 594 q 682 743 661 675 l 725 743 l 638 315 l 593 315 m 886 764 q 867 914 886 861 q 797 988 847 967 q 657 1008 747 1008 l 171 1008 l 171 1047 l 983 1047 l 936 764 l 886 764 m 379 -310 q 306 -278 338 -310 q 275 -204 275 -247 q 306 -130 275 -161 q 379 -99 338 -99 q 455 -130 424 -99 q 486 -204 486 -161 q 455 -278 486 -247 q 379 -310 424 -310 m 403 1176 l 642 1363 l 722 1363 l 883 1176 l 819 1176 l 657 1246 l 465 1176 l 403 1176 z "},"Ề":{"ha":946,"x_min":-29,"x_max":983,"o":"m 100 0 l 328 1047 l 522 1047 l 289 0 l 100 0 m -29 0 l -29 39 l 526 39 q 640 63 589 39 q 740 147 692 86 q 842 322 789 207 l 892 322 l 808 0 l -29 0 m 593 315 q 578 444 593 400 q 534 505 564 489 q 457 521 504 521 l 336 521 l 336 561 l 479 561 q 566 578 529 561 q 632 635 603 594 q 682 743 661 675 l 725 743 l 638 315 l 593 315 m 886 764 q 867 914 886 861 q 797 988 847 967 q 657 1008 747 1008 l 171 1008 l 171 1047 l 983 1047 l 936 764 l 886 764 m 425 1151 l 631 1301 l 711 1301 l 868 1151 l 804 1151 l 661 1213 l 488 1151 l 425 1151 m 832 1349 l 572 1404 q 521 1431 538 1411 q 504 1474 504 1451 q 525 1522 504 1501 q 583 1543 546 1543 q 631 1533 608 1543 q 693 1497 654 1522 l 921 1349 l 832 1349 z "},"Ể":{"ha":946,"x_min":-29,"x_max":997,"o":"m 100 0 l 328 1047 l 522 1047 l 289 0 l 100 0 m -29 0 l -29 39 l 526 39 q 640 63 589 39 q 740 147 692 86 q 842 322 789 207 l 892 322 l 808 0 l -29 0 m 593 315 q 578 444 593 400 q 534 505 564 489 q 457 521 504 521 l 336 521 l 336 561 l 479 561 q 566 578 529 561 q 632 635 603 594 q 682 743 661 675 l 725 743 l 638 315 l 593 315 m 886 764 q 867 914 886 861 q 797 988 847 967 q 657 1008 747 1008 l 171 1008 l 171 1047 l 983 1047 l 936 764 l 886 764 m 419 1151 l 625 1301 l 706 1301 l 863 1151 l 799 1151 l 656 1213 l 482 1151 l 419 1151 m 811 1279 q 840 1341 819 1319 q 879 1376 860 1363 q 901 1407 899 1390 q 894 1458 908 1443 q 853 1472 881 1472 q 808 1460 826 1472 q 786 1432 789 1447 q 790 1414 785 1418 q 799 1404 794 1410 q 801 1382 804 1399 q 782 1356 800 1364 q 744 1347 764 1347 q 706 1365 719 1347 q 699 1408 693 1382 q 759 1503 711 1475 q 864 1531 807 1531 q 967 1500 936 1531 q 985 1400 999 1469 q 962 1357 979 1372 q 923 1333 944 1342 q 884 1313 901 1324 q 860 1279 867 1301 l 811 1279 z "},"Ễ":{"ha":946,"x_min":-29,"x_max":983,"o":"m 100 0 l 328 1047 l 522 1047 l 289 0 l 100 0 m -29 0 l -29 39 l 526 39 q 640 63 589 39 q 740 147 692 86 q 842 322 789 207 l 892 322 l 808 0 l -29 0 m 593 315 q 578 444 593 400 q 534 505 564 489 q 457 521 504 521 l 336 521 l 336 561 l 479 561 q 566 578 529 561 q 632 635 603 594 q 682 743 661 675 l 725 743 l 638 315 l 593 315 m 886 764 q 867 914 886 861 q 797 988 847 967 q 657 1008 747 1008 l 171 1008 l 171 1047 l 983 1047 l 936 764 l 886 764 m 417 1151 l 622 1301 l 703 1301 l 860 1151 l 796 1151 l 653 1213 l 479 1151 l 417 1151 m 447 1333 q 488 1423 461 1382 q 553 1489 515 1464 q 640 1514 592 1514 q 710 1498 683 1514 q 761 1467 736 1482 q 819 1451 786 1451 q 890 1474 861 1451 q 929 1517 918 1496 l 978 1517 q 901 1383 950 1431 q 782 1335 851 1335 q 712 1350 739 1335 q 660 1381 685 1365 q 600 1397 636 1397 q 535 1378 564 1397 q 493 1333 506 1360 l 447 1333 z "},"Ȅ":{"ha":946,"x_min":-29,"x_max":983,"o":"m 100 0 l 328 1047 l 522 1047 l 289 0 l 100 0 m -29 0 l -29 39 l 526 39 q 640 63 589 39 q 740 147 692 86 q 842 322 789 207 l 892 322 l 808 0 l -29 0 m 593 315 q 578 444 593 400 q 534 505 564 489 q 457 521 504 521 l 336 521 l 336 561 l 479 561 q 566 578 529 561 q 632 635 603 594 q 682 743 661 675 l 725 743 l 638 315 l 593 315 m 886 764 q 867 914 886 861 q 797 988 847 967 q 657 1008 747 1008 l 171 1008 l 171 1047 l 983 1047 l 936 764 l 886 764 m 868 1172 l 651 1225 q 603 1251 619 1233 q 588 1290 588 1269 q 607 1337 588 1317 q 661 1357 626 1357 q 708 1349 686 1357 q 765 1314 731 1340 l 951 1172 l 868 1172 m 560 1172 l 343 1225 q 295 1251 311 1233 q 279 1290 279 1269 q 299 1337 279 1317 q 353 1357 318 1357 q 400 1349 378 1357 q 457 1314 422 1340 l 643 1172 l 560 1172 z "},"Ë":{"ha":946,"x_min":-29,"x_max":983,"o":"m 100 0 l 328 1047 l 522 1047 l 289 0 l 100 0 m -29 0 l -29 39 l 526 39 q 640 63 589 39 q 740 147 692 86 q 842 322 789 207 l 892 322 l 808 0 l -29 0 m 593 315 q 578 444 593 400 q 534 505 564 489 q 457 521 504 521 l 336 521 l 336 561 l 479 561 q 566 578 529 561 q 632 635 603 594 q 682 743 661 675 l 725 743 l 638 315 l 593 315 m 886 764 q 867 914 886 861 q 797 988 847 967 q 657 1008 747 1008 l 171 1008 l 171 1047 l 983 1047 l 936 764 l 886 764 m 808 1190 q 741 1218 769 1190 q 713 1286 713 1246 q 741 1353 713 1325 q 808 1381 769 1381 q 878 1353 850 1381 q 906 1286 906 1326 q 878 1218 906 1246 q 808 1190 850 1190 m 514 1190 q 446 1218 474 1190 q 418 1286 418 1246 q 445 1353 418 1325 q 514 1381 472 1381 q 582 1353 553 1381 q 611 1286 611 1326 q 582 1218 611 1246 q 514 1190 553 1190 z "},"Ė":{"ha":946,"x_min":-29,"x_max":983,"o":"m 100 0 l 328 1047 l 522 1047 l 289 0 l 100 0 m -29 0 l -29 39 l 526 39 q 640 63 589 39 q 740 147 692 86 q 842 322 789 207 l 892 322 l 808 0 l -29 0 m 593 315 q 578 444 593 400 q 534 505 564 489 q 457 521 504 521 l 336 521 l 336 561 l 479 561 q 566 578 529 561 q 632 635 603 594 q 682 743 661 675 l 725 743 l 638 315 l 593 315 m 886 764 q 867 914 886 861 q 797 988 847 967 q 657 1008 747 1008 l 171 1008 l 171 1047 l 983 1047 l 936 764 l 886 764 m 639 1154 q 565 1185 596 1154 q 533 1258 533 1217 q 565 1334 533 1303 q 639 1365 596 1365 q 715 1334 683 1365 q 746 1258 746 1303 q 715 1185 746 1217 q 639 1154 683 1154 z "},"Ẹ":{"ha":946,"x_min":-29,"x_max":983,"o":"m 100 0 l 328 1047 l 522 1047 l 289 0 l 100 0 m -29 0 l -29 39 l 526 39 q 640 63 589 39 q 740 147 692 86 q 842 322 789 207 l 892 322 l 808 0 l -29 0 m 593 315 q 578 444 593 400 q 534 505 564 489 q 457 521 504 521 l 336 521 l 336 561 l 479 561 q 566 578 529 561 q 632 635 603 594 q 682 743 661 675 l 725 743 l 638 315 l 593 315 m 886 764 q 867 914 886 861 q 797 988 847 967 q 657 1008 747 1008 l 171 1008 l 171 1047 l 983 1047 l 936 764 l 886 764 m 393 -310 q 320 -278 351 -310 q 289 -204 289 -247 q 320 -130 289 -161 q 393 -99 351 -99 q 469 -130 438 -99 q 500 -204 500 -161 q 469 -278 500 -247 q 393 -310 438 -310 z "},"È":{"ha":946,"x_min":-29,"x_max":983,"o":"m 100 0 l 328 1047 l 522 1047 l 289 0 l 100 0 m -29 0 l -29 39 l 526 39 q 640 63 589 39 q 740 147 692 86 q 842 322 789 207 l 892 322 l 808 0 l -29 0 m 593 315 q 578 444 593 400 q 534 505 564 489 q 457 521 504 521 l 336 521 l 336 561 l 479 561 q 566 578 529 561 q 632 635 603 594 q 682 743 661 675 l 725 743 l 638 315 l 593 315 m 886 764 q 867 914 886 861 q 797 988 847 967 q 657 1008 747 1008 l 171 1008 l 171 1047 l 983 1047 l 936 764 l 886 764 m 771 1172 l 510 1228 q 459 1255 475 1235 q 443 1297 443 1275 q 464 1346 443 1325 q 521 1367 485 1367 q 570 1356 547 1367 q 632 1321 593 1346 l 858 1172 l 771 1172 z "},"Ẻ":{"ha":946,"x_min":-29,"x_max":983,"o":"m 100 0 l 328 1047 l 522 1047 l 289 0 l 100 0 m -29 0 l -29 39 l 526 39 q 640 63 589 39 q 740 147 692 86 q 842 322 789 207 l 892 322 l 808 0 l -29 0 m 593 315 q 578 444 593 400 q 534 505 564 489 q 457 521 504 521 l 336 521 l 336 561 l 479 561 q 566 578 529 561 q 632 635 603 594 q 682 743 661 675 l 725 743 l 638 315 l 593 315 m 886 764 q 867 914 886 861 q 797 988 847 967 q 657 1008 747 1008 l 171 1008 l 171 1047 l 983 1047 l 936 764 l 886 764 m 644 1143 q 665 1192 651 1174 q 695 1226 679 1211 q 722 1252 711 1240 q 735 1281 733 1264 q 726 1323 738 1310 q 686 1336 714 1336 q 641 1324 660 1336 q 619 1296 622 1311 q 623 1278 618 1282 q 633 1268 628 1274 q 635 1246 638 1263 q 615 1219 633 1228 q 578 1211 597 1211 q 542 1227 553 1211 q 532 1267 531 1243 q 560 1342 535 1314 q 622 1382 585 1369 q 697 1394 660 1394 q 792 1367 764 1394 q 818 1288 821 1339 q 800 1239 817 1257 q 761 1207 783 1221 q 719 1179 739 1193 q 693 1143 700 1165 l 644 1143 z "},"Ȇ":{"ha":946,"x_min":-29,"x_max":983,"o":"m 100 0 l 328 1047 l 522 1047 l 289 0 l 100 0 m -29 0 l -29 39 l 526 39 q 640 63 589 39 q 740 147 692 86 q 842 322 789 207 l 892 322 l 808 0 l -29 0 m 593 315 q 578 444 593 400 q 534 505 564 489 q 457 521 504 521 l 336 521 l 336 561 l 479 561 q 566 578 529 561 q 632 635 603 594 q 682 743 661 675 l 725 743 l 638 315 l 593 315 m 886 764 q 867 914 886 861 q 797 988 847 967 q 657 1008 747 1008 l 171 1008 l 171 1047 l 983 1047 l 936 764 l 886 764 m 433 1172 q 517 1315 451 1261 q 681 1368 582 1368 q 811 1332 764 1368 q 858 1226 858 1296 q 851 1172 858 1203 l 799 1172 q 768 1244 807 1222 q 665 1265 729 1265 q 546 1243 594 1265 q 486 1172 497 1221 l 433 1172 z "},"Ē":{"ha":946,"x_min":-29,"x_max":983,"o":"m 100 0 l 328 1047 l 522 1047 l 289 0 l 100 0 m -29 0 l -29 39 l 526 39 q 640 63 589 39 q 740 147 692 86 q 842 322 789 207 l 892 322 l 808 0 l -29 0 m 593 315 q 578 444 593 400 q 534 505 564 489 q 457 521 504 521 l 336 521 l 336 561 l 479 561 q 566 578 529 561 q 632 635 603 594 q 682 743 661 675 l 725 743 l 638 315 l 593 315 m 886 764 q 867 914 886 861 q 797 988 847 967 q 657 1008 747 1008 l 171 1008 l 171 1047 l 983 1047 l 936 764 l 886 764 m 439 1203 l 464 1314 l 926 1314 l 901 1203 l 439 1203 z "},"Ę":{"ha":946,"x_min":-29,"x_max":983,"o":"m 100 0 l 328 1047 l 522 1047 l 289 0 l 100 0 m -29 0 l -29 39 l 526 39 q 640 63 589 39 q 740 147 692 86 q 842 322 789 207 l 892 322 l 808 0 l -29 0 m 593 315 q 578 444 593 400 q 534 505 564 489 q 457 521 504 521 l 336 521 l 336 561 l 479 561 q 566 578 529 561 q 632 635 603 594 q 682 743 661 675 l 725 743 l 638 315 l 593 315 m 886 764 q 867 914 886 861 q 797 988 847 967 q 657 1008 747 1008 l 171 1008 l 171 1047 l 983 1047 l 936 764 l 886 764 m 514 -326 q 428 -302 460 -326 q 396 -235 396 -278 q 461 -112 396 -176 q 658 19 526 -49 l 718 17 q 574 -90 628 -33 q 521 -196 521 -147 q 538 -237 521 -222 q 583 -251 554 -251 q 625 -244 601 -251 q 681 -222 649 -237 l 700 -258 q 617 -307 671 -287 q 514 -326 564 -326 z "},"Ẽ":{"ha":946,"x_min":-29,"x_max":983,"o":"m 100 0 l 328 1047 l 522 1047 l 289 0 l 100 0 m -29 0 l -29 39 l 526 39 q 640 63 589 39 q 740 147 692 86 q 842 322 789 207 l 892 322 l 808 0 l -29 0 m 593 315 q 578 444 593 400 q 534 505 564 489 q 457 521 504 521 l 336 521 l 336 561 l 479 561 q 566 578 529 561 q 632 635 603 594 q 682 743 661 675 l 725 743 l 638 315 l 593 315 m 886 764 q 867 914 886 861 q 797 988 847 967 q 657 1008 747 1008 l 171 1008 l 171 1047 l 983 1047 l 936 764 l 886 764 m 413 1171 q 454 1262 428 1221 q 519 1328 481 1303 q 607 1353 558 1353 q 676 1337 650 1353 q 728 1305 703 1321 q 786 1289 753 1289 q 856 1312 828 1289 q 896 1354 885 1335 l 944 1354 q 867 1221 917 1269 q 749 1172 817 1172 q 678 1188 706 1172 q 627 1220 651 1204 q 567 1236 603 1236 q 501 1217 529 1236 q 460 1171 472 1199 l 413 1171 z "},"Ə":{"ha":1031,"x_min":61,"x_max":1028,"o":"m 408 -17 q 235 18 314 -17 q 109 115 157 53 q 61 264 61 178 q 119 434 61 357 q 285 558 176 511 q 546 604 393 604 q 635 601 588 604 q 726 594 683 599 q 801 586 769 590 q 843 579 833 582 l 835 508 q 747 528 794 524 q 624 532 699 532 q 428 490 503 532 q 319 378 353 449 q 286 221 286 307 q 322 79 286 128 q 431 31 358 31 q 561 74 501 31 q 667 191 621 117 q 747 358 714 265 q 796 548 779 450 q 813 738 813 646 q 793 885 813 831 q 732 961 774 939 q 622 983 690 983 q 472 955 544 983 q 333 865 400 926 q 204 704 267 804 l 150 744 q 363 975 238 890 q 635 1060 488 1060 q 804 1025 731 1060 q 928 930 878 990 q 1003 793 978 869 q 1028 633 1028 717 q 996 442 1028 536 q 906 265 964 349 q 769 119 847 182 q 600 20 692 57 q 408 -17 508 -17 z "},"F":{"ha":904,"x_min":-18,"x_max":990,"o":"m 107 0 l 335 1047 l 529 1047 l 296 0 l 107 0 m -18 0 l -18 40 l 472 40 l 472 0 l -18 0 m 594 314 q 580 444 594 400 q 535 504 565 488 q 458 521 506 521 l 338 521 l 338 560 l 481 560 q 567 577 531 560 q 633 634 604 594 q 682 740 661 674 l 726 740 l 640 314 l 594 314 m 892 753 q 872 910 892 856 q 803 987 853 965 q 664 1008 754 1008 l 178 1008 l 178 1047 l 990 1047 l 942 753 l 892 753 z "},"G":{"ha":1053,"x_min":106,"x_max":1076,"o":"m 511 -18 q 357 7 424 -18 q 242 75 290 32 q 165 174 194 118 q 120 290 135 229 q 106 411 106 351 q 138 599 106 506 q 227 776 169 693 q 361 924 285 860 q 525 1026 438 989 q 707 1063 613 1063 q 815 1044 767 1063 q 911 979 864 1025 l 975 1047 l 1019 1047 l 954 733 l 914 733 q 885 885 914 821 q 808 983 857 949 q 699 1018 760 1018 q 585 983 636 1018 q 494 887 535 947 q 422 751 453 826 q 372 593 392 675 q 342 432 351 511 q 332 286 332 353 q 352 135 332 192 q 411 55 372 79 q 504 31 450 31 q 605 57 560 31 q 683 151 650 83 q 736 343 717 219 l 971 343 q 874 142 935 222 q 724 22 814 61 q 511 -18 635 -18 m 596 336 l 596 376 l 1076 376 l 1076 336 l 596 336 z "},"Ǵ":{"ha":1053,"x_min":106,"x_max":1076,"o":"m 511 -18 q 357 7 424 -18 q 242 75 290 32 q 165 174 194 118 q 120 290 135 229 q 106 411 106 351 q 138 599 106 506 q 227 776 169 693 q 361 924 285 860 q 525 1026 438 989 q 707 1063 613 1063 q 815 1044 767 1063 q 911 979 864 1025 l 975 1047 l 1019 1047 l 954 733 l 914 733 q 885 885 914 821 q 808 983 857 949 q 699 1018 760 1018 q 585 983 636 1018 q 494 887 535 947 q 422 751 453 826 q 372 593 392 675 q 342 432 351 511 q 332 286 332 353 q 352 135 332 192 q 411 55 372 79 q 504 31 450 31 q 605 57 560 31 q 683 151 650 83 q 736 343 717 219 l 971 343 q 874 142 935 222 q 724 22 814 61 q 511 -18 635 -18 m 596 336 l 596 376 l 1076 376 l 1076 336 l 596 336 m 522 1172 l 765 1322 q 833 1358 807 1347 q 885 1368 858 1368 q 937 1349 918 1368 q 956 1304 956 1331 q 936 1257 956 1279 q 875 1226 917 1235 l 611 1172 l 522 1172 z "},"Ğ":{"ha":1053,"x_min":106,"x_max":1076,"o":"m 511 -18 q 357 7 424 -18 q 242 75 290 32 q 165 174 194 118 q 120 290 135 229 q 106 411 106 351 q 138 599 106 506 q 227 776 169 693 q 361 924 285 860 q 525 1026 438 989 q 707 1063 613 1063 q 815 1044 767 1063 q 911 979 864 1025 l 975 1047 l 1019 1047 l 954 733 l 914 733 q 885 885 914 821 q 808 983 857 949 q 699 1018 760 1018 q 585 983 636 1018 q 494 887 535 947 q 422 751 453 826 q 372 593 392 675 q 342 432 351 511 q 332 286 332 353 q 352 135 332 192 q 411 55 372 79 q 504 31 450 31 q 605 57 560 31 q 683 151 650 83 q 736 343 717 219 l 971 343 q 874 142 935 222 q 724 22 814 61 q 511 -18 635 -18 m 596 336 l 596 376 l 1076 376 l 1076 336 l 596 336 m 714 1172 q 572 1219 619 1172 q 546 1360 524 1267 l 597 1360 q 610 1308 592 1326 q 660 1283 628 1289 q 731 1276 693 1276 q 812 1283 774 1276 q 876 1309 850 1290 q 911 1360 903 1328 l 963 1360 q 876 1222 944 1271 q 714 1172 807 1172 z "},"Ĝ":{"ha":1053,"x_min":106,"x_max":1076,"o":"m 511 -18 q 357 7 424 -18 q 242 75 290 32 q 165 174 194 118 q 120 290 135 229 q 106 411 106 351 q 138 599 106 506 q 227 776 169 693 q 361 924 285 860 q 525 1026 438 989 q 707 1063 613 1063 q 815 1044 767 1063 q 911 979 864 1025 l 975 1047 l 1019 1047 l 954 733 l 914 733 q 885 885 914 821 q 808 983 857 949 q 699 1018 760 1018 q 585 983 636 1018 q 494 887 535 947 q 422 751 453 826 q 372 593 392 675 q 342 432 351 511 q 332 286 332 353 q 352 135 332 192 q 411 55 372 79 q 504 31 450 31 q 605 57 560 31 q 683 151 650 83 q 736 343 717 219 l 971 343 q 874 142 935 222 q 724 22 814 61 q 511 -18 635 -18 m 596 336 l 596 376 l 1076 376 l 1076 336 l 596 336 m 482 1172 l 721 1358 l 801 1358 l 963 1172 l 899 1172 l 736 1242 l 544 1172 l 482 1172 z "},"Ģ":{"ha":1053,"x_min":106,"x_max":1076,"o":"m 511 -18 q 357 7 424 -18 q 242 75 290 32 q 165 174 194 118 q 120 290 135 229 q 106 411 106 351 q 138 599 106 506 q 227 776 169 693 q 361 924 285 860 q 525 1026 438 989 q 707 1063 613 1063 q 815 1044 767 1063 q 911 979 864 1025 l 975 1047 l 1019 1047 l 954 733 l 914 733 q 885 885 914 821 q 808 983 857 949 q 699 1018 760 1018 q 585 983 636 1018 q 494 887 535 947 q 422 751 453 826 q 372 593 392 675 q 342 432 351 511 q 332 286 332 353 q 352 135 332 192 q 411 55 372 79 q 504 31 450 31 q 605 57 560 31 q 683 151 650 83 q 736 343 717 219 l 971 343 q 874 142 935 222 q 724 22 814 61 q 511 -18 635 -18 m 596 336 l 596 376 l 1076 376 l 1076 336 l 596 336 m 319 -435 l 300 -397 q 437 -330 389 -365 q 485 -260 485 -294 q 478 -239 485 -246 q 467 -232 472 -232 q 452 -244 460 -232 q 431 -267 444 -256 q 390 -279 417 -279 q 336 -255 354 -279 q 318 -200 318 -231 q 351 -128 318 -154 q 429 -101 385 -101 q 494 -121 469 -101 q 531 -170 519 -140 q 543 -231 543 -200 q 486 -348 543 -297 q 319 -435 429 -399 z "},"Ġ":{"ha":1053,"x_min":106,"x_max":1076,"o":"m 511 -18 q 357 7 424 -18 q 242 75 290 32 q 165 174 194 118 q 120 290 135 229 q 106 411 106 351 q 138 599 106 506 q 227 776 169 693 q 361 924 285 860 q 525 1026 438 989 q 707 1063 613 1063 q 815 1044 767 1063 q 911 979 864 1025 l 975 1047 l 1019 1047 l 954 733 l 914 733 q 885 885 914 821 q 808 983 857 949 q 699 1018 760 1018 q 585 983 636 1018 q 494 887 535 947 q 422 751 453 826 q 372 593 392 675 q 342 432 351 511 q 332 286 332 353 q 352 135 332 192 q 411 55 372 79 q 504 31 450 31 q 605 57 560 31 q 683 151 650 83 q 736 343 717 219 l 971 343 q 874 142 935 222 q 724 22 814 61 q 511 -18 635 -18 m 596 336 l 596 376 l 1076 376 l 1076 336 l 596 336 m 708 1154 q 634 1185 665 1154 q 603 1258 603 1217 q 634 1334 603 1303 q 708 1365 665 1365 q 784 1334 753 1365 q 815 1258 815 1303 q 784 1185 815 1217 q 708 1154 753 1154 z "},"H":{"ha":1111,"x_min":-12,"x_max":1226,"o":"m 685 0 l 913 1047 l 1106 1047 l 872 0 l 685 0 m -12 0 l -12 40 l 444 40 l 444 0 l -12 0 m 567 0 l 567 40 l 1026 40 l 1026 0 l 567 0 m 103 0 l 331 1047 l 525 1047 l 292 0 l 103 0 m 338 513 l 338 553 l 856 553 l 856 513 l 338 513 m 199 1008 l 199 1047 l 646 1047 l 646 1008 l 199 1008 m 775 1008 l 775 1047 l 1226 1047 l 1226 1008 l 775 1008 z "},"Ħ":{"ha":1111,"x_min":-12,"x_max":1226,"o":"m 133 751 l 133 803 l 1201 803 l 1201 751 l 133 751 m 685 0 l 913 1047 l 1106 1047 l 872 0 l 685 0 m -12 0 l -12 40 l 444 40 l 444 0 l -12 0 m 567 0 l 567 40 l 1026 40 l 1026 0 l 567 0 m 103 0 l 331 1047 l 525 1047 l 292 0 l 103 0 m 338 513 l 338 553 l 856 553 l 856 513 l 338 513 m 199 1008 l 199 1047 l 646 1047 l 646 1008 l 199 1008 m 775 1008 l 775 1047 l 1226 1047 l 1226 1008 l 775 1008 z "},"Ĥ":{"ha":1111,"x_min":-12,"x_max":1226,"o":"m 685 0 l 913 1047 l 1106 1047 l 872 0 l 685 0 m -12 0 l -12 40 l 444 40 l 444 0 l -12 0 m 567 0 l 567 40 l 1026 40 l 1026 0 l 567 0 m 103 0 l 331 1047 l 525 1047 l 292 0 l 103 0 m 338 513 l 338 553 l 856 553 l 856 513 l 338 513 m 199 1008 l 199 1047 l 646 1047 l 646 1008 l 199 1008 m 775 1008 l 775 1047 l 1226 1047 l 1226 1008 l 775 1008 m 511 1172 l 750 1358 l 831 1358 l 992 1172 l 928 1172 l 765 1242 l 574 1172 l 511 1172 z "},"Ḥ":{"ha":1111,"x_min":-12,"x_max":1226,"o":"m 685 0 l 913 1047 l 1106 1047 l 872 0 l 685 0 m -12 0 l -12 40 l 444 40 l 444 0 l -12 0 m 567 0 l 567 40 l 1026 40 l 1026 0 l 567 0 m 103 0 l 331 1047 l 525 1047 l 292 0 l 103 0 m 338 513 l 338 553 l 856 553 l 856 513 l 338 513 m 199 1008 l 199 1047 l 646 1047 l 646 1008 l 199 1008 m 775 1008 l 775 1047 l 1226 1047 l 1226 1008 l 775 1008 m 436 -310 q 363 -278 394 -310 q 332 -204 332 -247 q 363 -130 332 -161 q 436 -99 394 -99 q 512 -130 481 -99 q 543 -204 543 -161 q 512 -278 543 -247 q 436 -310 481 -310 z "},"I":{"ha":528,"x_min":-10,"x_max":615,"o":"m 93 0 l 321 1047 l 514 1047 l 281 0 l 93 0 m -10 0 l -10 40 l 419 40 l 419 0 l -10 0 m 200 1008 l 200 1047 l 615 1047 l 615 1008 l 200 1008 z "},"Ĳ":{"ha":1106,"x_min":-10,"x_max":1200,"o":"m 93 0 l 321 1047 l 514 1047 l 281 0 l 93 0 m -10 0 l -10 40 l 419 40 l 419 0 l -10 0 m 200 1008 l 200 1047 l 615 1047 l 615 1008 l 200 1008 m 579 -157 q 478 -135 519 -157 q 414 -80 436 -114 q 392 -7 392 -46 q 419 72 392 38 q 492 106 446 106 q 556 81 529 106 q 582 14 582 56 q 573 -28 582 -11 q 555 -58 564 -46 q 546 -83 546 -71 q 586 -110 546 -110 q 613 -104 600 -110 q 638 -81 625 -99 q 664 -29 651 -64 q 689 64 676 6 l 904 1047 l 1099 1047 l 919 201 q 838 -8 892 71 q 717 -122 785 -86 q 579 -157 650 -157 m 761 1008 l 761 1047 l 1200 1047 l 1200 1008 l 761 1008 z "},"Í":{"ha":528,"x_min":-10,"x_max":693,"o":"m 93 0 l 321 1047 l 514 1047 l 281 0 l 93 0 m -10 0 l -10 40 l 419 40 l 419 0 l -10 0 m 200 1008 l 200 1047 l 615 1047 l 615 1008 l 200 1008 m 260 1172 l 503 1322 q 570 1358 544 1347 q 622 1368 596 1368 q 674 1349 656 1368 q 693 1304 693 1331 q 674 1257 693 1279 q 613 1226 654 1235 l 349 1172 l 260 1172 z "},"Ĭ":{"ha":528,"x_min":-10,"x_max":700,"o":"m 93 0 l 321 1047 l 514 1047 l 281 0 l 93 0 m -10 0 l -10 40 l 419 40 l 419 0 l -10 0 m 200 1008 l 200 1047 l 615 1047 l 615 1008 l 200 1008 m 451 1172 q 309 1219 357 1172 q 283 1360 261 1267 l 335 1360 q 347 1308 329 1326 q 398 1283 365 1289 q 468 1276 431 1276 q 549 1283 511 1276 q 614 1309 588 1290 q 649 1360 640 1328 l 700 1360 q 613 1222 682 1271 q 451 1172 544 1172 z "},"Î":{"ha":528,"x_min":-10,"x_max":699,"o":"m 93 0 l 321 1047 l 514 1047 l 281 0 l 93 0 m -10 0 l -10 40 l 419 40 l 419 0 l -10 0 m 200 1008 l 200 1047 l 615 1047 l 615 1008 l 200 1008 m 219 1172 l 458 1358 l 539 1358 l 700 1172 l 636 1172 l 474 1242 l 282 1172 l 219 1172 z "},"Ȉ":{"ha":528,"x_min":-10,"x_max":758,"o":"m 93 0 l 321 1047 l 514 1047 l 281 0 l 93 0 m -10 0 l -10 40 l 419 40 l 419 0 l -10 0 m 200 1008 l 200 1047 l 615 1047 l 615 1008 l 200 1008 m 675 1172 l 458 1225 q 410 1251 426 1233 q 394 1290 394 1269 q 414 1337 394 1317 q 468 1357 433 1357 q 515 1349 493 1357 q 572 1314 538 1340 l 758 1172 l 675 1172 m 367 1172 l 150 1225 q 102 1251 118 1233 q 86 1290 86 1269 q 106 1337 86 1317 q 160 1357 125 1357 q 207 1349 185 1357 q 264 1314 229 1340 l 450 1172 l 367 1172 z "},"Ï":{"ha":528,"x_min":-10,"x_max":713,"o":"m 93 0 l 321 1047 l 514 1047 l 281 0 l 93 0 m -10 0 l -10 40 l 419 40 l 419 0 l -10 0 m 200 1008 l 200 1047 l 615 1047 l 615 1008 l 200 1008 m 615 1190 q 548 1218 576 1190 q 519 1286 519 1246 q 548 1353 519 1325 q 615 1381 576 1381 q 685 1353 657 1381 q 713 1286 713 1326 q 685 1218 713 1246 q 615 1190 657 1190 m 321 1190 q 253 1218 281 1190 q 225 1286 225 1246 q 252 1353 225 1325 q 321 1381 279 1381 q 389 1353 360 1381 q 418 1286 418 1326 q 389 1218 418 1246 q 321 1190 360 1190 z "},"İ":{"ha":528,"x_min":-10,"x_max":615,"o":"m 93 0 l 321 1047 l 514 1047 l 281 0 l 93 0 m -10 0 l -10 40 l 419 40 l 419 0 l -10 0 m 200 1008 l 200 1047 l 615 1047 l 615 1008 l 200 1008 m 446 1154 q 372 1185 403 1154 q 340 1258 340 1217 q 372 1334 340 1303 q 446 1365 403 1365 q 522 1334 490 1365 q 553 1258 553 1303 q 522 1185 553 1217 q 446 1154 490 1154 z "},"Ị":{"ha":528,"x_min":-10,"x_max":615,"o":"m 93 0 l 321 1047 l 514 1047 l 281 0 l 93 0 m -10 0 l -10 40 l 419 40 l 419 0 l -10 0 m 200 1008 l 200 1047 l 615 1047 l 615 1008 l 200 1008 m 143 -310 q 70 -278 101 -310 q 39 -204 39 -247 q 70 -130 39 -161 q 143 -99 101 -99 q 219 -130 188 -99 q 250 -204 250 -161 q 219 -278 250 -247 q 143 -310 188 -310 z "},"Ì":{"ha":528,"x_min":-10,"x_max":667,"o":"m 93 0 l 321 1047 l 514 1047 l 281 0 l 93 0 m -10 0 l -10 40 l 419 40 l 419 0 l -10 0 m 200 1008 l 200 1047 l 615 1047 l 615 1008 l 200 1008 m 578 1172 l 317 1228 q 266 1255 282 1235 q 250 1297 250 1275 q 271 1346 250 1325 q 328 1367 292 1367 q 377 1356 354 1367 q 439 1321 400 1346 l 665 1172 l 578 1172 z "},"Ỉ":{"ha":528,"x_min":-10,"x_max":628,"o":"m 93 0 l 321 1047 l 514 1047 l 281 0 l 93 0 m -10 0 l -10 40 l 419 40 l 419 0 l -10 0 m 200 1008 l 200 1047 l 615 1047 l 615 1008 l 200 1008 m 451 1143 q 472 1192 458 1174 q 502 1226 486 1211 q 529 1252 518 1240 q 542 1281 540 1264 q 533 1323 544 1310 q 493 1336 521 1336 q 448 1324 467 1336 q 426 1296 429 1311 q 430 1278 425 1282 q 440 1268 435 1274 q 442 1246 444 1263 q 422 1219 440 1228 q 385 1211 404 1211 q 349 1227 360 1211 q 339 1267 338 1243 q 367 1342 342 1314 q 429 1382 392 1369 q 504 1394 467 1394 q 599 1367 571 1394 q 625 1288 628 1339 q 607 1239 624 1257 q 568 1207 590 1221 q 526 1179 546 1193 q 500 1143 507 1165 l 451 1143 z "},"Ȋ":{"ha":528,"x_min":-10,"x_max":665,"o":"m 93 0 l 321 1047 l 514 1047 l 281 0 l 93 0 m -10 0 l -10 40 l 419 40 l 419 0 l -10 0 m 200 1008 l 200 1047 l 615 1047 l 615 1008 l 200 1008 m 240 1172 q 324 1315 258 1261 q 488 1368 389 1368 q 618 1332 571 1368 q 665 1226 665 1296 q 658 1172 665 1203 l 606 1172 q 575 1244 614 1222 q 472 1265 536 1265 q 353 1243 401 1265 q 293 1172 304 1221 l 240 1172 z "},"Ī":{"ha":528,"x_min":-10,"x_max":733,"o":"m 93 0 l 321 1047 l 514 1047 l 281 0 l 93 0 m -10 0 l -10 40 l 419 40 l 419 0 l -10 0 m 200 1008 l 200 1047 l 615 1047 l 615 1008 l 200 1008 m 246 1203 l 271 1314 l 733 1314 l 708 1203 l 246 1203 z "},"Į":{"ha":528,"x_min":-25,"x_max":615,"o":"m 93 0 l 321 1047 l 514 1047 l 281 0 l 93 0 m -10 0 l -10 40 l 419 40 l 419 0 l -10 0 m 200 1008 l 200 1047 l 615 1047 l 615 1008 l 200 1008 m 93 -326 q 7 -302 39 -326 q -25 -235 -25 -278 q 40 -112 -25 -176 q 238 19 106 -49 l 297 17 q 153 -90 207 -33 q 100 -196 100 -147 q 117 -237 100 -222 q 163 -251 133 -251 q 204 -244 181 -251 q 260 -222 228 -237 l 279 -258 q 197 -307 250 -287 q 93 -326 143 -326 z "},"Ĩ":{"ha":528,"x_min":-10,"x_max":751,"o":"m 93 0 l 321 1047 l 514 1047 l 281 0 l 93 0 m -10 0 l -10 40 l 419 40 l 419 0 l -10 0 m 200 1008 l 200 1047 l 615 1047 l 615 1008 l 200 1008 m 219 1171 q 261 1262 235 1221 q 326 1328 288 1303 q 414 1353 365 1353 q 483 1337 457 1353 q 535 1305 510 1321 q 593 1289 560 1289 q 663 1312 635 1289 q 703 1354 692 1335 l 751 1354 q 674 1221 724 1269 q 556 1172 624 1172 q 485 1188 513 1172 q 434 1220 458 1204 q 374 1236 410 1236 q 308 1217 336 1236 q 267 1171 279 1199 l 219 1171 z "},"J":{"ha":578,"x_min":-136,"x_max":672,"o":"m 51 -157 q -50 -135 -8 -157 q -114 -80 -92 -114 q -136 -7 -136 -46 q -109 72 -136 38 q -36 106 -82 106 q 28 81 1 106 q 54 14 54 56 q 45 -28 54 -11 q 27 -58 36 -46 q 18 -83 18 -71 q 58 -110 18 -110 q 85 -104 72 -110 q 110 -81 97 -99 q 136 -29 124 -64 q 161 64 149 6 l 376 1047 l 571 1047 l 392 201 q 310 -8 364 71 q 190 -122 257 -86 q 51 -157 122 -157 m 233 1008 l 233 1047 l 672 1047 l 672 1008 l 233 1008 z "},"Ĵ":{"ha":578,"x_min":-136,"x_max":738,"o":"m 51 -157 q -50 -135 -8 -157 q -114 -80 -92 -114 q -136 -7 -136 -46 q -109 72 -136 38 q -36 106 -82 106 q 28 81 1 106 q 54 14 54 56 q 45 -28 54 -11 q 27 -58 36 -46 q 18 -83 18 -71 q 58 -110 18 -110 q 85 -104 72 -110 q 110 -81 97 -99 q 136 -29 124 -64 q 161 64 149 6 l 376 1047 l 571 1047 l 392 201 q 310 -8 364 71 q 190 -122 257 -86 q 51 -157 122 -157 m 233 1008 l 233 1047 l 672 1047 l 672 1008 l 233 1008 m 258 1172 l 497 1358 l 578 1358 l 739 1172 l 675 1172 l 513 1242 l 321 1172 l 258 1172 z "},"K":{"ha":1019,"x_min":14,"x_max":1142,"o":"m 115 0 l 343 1047 l 538 1047 l 304 0 l 115 0 m 14 0 l 14 40 l 443 40 l 443 0 l 14 0 m 558 0 l 558 39 l 1049 39 l 1049 0 l 558 0 m 711 13 l 453 549 l 618 650 l 936 13 l 711 13 m 218 1008 l 218 1047 l 643 1047 l 643 1008 l 218 1008 m 453 549 l 978 1019 l 1046 1019 l 521 549 l 453 549 m 774 1008 l 774 1047 l 1142 1047 l 1142 1008 l 774 1008 z "},"Ķ":{"ha":1019,"x_min":14,"x_max":1142,"o":"m 115 0 l 343 1047 l 538 1047 l 304 0 l 115 0 m 14 0 l 14 40 l 443 40 l 443 0 l 14 0 m 558 0 l 558 39 l 1049 39 l 1049 0 l 558 0 m 711 13 l 453 549 l 618 650 l 936 13 l 711 13 m 218 1008 l 218 1047 l 643 1047 l 643 1008 l 218 1008 m 453 549 l 978 1019 l 1046 1019 l 521 549 l 453 549 m 774 1008 l 774 1047 l 1142 1047 l 1142 1008 l 774 1008 m 303 -435 l 283 -397 q 420 -330 372 -365 q 468 -260 468 -294 q 462 -239 468 -246 q 450 -232 456 -232 q 435 -244 443 -232 q 414 -267 428 -256 q 374 -279 400 -279 q 319 -255 338 -279 q 301 -200 301 -231 q 335 -128 301 -154 q 413 -101 368 -101 q 478 -121 453 -101 q 515 -170 503 -140 q 526 -231 526 -200 q 469 -348 526 -297 q 303 -435 413 -399 z "},"L":{"ha":857,"x_min":-37,"x_max":851,"o":"m 83 0 l 311 1047 l 506 1047 l 272 0 l 83 0 m -37 0 l -37 39 l 475 39 q 588 64 533 39 q 694 151 642 89 q 800 322 747 213 l 851 322 l 768 0 l -37 0 m 158 1008 l 158 1047 l 643 1047 l 643 1008 l 158 1008 z "},"Ǉ":{"ha":1435,"x_min":-37,"x_max":1529,"o":"m 83 0 l 311 1047 l 506 1047 l 272 0 l 83 0 m -37 0 l -37 39 l 475 39 q 588 64 533 39 q 694 151 642 89 q 800 322 747 213 l 851 322 l 768 0 l -37 0 m 158 1008 l 158 1047 l 643 1047 l 643 1008 l 158 1008 m 908 -157 q 807 -135 849 -157 q 743 -80 765 -114 q 721 -7 721 -46 q 748 72 721 38 q 821 106 775 106 q 885 81 858 106 q 911 14 911 56 q 902 -28 911 -11 q 884 -58 893 -46 q 875 -83 875 -71 q 915 -110 875 -110 q 942 -104 929 -110 q 967 -81 954 -99 q 993 -29 981 -64 q 1018 64 1006 6 l 1233 1047 l 1428 1047 l 1249 201 q 1167 -8 1221 71 q 1047 -122 1114 -86 q 908 -157 979 -157 m 1090 1008 l 1090 1047 l 1529 1047 l 1529 1008 l 1090 1008 z "},"Ĺ":{"ha":857,"x_min":-37,"x_max":857,"o":"m 83 0 l 311 1047 l 506 1047 l 272 0 l 83 0 m -37 0 l -37 39 l 475 39 q 588 64 533 39 q 694 151 642 89 q 800 322 747 213 l 851 322 l 768 0 l -37 0 m 158 1008 l 158 1047 l 643 1047 l 643 1008 l 158 1008 m 424 1172 l 667 1322 q 734 1358 708 1347 q 786 1368 760 1368 q 838 1349 819 1368 q 857 1304 857 1331 q 838 1257 857 1279 q 776 1226 818 1235 l 513 1172 l 424 1172 z "},"Ľ":{"ha":857,"x_min":-37,"x_max":1008,"o":"m 83 0 l 311 1047 l 506 1047 l 272 0 l 83 0 m -37 0 l -37 39 l 475 39 q 588 64 533 39 q 694 151 642 89 q 800 322 747 213 l 851 322 l 768 0 l -37 0 m 158 1008 l 158 1047 l 643 1047 l 643 1008 l 158 1008 m 757 682 l 739 714 q 893 819 840 765 q 946 922 946 874 q 939 951 946 943 q 925 960 932 960 q 908 947 915 960 q 885 922 900 935 q 842 908 871 908 q 776 939 797 908 q 754 1004 754 969 q 789 1081 754 1051 q 872 1110 824 1110 q 949 1085 918 1110 q 994 1025 979 1061 q 1008 954 1008 989 q 942 806 1008 879 q 757 682 875 733 z "},"Ļ":{"ha":857,"x_min":-37,"x_max":851,"o":"m 83 0 l 311 1047 l 506 1047 l 272 0 l 83 0 m -37 0 l -37 39 l 475 39 q 588 64 533 39 q 694 151 642 89 q 800 322 747 213 l 851 322 l 768 0 l -37 0 m 158 1008 l 158 1047 l 643 1047 l 643 1008 l 158 1008 m 222 -435 l 203 -397 q 340 -330 292 -365 q 388 -260 388 -294 q 381 -239 388 -246 q 369 -232 375 -232 q 355 -244 363 -232 q 333 -267 347 -256 q 293 -279 319 -279 q 239 -255 257 -279 q 221 -200 221 -231 q 254 -128 221 -154 q 332 -101 288 -101 q 397 -121 372 -101 q 434 -170 422 -140 q 446 -231 446 -200 q 389 -348 446 -297 q 222 -435 332 -399 z "},"Ŀ":{"ha":857,"x_min":-37,"x_max":851,"o":"m 83 0 l 311 1047 l 506 1047 l 272 0 l 83 0 m -37 0 l -37 39 l 475 39 q 588 64 533 39 q 694 151 642 89 q 800 322 747 213 l 851 322 l 768 0 l -37 0 m 158 1008 l 158 1047 l 643 1047 l 643 1008 l 158 1008 m 690 438 q 612 470 644 438 q 579 549 579 503 q 612 628 579 596 q 690 661 644 661 q 770 628 738 661 q 803 549 803 596 q 770 470 803 503 q 690 438 738 438 z "},"ǈ":{"ha":1257,"x_min":-37,"x_max":1289,"o":"m 83 0 l 311 1047 l 506 1047 l 272 0 l 83 0 m -37 0 l -37 39 l 475 39 q 588 64 533 39 q 694 151 642 89 q 800 322 747 213 l 851 322 l 768 0 l -37 0 m 158 1008 l 158 1047 l 643 1047 l 643 1008 l 158 1008 m 757 -450 q 651 -419 697 -450 q 606 -336 606 -387 q 627 -281 606 -301 q 685 -261 649 -261 q 739 -279 719 -261 q 758 -332 758 -297 q 756 -359 758 -347 q 754 -381 754 -371 q 779 -401 754 -401 q 795 -397 785 -401 q 818 -370 806 -392 q 847 -302 831 -349 q 879 -172 863 -256 l 1053 625 l 1229 625 l 1076 -65 q 1016 -248 1053 -174 q 935 -367 979 -322 q 846 -431 892 -411 q 757 -450 800 -450 m 922 586 l 922 625 l 1213 625 l 1213 586 l 922 586 m 1182 810 q 1109 841 1140 810 q 1078 915 1078 872 q 1109 990 1078 958 q 1182 1021 1140 1021 q 1258 990 1226 1021 q 1289 915 1289 958 q 1258 841 1289 872 q 1182 810 1226 810 z "},"Ł":{"ha":857,"x_min":-37,"x_max":851,"o":"m 22 319 l 32 385 l 614 699 l 603 633 l 22 319 m 83 0 l 311 1047 l 506 1047 l 272 0 l 83 0 m -37 0 l -37 39 l 475 39 q 588 64 533 39 q 694 151 642 89 q 800 322 747 213 l 851 322 l 768 0 l -37 0 m 158 1008 l 158 1047 l 643 1047 l 643 1008 l 158 1008 z "},"M":{"ha":1247,"x_min":18,"x_max":1372,"o":"m 510 0 l 657 357 l 1043 1047 l 1107 1047 l 510 0 m 18 0 l 18 39 l 326 39 l 326 0 l 18 0 m 129 0 l 357 1047 l 408 1047 l 181 0 l 129 0 m 703 0 l 703 40 l 1172 40 l 1172 0 l 703 0 m 481 0 l 382 906 l 376 906 l 393 1047 l 578 1047 l 651 357 l 657 357 l 510 0 l 481 0 m 229 1008 l 229 1047 l 578 1047 l 578 1008 l 229 1008 m 824 0 l 1051 1047 l 1246 1047 l 1013 0 l 824 0 m 1079 1008 l 1079 1047 l 1372 1047 l 1372 1008 l 1079 1008 z "},"N":{"ha":1050,"x_min":-17,"x_max":1164,"o":"m 774 -18 l 365 917 l 360 917 l 378 1047 l 540 1047 l 851 353 l 857 353 l 801 -18 l 774 -18 m -17 0 l -17 39 l 315 39 l 315 0 l -17 0 m 110 0 l 338 1047 l 388 1047 l 160 0 l 110 0 m 186 1008 l 186 1047 l 540 1047 l 540 1008 l 186 1008 m 782 -18 l 997 1047 l 1047 1047 l 815 -18 l 782 -18 m 850 1008 l 850 1047 l 1164 1047 l 1164 1008 l 850 1008 z "},"Ǌ":{"ha":1628,"x_min":-17,"x_max":1722,"o":"m 774 -18 l 365 917 l 360 917 l 378 1047 l 540 1047 l 851 353 l 857 353 l 801 -18 l 774 -18 m -17 0 l -17 39 l 315 39 l 315 0 l -17 0 m 110 0 l 338 1047 l 388 1047 l 160 0 l 110 0 m 186 1008 l 186 1047 l 540 1047 l 540 1008 l 186 1008 m 782 -18 l 997 1047 l 1047 1047 l 815 -18 l 782 -18 m 850 1008 l 850 1047 l 1164 1047 l 1164 1008 l 850 1008 m 1101 -157 q 1000 -135 1042 -157 q 936 -80 958 -114 q 914 -7 914 -46 q 941 72 914 38 q 1014 106 968 106 q 1078 81 1051 106 q 1104 14 1104 56 q 1095 -28 1104 -11 q 1077 -58 1086 -46 q 1068 -83 1068 -71 q 1108 -110 1068 -110 q 1135 -104 1122 -110 q 1160 -81 1147 -99 q 1186 -29 1174 -64 q 1211 64 1199 6 l 1426 1047 l 1621 1047 l 1442 201 q 1360 -8 1414 71 q 1240 -122 1307 -86 q 1101 -157 1172 -157 m 1283 1008 l 1283 1047 l 1722 1047 l 1722 1008 l 1283 1008 z "},"Ń":{"ha":1050,"x_min":-17,"x_max":1164,"o":"m 774 -18 l 365 917 l 360 917 l 378 1047 l 540 1047 l 851 353 l 857 353 l 801 -18 l 774 -18 m -17 0 l -17 39 l 315 39 l 315 0 l -17 0 m 110 0 l 338 1047 l 388 1047 l 160 0 l 110 0 m 186 1008 l 186 1047 l 540 1047 l 540 1008 l 186 1008 m 782 -18 l 997 1047 l 1047 1047 l 815 -18 l 782 -18 m 850 1008 l 850 1047 l 1164 1047 l 1164 1008 l 850 1008 m 521 1172 l 764 1322 q 831 1358 806 1347 q 883 1368 857 1368 q 935 1349 917 1368 q 954 1304 954 1331 q 935 1257 954 1279 q 874 1226 915 1235 l 610 1172 l 521 1172 z "},"Ň":{"ha":1050,"x_min":-17,"x_max":1164,"o":"m 774 -18 l 365 917 l 360 917 l 378 1047 l 540 1047 l 851 353 l 857 353 l 801 -18 l 774 -18 m -17 0 l -17 39 l 315 39 l 315 0 l -17 0 m 110 0 l 338 1047 l 388 1047 l 160 0 l 110 0 m 186 1008 l 186 1047 l 540 1047 l 540 1008 l 186 1008 m 782 -18 l 997 1047 l 1047 1047 l 815 -18 l 782 -18 m 850 1008 l 850 1047 l 1164 1047 l 1164 1008 l 850 1008 m 672 1172 l 511 1358 l 575 1358 l 738 1289 l 929 1358 l 992 1358 l 753 1172 l 672 1172 z "},"Ņ":{"ha":1050,"x_min":-17,"x_max":1164,"o":"m 774 -18 l 365 917 l 360 917 l 378 1047 l 540 1047 l 851 353 l 857 353 l 801 -18 l 774 -18 m -17 0 l -17 39 l 315 39 l 315 0 l -17 0 m 110 0 l 338 1047 l 388 1047 l 160 0 l 110 0 m 186 1008 l 186 1047 l 540 1047 l 540 1008 l 186 1008 m 782 -18 l 997 1047 l 1047 1047 l 815 -18 l 782 -18 m 850 1008 l 850 1047 l 1164 1047 l 1164 1008 l 850 1008 m 319 -435 l 300 -397 q 437 -330 389 -365 q 485 -260 485 -294 q 478 -239 485 -246 q 467 -232 472 -232 q 452 -244 460 -232 q 431 -267 444 -256 q 390 -279 417 -279 q 336 -255 354 -279 q 318 -200 318 -231 q 351 -128 318 -154 q 429 -101 385 -101 q 494 -121 469 -101 q 531 -170 519 -140 q 543 -231 543 -200 q 486 -348 543 -297 q 319 -435 429 -399 z "},"Ṅ":{"ha":1050,"x_min":-17,"x_max":1164,"o":"m 774 -18 l 365 917 l 360 917 l 378 1047 l 540 1047 l 851 353 l 857 353 l 801 -18 l 774 -18 m -17 0 l -17 39 l 315 39 l 315 0 l -17 0 m 110 0 l 338 1047 l 388 1047 l 160 0 l 110 0 m 186 1008 l 186 1047 l 540 1047 l 540 1008 l 186 1008 m 782 -18 l 997 1047 l 1047 1047 l 815 -18 l 782 -18 m 850 1008 l 850 1047 l 1164 1047 l 1164 1008 l 850 1008 m 707 1154 q 633 1185 664 1154 q 601 1258 601 1217 q 633 1334 601 1303 q 707 1365 664 1365 q 783 1334 751 1365 q 814 1258 814 1303 q 783 1185 814 1217 q 707 1154 751 1154 z "},"ǋ":{"ha":1450,"x_min":-17,"x_max":1482,"o":"m 774 -18 l 365 917 l 360 917 l 378 1047 l 540 1047 l 851 353 l 857 353 l 801 -18 l 774 -18 m -17 0 l -17 39 l 315 39 l 315 0 l -17 0 m 110 0 l 338 1047 l 388 1047 l 160 0 l 110 0 m 186 1008 l 186 1047 l 540 1047 l 540 1008 l 186 1008 m 782 -18 l 997 1047 l 1047 1047 l 815 -18 l 782 -18 m 850 1008 l 850 1047 l 1164 1047 l 1164 1008 l 850 1008 m 950 -450 q 844 -419 890 -450 q 799 -336 799 -387 q 820 -281 799 -301 q 878 -261 842 -261 q 932 -279 913 -261 q 951 -332 951 -297 q 949 -359 951 -347 q 947 -381 947 -371 q 972 -401 947 -401 q 988 -397 978 -401 q 1011 -370 999 -392 q 1040 -302 1024 -349 q 1072 -172 1056 -256 l 1246 625 l 1422 625 l 1269 -65 q 1209 -248 1246 -174 q 1128 -367 1172 -322 q 1039 -431 1085 -411 q 950 -450 993 -450 m 1115 586 l 1115 625 l 1406 625 l 1406 586 l 1115 586 m 1375 810 q 1302 841 1333 810 q 1271 915 1271 872 q 1302 990 1271 958 q 1375 1021 1333 1021 q 1451 990 1419 1021 q 1482 915 1482 958 q 1451 841 1482 872 q 1375 810 1419 810 z "},"Ñ":{"ha":1050,"x_min":-17,"x_max":1164,"o":"m 774 -18 l 365 917 l 360 917 l 378 1047 l 540 1047 l 851 353 l 857 353 l 801 -18 l 774 -18 m -17 0 l -17 39 l 315 39 l 315 0 l -17 0 m 110 0 l 338 1047 l 388 1047 l 160 0 l 110 0 m 186 1008 l 186 1047 l 540 1047 l 540 1008 l 186 1008 m 782 -18 l 997 1047 l 1047 1047 l 815 -18 l 782 -18 m 850 1008 l 850 1047 l 1164 1047 l 1164 1008 l 850 1008 m 481 1171 q 522 1262 496 1221 q 588 1328 549 1303 q 675 1353 626 1353 q 744 1337 718 1353 q 796 1305 771 1321 q 854 1289 821 1289 q 924 1312 896 1289 q 964 1354 953 1335 l 1013 1354 q 935 1221 985 1269 q 817 1172 885 1172 q 747 1188 774 1172 q 695 1220 719 1204 q 635 1236 671 1236 q 569 1217 597 1236 q 528 1171 540 1199 l 481 1171 z "},"Ŋ":{"ha":1051,"x_min":-17,"x_max":1164,"o":"m 629 -218 q 547 -196 582 -218 q 491 -140 511 -174 q 471 -68 471 -106 q 498 10 471 -24 q 571 44 525 44 q 635 19 608 44 q 661 -46 661 -6 q 650 -88 661 -75 q 628 -110 639 -101 q 617 -137 617 -119 q 625 -157 617 -149 q 654 -165 633 -165 q 694 -153 674 -165 q 734 -103 714 -140 q 769 6 754 -67 l 993 1024 l 1044 1024 l 826 31 q 787 -97 811 -40 q 724 -186 763 -154 q 629 -218 686 -218 m -17 0 l -17 39 l 315 39 l 315 0 l -17 0 m 110 0 l 338 1047 l 388 1047 l 160 0 l 110 0 m 790 58 l 365 917 l 360 917 l 378 1047 l 540 1047 l 861 444 l 867 444 l 818 58 l 790 58 m 186 1008 l 186 1047 l 540 1047 l 540 1008 l 186 1008 m 850 1008 l 850 1047 l 1164 1047 l 1164 1008 l 850 1008 z "},"O":{"ha":1086,"x_min":93,"x_max":1100,"o":"m 494 -15 q 330 19 404 -15 q 203 112 256 53 q 122 247 150 171 q 93 411 93 324 q 126 599 93 506 q 218 776 160 693 q 353 923 276 860 q 520 1023 431 986 q 703 1060 610 1060 q 865 1026 792 1060 q 990 935 938 993 q 1072 802 1043 878 q 1100 640 1100 726 q 1069 457 1100 550 q 982 279 1038 364 q 850 128 926 194 q 683 23 774 61 q 494 -15 593 -15 m 492 28 q 624 65 567 28 q 725 163 682 101 q 798 303 768 225 q 845 463 828 381 q 871 624 863 546 q 879 764 879 701 q 871 865 879 818 q 843 946 863 911 q 790 999 824 981 q 707 1018 757 1018 q 576 982 633 1018 q 476 884 518 946 q 403 744 433 822 q 353 583 372 667 q 326 421 335 500 q 318 276 318 342 q 358 94 318 161 q 492 28 397 28 z "},"Ó":{"ha":1086,"x_min":93,"x_max":1100,"o":"m 494 -15 q 330 19 404 -15 q 203 112 256 53 q 122 247 150 171 q 93 411 93 324 q 126 599 93 506 q 218 776 160 693 q 353 923 276 860 q 520 1023 431 986 q 703 1060 610 1060 q 865 1026 792 1060 q 990 935 938 993 q 1072 802 1043 878 q 1100 640 1100 726 q 1069 457 1100 550 q 982 279 1038 364 q 850 128 926 194 q 683 23 774 61 q 494 -15 593 -15 m 492 28 q 624 65 567 28 q 725 163 682 101 q 798 303 768 225 q 845 463 828 381 q 871 624 863 546 q 879 764 879 701 q 871 865 879 818 q 843 946 863 911 q 790 999 824 981 q 707 1018 757 1018 q 576 982 633 1018 q 476 884 518 946 q 403 744 433 822 q 353 583 372 667 q 326 421 335 500 q 318 276 318 342 q 358 94 318 161 q 492 28 397 28 m 551 1172 l 794 1322 q 862 1358 836 1347 q 914 1368 888 1368 q 966 1349 947 1368 q 985 1304 985 1331 q 965 1257 985 1279 q 904 1226 946 1235 l 640 1172 l 551 1172 z "},"Ŏ":{"ha":1086,"x_min":93,"x_max":1100,"o":"m 494 -15 q 330 19 404 -15 q 203 112 256 53 q 122 247 150 171 q 93 411 93 324 q 126 599 93 506 q 218 776 160 693 q 353 923 276 860 q 520 1023 431 986 q 703 1060 610 1060 q 865 1026 792 1060 q 990 935 938 993 q 1072 802 1043 878 q 1100 640 1100 726 q 1069 457 1100 550 q 982 279 1038 364 q 850 128 926 194 q 683 23 774 61 q 494 -15 593 -15 m 492 28 q 624 65 567 28 q 725 163 682 101 q 798 303 768 225 q 845 463 828 381 q 871 624 863 546 q 879 764 879 701 q 871 865 879 818 q 843 946 863 911 q 790 999 824 981 q 707 1018 757 1018 q 576 982 633 1018 q 476 884 518 946 q 403 744 433 822 q 353 583 372 667 q 326 421 335 500 q 318 276 318 342 q 358 94 318 161 q 492 28 397 28 m 743 1172 q 601 1219 649 1172 q 575 1360 553 1267 l 626 1360 q 639 1308 621 1326 q 690 1283 657 1289 q 760 1276 722 1276 q 841 1283 803 1276 q 906 1309 879 1290 q 940 1360 932 1328 l 992 1360 q 905 1222 974 1271 q 743 1172 836 1172 z "},"Ô":{"ha":1086,"x_min":93,"x_max":1100,"o":"m 494 -15 q 330 19 404 -15 q 203 112 256 53 q 122 247 150 171 q 93 411 93 324 q 126 599 93 506 q 218 776 160 693 q 353 923 276 860 q 520 1023 431 986 q 703 1060 610 1060 q 865 1026 792 1060 q 990 935 938 993 q 1072 802 1043 878 q 1100 640 1100 726 q 1069 457 1100 550 q 982 279 1038 364 q 850 128 926 194 q 683 23 774 61 q 494 -15 593 -15 m 492 28 q 624 65 567 28 q 725 163 682 101 q 798 303 768 225 q 845 463 828 381 q 871 624 863 546 q 879 764 879 701 q 871 865 879 818 q 843 946 863 911 q 790 999 824 981 q 707 1018 757 1018 q 576 982 633 1018 q 476 884 518 946 q 403 744 433 822 q 353 583 372 667 q 326 421 335 500 q 318 276 318 342 q 358 94 318 161 q 492 28 397 28 m 511 1172 l 750 1358 l 831 1358 l 992 1172 l 928 1172 l 765 1242 l 574 1172 l 511 1172 z "},"Ố":{"ha":1086,"x_min":93,"x_max":1100,"o":"m 494 -15 q 330 19 404 -15 q 203 112 256 53 q 122 247 150 171 q 93 411 93 324 q 126 599 93 506 q 218 776 160 693 q 353 923 276 860 q 520 1023 431 986 q 703 1060 610 1060 q 865 1026 792 1060 q 990 935 938 993 q 1072 802 1043 878 q 1100 640 1100 726 q 1069 457 1100 550 q 982 279 1038 364 q 850 128 926 194 q 683 23 774 61 q 494 -15 593 -15 m 492 28 q 624 65 567 28 q 725 163 682 101 q 798 303 768 225 q 845 463 828 381 q 871 624 863 546 q 879 764 879 701 q 871 865 879 818 q 843 946 863 911 q 790 999 824 981 q 707 1018 757 1018 q 576 982 633 1018 q 476 884 518 946 q 403 744 433 822 q 353 583 372 667 q 326 421 335 500 q 318 276 318 342 q 358 94 318 161 q 492 28 397 28 m 518 1151 l 724 1301 l 804 1301 l 961 1151 l 897 1151 l 754 1213 l 581 1151 l 518 1151 m 564 1349 l 807 1497 q 874 1533 849 1522 q 926 1543 900 1543 q 978 1525 960 1543 q 997 1481 997 1507 q 978 1433 997 1456 q 917 1403 958 1411 l 653 1349 l 564 1349 z "},"Ộ":{"ha":1086,"x_min":93,"x_max":1100,"o":"m 494 -15 q 330 19 404 -15 q 203 112 256 53 q 122 247 150 171 q 93 411 93 324 q 126 599 93 506 q 218 776 160 693 q 353 923 276 860 q 520 1023 431 986 q 703 1060 610 1060 q 865 1026 792 1060 q 990 935 938 993 q 1072 802 1043 878 q 1100 640 1100 726 q 1069 457 1100 550 q 982 279 1038 364 q 850 128 926 194 q 683 23 774 61 q 494 -15 593 -15 m 492 28 q 624 65 567 28 q 725 163 682 101 q 798 303 768 225 q 845 463 828 381 q 871 624 863 546 q 879 764 879 701 q 871 865 879 818 q 843 946 863 911 q 790 999 824 981 q 707 1018 757 1018 q 576 982 633 1018 q 476 884 518 946 q 403 744 433 822 q 353 583 372 667 q 326 421 335 500 q 318 276 318 342 q 358 94 318 161 q 492 28 397 28 m 424 -310 q 351 -278 382 -310 q 319 -204 319 -247 q 351 -130 319 -161 q 424 -99 382 -99 q 499 -130 468 -99 q 531 -204 531 -161 q 499 -278 531 -247 q 424 -310 468 -310 m 511 1172 l 750 1358 l 831 1358 l 992 1172 l 928 1172 l 765 1242 l 574 1172 l 511 1172 z "},"Ồ":{"ha":1086,"x_min":93,"x_max":1100,"o":"m 494 -15 q 330 19 404 -15 q 203 112 256 53 q 122 247 150 171 q 93 411 93 324 q 126 599 93 506 q 218 776 160 693 q 353 923 276 860 q 520 1023 431 986 q 703 1060 610 1060 q 865 1026 792 1060 q 990 935 938 993 q 1072 802 1043 878 q 1100 640 1100 726 q 1069 457 1100 550 q 982 279 1038 364 q 850 128 926 194 q 683 23 774 61 q 494 -15 593 -15 m 492 28 q 624 65 567 28 q 725 163 682 101 q 798 303 768 225 q 845 463 828 381 q 871 624 863 546 q 879 764 879 701 q 871 865 879 818 q 843 946 863 911 q 790 999 824 981 q 707 1018 757 1018 q 576 982 633 1018 q 476 884 518 946 q 403 744 433 822 q 353 583 372 667 q 326 421 335 500 q 318 276 318 342 q 358 94 318 161 q 492 28 397 28 m 524 1151 l 729 1301 l 810 1301 l 967 1151 l 903 1151 l 760 1213 l 586 1151 l 524 1151 m 931 1349 l 671 1404 q 619 1431 636 1411 q 603 1474 603 1451 q 624 1522 603 1501 q 682 1543 644 1543 q 730 1533 707 1543 q 792 1497 753 1522 l 1019 1349 l 931 1349 z "},"Ổ":{"ha":1086,"x_min":93,"x_max":1100,"o":"m 494 -15 q 330 19 404 -15 q 203 112 256 53 q 122 247 150 171 q 93 411 93 324 q 126 599 93 506 q 218 776 160 693 q 353 923 276 860 q 520 1023 431 986 q 703 1060 610 1060 q 865 1026 792 1060 q 990 935 938 993 q 1072 802 1043 878 q 1100 640 1100 726 q 1069 457 1100 550 q 982 279 1038 364 q 850 128 926 194 q 683 23 774 61 q 494 -15 593 -15 m 492 28 q 624 65 567 28 q 725 163 682 101 q 798 303 768 225 q 845 463 828 381 q 871 624 863 546 q 879 764 879 701 q 871 865 879 818 q 843 946 863 911 q 790 999 824 981 q 707 1018 757 1018 q 576 982 633 1018 q 476 884 518 946 q 403 744 433 822 q 353 583 372 667 q 326 421 335 500 q 318 276 318 342 q 358 94 318 161 q 492 28 397 28 m 518 1151 l 724 1301 l 804 1301 l 961 1151 l 897 1151 l 754 1213 l 581 1151 l 518 1151 m 910 1279 q 938 1341 918 1319 q 978 1376 958 1363 q 1000 1407 997 1390 q 993 1458 1007 1443 q 951 1472 979 1472 q 906 1460 925 1472 q 885 1432 888 1447 q 888 1414 883 1418 q 898 1404 893 1410 q 900 1382 903 1399 q 881 1356 899 1364 q 843 1347 863 1347 q 805 1365 818 1347 q 797 1408 792 1382 q 858 1503 810 1475 q 963 1531 906 1531 q 1066 1500 1035 1531 q 1083 1400 1097 1469 q 1060 1357 1078 1372 q 1022 1333 1043 1342 q 983 1313 1000 1324 q 958 1279 965 1301 l 910 1279 z "},"Ỗ":{"ha":1086,"x_min":93,"x_max":1100,"o":"m 494 -15 q 330 19 404 -15 q 203 112 256 53 q 122 247 150 171 q 93 411 93 324 q 126 599 93 506 q 218 776 160 693 q 353 923 276 860 q 520 1023 431 986 q 703 1060 610 1060 q 865 1026 792 1060 q 990 935 938 993 q 1072 802 1043 878 q 1100 640 1100 726 q 1069 457 1100 550 q 982 279 1038 364 q 850 128 926 194 q 683 23 774 61 q 494 -15 593 -15 m 492 28 q 624 65 567 28 q 725 163 682 101 q 798 303 768 225 q 845 463 828 381 q 871 624 863 546 q 879 764 879 701 q 871 865 879 818 q 843 946 863 911 q 790 999 824 981 q 707 1018 757 1018 q 576 982 633 1018 q 476 884 518 946 q 403 744 433 822 q 353 583 372 667 q 326 421 335 500 q 318 276 318 342 q 358 94 318 161 q 492 28 397 28 m 517 1151 l 722 1301 l 803 1301 l 960 1151 l 896 1151 l 753 1213 l 579 1151 l 517 1151 m 547 1333 q 588 1423 561 1382 q 653 1489 615 1464 q 740 1514 692 1514 q 810 1498 783 1514 q 861 1467 836 1482 q 919 1451 886 1451 q 990 1474 961 1451 q 1029 1517 1018 1496 l 1078 1517 q 1001 1383 1050 1431 q 882 1335 951 1335 q 812 1350 839 1335 q 760 1381 785 1365 q 700 1397 736 1397 q 635 1378 664 1397 q 593 1333 606 1360 l 547 1333 z "},"Ȍ":{"ha":1086,"x_min":93,"x_max":1100,"o":"m 494 -15 q 330 19 404 -15 q 203 112 256 53 q 122 247 150 171 q 93 411 93 324 q 126 599 93 506 q 218 776 160 693 q 353 923 276 860 q 520 1023 431 986 q 703 1060 610 1060 q 865 1026 792 1060 q 990 935 938 993 q 1072 802 1043 878 q 1100 640 1100 726 q 1069 457 1100 550 q 982 279 1038 364 q 850 128 926 194 q 683 23 774 61 q 494 -15 593 -15 m 492 28 q 624 65 567 28 q 725 163 682 101 q 798 303 768 225 q 845 463 828 381 q 871 624 863 546 q 879 764 879 701 q 871 865 879 818 q 843 946 863 911 q 790 999 824 981 q 707 1018 757 1018 q 576 982 633 1018 q 476 884 518 946 q 403 744 433 822 q 353 583 372 667 q 326 421 335 500 q 318 276 318 342 q 358 94 318 161 q 492 28 397 28 m 968 1172 l 751 1225 q 703 1251 719 1233 q 688 1290 688 1269 q 707 1337 688 1317 q 761 1357 726 1357 q 808 1349 786 1357 q 865 1314 831 1340 l 1051 1172 l 968 1172 m 660 1172 l 443 1225 q 395 1251 411 1233 q 379 1290 379 1269 q 399 1337 379 1317 q 453 1357 418 1357 q 500 1349 478 1357 q 557 1314 522 1340 l 743 1172 l 660 1172 z "},"Ö":{"ha":1086,"x_min":93,"x_max":1100,"o":"m 494 -15 q 330 19 404 -15 q 203 112 256 53 q 122 247 150 171 q 93 411 93 324 q 126 599 93 506 q 218 776 160 693 q 353 923 276 860 q 520 1023 431 986 q 703 1060 610 1060 q 865 1026 792 1060 q 990 935 938 993 q 1072 802 1043 878 q 1100 640 1100 726 q 1069 457 1100 550 q 982 279 1038 364 q 850 128 926 194 q 683 23 774 61 q 494 -15 593 -15 m 492 28 q 624 65 567 28 q 725 163 682 101 q 798 303 768 225 q 845 463 828 381 q 871 624 863 546 q 879 764 879 701 q 871 865 879 818 q 843 946 863 911 q 790 999 824 981 q 707 1018 757 1018 q 576 982 633 1018 q 476 884 518 946 q 403 744 433 822 q 353 583 372 667 q 326 421 335 500 q 318 276 318 342 q 358 94 318 161 q 492 28 397 28 m 907 1190 q 840 1218 868 1190 q 811 1286 811 1246 q 840 1353 811 1325 q 907 1381 868 1381 q 976 1353 949 1381 q 1004 1286 1004 1326 q 976 1218 1004 1246 q 907 1190 949 1190 m 613 1190 q 544 1218 572 1190 q 517 1286 517 1246 q 544 1353 517 1325 q 613 1381 571 1381 q 681 1353 651 1381 q 710 1286 710 1326 q 681 1218 710 1246 q 613 1190 651 1190 z "},"Ọ":{"ha":1086,"x_min":93,"x_max":1100,"o":"m 494 -15 q 330 19 404 -15 q 203 112 256 53 q 122 247 150 171 q 93 411 93 324 q 126 599 93 506 q 218 776 160 693 q 353 923 276 860 q 520 1023 431 986 q 703 1060 610 1060 q 865 1026 792 1060 q 990 935 938 993 q 1072 802 1043 878 q 1100 640 1100 726 q 1069 457 1100 550 q 982 279 1038 364 q 850 128 926 194 q 683 23 774 61 q 494 -15 593 -15 m 492 28 q 624 65 567 28 q 725 163 682 101 q 798 303 768 225 q 845 463 828 381 q 871 624 863 546 q 879 764 879 701 q 871 865 879 818 q 843 946 863 911 q 790 999 824 981 q 707 1018 757 1018 q 576 982 633 1018 q 476 884 518 946 q 403 744 433 822 q 353 583 372 667 q 326 421 335 500 q 318 276 318 342 q 358 94 318 161 q 492 28 397 28 m 424 -310 q 351 -278 382 -310 q 319 -204 319 -247 q 351 -130 319 -161 q 424 -99 382 -99 q 499 -130 468 -99 q 531 -204 531 -161 q 499 -278 531 -247 q 424 -310 468 -310 z "},"Ò":{"ha":1086,"x_min":93,"x_max":1100,"o":"m 494 -15 q 330 19 404 -15 q 203 112 256 53 q 122 247 150 171 q 93 411 93 324 q 126 599 93 506 q 218 776 160 693 q 353 923 276 860 q 520 1023 431 986 q 703 1060 610 1060 q 865 1026 792 1060 q 990 935 938 993 q 1072 802 1043 878 q 1100 640 1100 726 q 1069 457 1100 550 q 982 279 1038 364 q 850 128 926 194 q 683 23 774 61 q 494 -15 593 -15 m 492 28 q 624 65 567 28 q 725 163 682 101 q 798 303 768 225 q 845 463 828 381 q 871 624 863 546 q 879 764 879 701 q 871 865 879 818 q 843 946 863 911 q 790 999 824 981 q 707 1018 757 1018 q 576 982 633 1018 q 476 884 518 946 q 403 744 433 822 q 353 583 372 667 q 326 421 335 500 q 318 276 318 342 q 358 94 318 161 q 492 28 397 28 m 871 1172 l 610 1228 q 559 1255 575 1235 q 543 1297 543 1275 q 564 1346 543 1325 q 621 1367 585 1367 q 670 1356 647 1367 q 732 1321 693 1346 l 958 1172 l 871 1172 z "},"Ỏ":{"ha":1086,"x_min":93,"x_max":1100,"o":"m 494 -15 q 330 19 404 -15 q 203 112 256 53 q 122 247 150 171 q 93 411 93 324 q 126 599 93 506 q 218 776 160 693 q 353 923 276 860 q 520 1023 431 986 q 703 1060 610 1060 q 865 1026 792 1060 q 990 935 938 993 q 1072 802 1043 878 q 1100 640 1100 726 q 1069 457 1100 550 q 982 279 1038 364 q 850 128 926 194 q 683 23 774 61 q 494 -15 593 -15 m 492 28 q 624 65 567 28 q 725 163 682 101 q 798 303 768 225 q 845 463 828 381 q 871 624 863 546 q 879 764 879 701 q 871 865 879 818 q 843 946 863 911 q 790 999 824 981 q 707 1018 757 1018 q 576 982 633 1018 q 476 884 518 946 q 403 744 433 822 q 353 583 372 667 q 326 421 335 500 q 318 276 318 342 q 358 94 318 161 q 492 28 397 28 m 743 1143 q 764 1192 750 1174 q 794 1226 778 1211 q 821 1252 810 1240 q 833 1281 832 1264 q 824 1323 836 1310 q 785 1336 813 1336 q 740 1324 758 1336 q 718 1296 721 1311 q 722 1278 717 1282 q 731 1268 726 1274 q 733 1246 736 1263 q 714 1219 732 1228 q 676 1211 696 1211 q 640 1227 651 1211 q 631 1267 629 1243 q 658 1342 633 1314 q 721 1382 683 1369 q 796 1394 758 1394 q 891 1367 863 1394 q 917 1288 919 1339 q 899 1239 915 1257 q 860 1207 882 1221 q 818 1179 838 1193 q 792 1143 799 1165 l 743 1143 z "},"Ơ":{"ha":1086,"x_min":93,"x_max":1100,"o":"m 494 -15 q 330 19 404 -15 q 203 112 256 53 q 122 247 150 171 q 93 411 93 324 q 126 599 93 506 q 218 776 160 693 q 353 923 276 860 q 520 1023 431 986 q 703 1060 610 1060 q 865 1026 792 1060 q 990 935 938 993 q 1072 802 1043 878 q 1100 640 1100 726 q 1069 457 1100 550 q 982 279 1038 364 q 850 128 926 194 q 683 23 774 61 q 494 -15 593 -15 m 492 28 q 624 65 567 28 q 725 163 682 101 q 798 303 768 225 q 845 463 828 381 q 871 624 863 546 q 879 764 879 701 q 871 865 879 818 q 843 946 863 911 q 790 999 824 981 q 707 1018 757 1018 q 576 982 633 1018 q 476 884 518 946 q 403 744 433 822 q 353 583 372 667 q 326 421 335 500 q 318 276 318 342 q 358 94 318 161 q 492 28 397 28 m 828 1000 l 771 1049 q 872 1050 833 1044 q 930 1070 910 1056 q 960 1107 950 1085 q 976 1158 969 1129 l 1076 1158 q 1037 1058 1065 1093 q 958 1012 1008 1024 q 828 1000 907 1000 z "},"Ớ":{"ha":1086,"x_min":93,"x_max":1100,"o":"m 494 -15 q 330 19 404 -15 q 203 112 256 53 q 122 247 150 171 q 93 411 93 324 q 126 599 93 506 q 218 776 160 693 q 353 923 276 860 q 520 1023 431 986 q 703 1060 610 1060 q 865 1026 792 1060 q 990 935 938 993 q 1072 802 1043 878 q 1100 640 1100 726 q 1069 457 1100 550 q 982 279 1038 364 q 850 128 926 194 q 683 23 774 61 q 494 -15 593 -15 m 492 28 q 624 65 567 28 q 725 163 682 101 q 798 303 768 225 q 845 463 828 381 q 871 624 863 546 q 879 764 879 701 q 871 865 879 818 q 843 946 863 911 q 790 999 824 981 q 707 1018 757 1018 q 576 982 633 1018 q 476 884 518 946 q 403 744 433 822 q 353 583 372 667 q 326 421 335 500 q 318 276 318 342 q 358 94 318 161 q 492 28 397 28 m 828 1000 l 771 1049 q 872 1050 833 1044 q 930 1070 910 1056 q 960 1107 950 1085 q 976 1158 969 1129 l 1076 1158 q 1037 1058 1065 1093 q 958 1012 1008 1024 q 828 1000 907 1000 m 543 1172 l 786 1322 q 853 1358 828 1347 q 906 1368 879 1368 q 958 1349 939 1368 q 976 1304 976 1331 q 957 1257 976 1279 q 896 1226 938 1235 l 632 1172 l 543 1172 z "},"Ợ":{"ha":1086,"x_min":93,"x_max":1100,"o":"m 494 -15 q 330 19 404 -15 q 203 112 256 53 q 122 247 150 171 q 93 411 93 324 q 126 599 93 506 q 218 776 160 693 q 353 923 276 860 q 520 1023 431 986 q 703 1060 610 1060 q 865 1026 792 1060 q 990 935 938 993 q 1072 802 1043 878 q 1100 640 1100 726 q 1069 457 1100 550 q 982 279 1038 364 q 850 128 926 194 q 683 23 774 61 q 494 -15 593 -15 m 492 28 q 624 65 567 28 q 725 163 682 101 q 798 303 768 225 q 845 463 828 381 q 871 624 863 546 q 879 764 879 701 q 871 865 879 818 q 843 946 863 911 q 790 999 824 981 q 707 1018 757 1018 q 576 982 633 1018 q 476 884 518 946 q 403 744 433 822 q 353 583 372 667 q 326 421 335 500 q 318 276 318 342 q 358 94 318 161 q 492 28 397 28 m 828 1000 l 771 1049 q 872 1050 833 1044 q 930 1070 910 1056 q 960 1107 950 1085 q 976 1158 969 1129 l 1076 1158 q 1037 1058 1065 1093 q 958 1012 1008 1024 q 828 1000 907 1000 m 424 -310 q 351 -278 382 -310 q 319 -204 319 -247 q 351 -130 319 -161 q 424 -99 382 -99 q 499 -130 468 -99 q 531 -204 531 -161 q 499 -278 531 -247 q 424 -310 468 -310 z "},"Ờ":{"ha":1086,"x_min":93,"x_max":1100,"o":"m 494 -15 q 330 19 404 -15 q 203 112 256 53 q 122 247 150 171 q 93 411 93 324 q 126 599 93 506 q 218 776 160 693 q 353 923 276 860 q 520 1023 431 986 q 703 1060 610 1060 q 865 1026 792 1060 q 990 935 938 993 q 1072 802 1043 878 q 1100 640 1100 726 q 1069 457 1100 550 q 982 279 1038 364 q 850 128 926 194 q 683 23 774 61 q 494 -15 593 -15 m 492 28 q 624 65 567 28 q 725 163 682 101 q 798 303 768 225 q 845 463 828 381 q 871 624 863 546 q 879 764 879 701 q 871 865 879 818 q 843 946 863 911 q 790 999 824 981 q 707 1018 757 1018 q 576 982 633 1018 q 476 884 518 946 q 403 744 433 822 q 353 583 372 667 q 326 421 335 500 q 318 276 318 342 q 358 94 318 161 q 492 28 397 28 m 828 1000 l 771 1049 q 872 1050 833 1044 q 930 1070 910 1056 q 960 1107 950 1085 q 976 1158 969 1129 l 1076 1158 q 1037 1058 1065 1093 q 958 1012 1008 1024 q 828 1000 907 1000 m 861 1172 l 600 1228 q 549 1255 565 1235 q 533 1297 533 1275 q 554 1346 533 1325 q 611 1367 575 1367 q 660 1356 638 1367 q 722 1321 683 1346 l 949 1172 l 861 1172 z "},"Ở":{"ha":1086,"x_min":93,"x_max":1100,"o":"m 494 -15 q 330 19 404 -15 q 203 112 256 53 q 122 247 150 171 q 93 411 93 324 q 126 599 93 506 q 218 776 160 693 q 353 923 276 860 q 520 1023 431 986 q 703 1060 610 1060 q 865 1026 792 1060 q 990 935 938 993 q 1072 802 1043 878 q 1100 640 1100 726 q 1069 457 1100 550 q 982 279 1038 364 q 850 128 926 194 q 683 23 774 61 q 494 -15 593 -15 m 492 28 q 624 65 567 28 q 725 163 682 101 q 798 303 768 225 q 845 463 828 381 q 871 624 863 546 q 879 764 879 701 q 871 865 879 818 q 843 946 863 911 q 790 999 824 981 q 707 1018 757 1018 q 576 982 633 1018 q 476 884 518 946 q 403 744 433 822 q 353 583 372 667 q 326 421 335 500 q 318 276 318 342 q 358 94 318 161 q 492 28 397 28 m 828 1000 l 771 1049 q 872 1050 833 1044 q 930 1070 910 1056 q 960 1107 950 1085 q 976 1158 969 1129 l 1076 1158 q 1037 1058 1065 1093 q 958 1012 1008 1024 q 828 1000 907 1000 m 735 1143 q 756 1192 742 1174 q 785 1226 769 1211 q 813 1252 801 1240 q 825 1281 824 1264 q 816 1323 828 1310 q 776 1336 804 1336 q 731 1324 750 1336 q 710 1296 713 1311 q 713 1278 708 1282 q 723 1268 718 1274 q 725 1246 728 1263 q 706 1219 724 1228 q 668 1211 688 1211 q 632 1227 643 1211 q 622 1267 621 1243 q 650 1342 625 1314 q 713 1382 675 1369 q 788 1394 750 1394 q 883 1367 854 1394 q 908 1288 911 1339 q 890 1239 907 1257 q 851 1207 874 1221 q 810 1179 829 1193 q 783 1143 790 1165 l 735 1143 z "},"Ỡ":{"ha":1086,"x_min":93,"x_max":1100,"o":"m 494 -15 q 330 19 404 -15 q 203 112 256 53 q 122 247 150 171 q 93 411 93 324 q 126 599 93 506 q 218 776 160 693 q 353 923 276 860 q 520 1023 431 986 q 703 1060 610 1060 q 865 1026 792 1060 q 990 935 938 993 q 1072 802 1043 878 q 1100 640 1100 726 q 1069 457 1100 550 q 982 279 1038 364 q 850 128 926 194 q 683 23 774 61 q 494 -15 593 -15 m 492 28 q 624 65 567 28 q 725 163 682 101 q 798 303 768 225 q 845 463 828 381 q 871 624 863 546 q 879 764 879 701 q 871 865 879 818 q 843 946 863 911 q 790 999 824 981 q 707 1018 757 1018 q 576 982 633 1018 q 476 884 518 946 q 403 744 433 822 q 353 583 372 667 q 326 421 335 500 q 318 276 318 342 q 358 94 318 161 q 492 28 397 28 m 828 1000 l 771 1049 q 872 1050 833 1044 q 930 1070 910 1056 q 960 1107 950 1085 q 976 1158 969 1129 l 1076 1158 q 1037 1058 1065 1093 q 958 1012 1008 1024 q 828 1000 907 1000 m 501 1171 q 543 1262 517 1221 q 608 1328 569 1303 q 696 1353 647 1353 q 765 1337 739 1353 q 817 1305 792 1321 q 875 1289 842 1289 q 945 1312 917 1289 q 985 1354 974 1335 l 1033 1354 q 956 1221 1006 1269 q 838 1172 906 1172 q 767 1188 794 1172 q 716 1220 740 1204 q 656 1236 692 1236 q 590 1217 618 1236 q 549 1171 561 1199 l 501 1171 z "},"Ő":{"ha":1086,"x_min":93,"x_max":1100,"o":"m 494 -15 q 330 19 404 -15 q 203 112 256 53 q 122 247 150 171 q 93 411 93 324 q 126 599 93 506 q 218 776 160 693 q 353 923 276 860 q 520 1023 431 986 q 703 1060 610 1060 q 865 1026 792 1060 q 990 935 938 993 q 1072 802 1043 878 q 1100 640 1100 726 q 1069 457 1100 550 q 982 279 1038 364 q 850 128 926 194 q 683 23 774 61 q 494 -15 593 -15 m 492 28 q 624 65 567 28 q 725 163 682 101 q 798 303 768 225 q 845 463 828 381 q 871 624 863 546 q 879 764 879 701 q 871 865 879 818 q 843 946 863 911 q 790 999 824 981 q 707 1018 757 1018 q 576 982 633 1018 q 476 884 518 946 q 403 744 433 822 q 353 583 372 667 q 326 421 335 500 q 318 276 318 342 q 358 94 318 161 q 492 28 397 28 m 715 1172 l 919 1321 q 979 1353 954 1346 q 1029 1361 1004 1361 q 1077 1344 1060 1361 q 1094 1301 1094 1326 q 1076 1258 1094 1278 q 1018 1228 1058 1238 l 797 1172 l 715 1172 m 406 1172 l 611 1321 q 670 1353 644 1346 q 719 1361 696 1361 q 769 1344 751 1361 q 786 1301 786 1326 q 767 1258 786 1278 q 708 1228 749 1238 l 488 1172 l 406 1172 z "},"Ȏ":{"ha":1086,"x_min":93,"x_max":1100,"o":"m 494 -15 q 330 19 404 -15 q 203 112 256 53 q 122 247 150 171 q 93 411 93 324 q 126 599 93 506 q 218 776 160 693 q 353 923 276 860 q 520 1023 431 986 q 703 1060 610 1060 q 865 1026 792 1060 q 990 935 938 993 q 1072 802 1043 878 q 1100 640 1100 726 q 1069 457 1100 550 q 982 279 1038 364 q 850 128 926 194 q 683 23 774 61 q 494 -15 593 -15 m 492 28 q 624 65 567 28 q 725 163 682 101 q 798 303 768 225 q 845 463 828 381 q 871 624 863 546 q 879 764 879 701 q 871 865 879 818 q 843 946 863 911 q 790 999 824 981 q 707 1018 757 1018 q 576 982 633 1018 q 476 884 518 946 q 403 744 433 822 q 353 583 372 667 q 326 421 335 500 q 318 276 318 342 q 358 94 318 161 q 492 28 397 28 m 533 1172 q 617 1315 551 1261 q 781 1368 682 1368 q 911 1332 864 1368 q 958 1226 958 1296 q 951 1172 958 1203 l 899 1172 q 868 1244 907 1222 q 765 1265 829 1265 q 646 1243 694 1265 q 586 1172 597 1221 l 533 1172 z "},"Ō":{"ha":1086,"x_min":93,"x_max":1100,"o":"m 494 -15 q 330 19 404 -15 q 203 112 256 53 q 122 247 150 171 q 93 411 93 324 q 126 599 93 506 q 218 776 160 693 q 353 923 276 860 q 520 1023 431 986 q 703 1060 610 1060 q 865 1026 792 1060 q 990 935 938 993 q 1072 802 1043 878 q 1100 640 1100 726 q 1069 457 1100 550 q 982 279 1038 364 q 850 128 926 194 q 683 23 774 61 q 494 -15 593 -15 m 492 28 q 624 65 567 28 q 725 163 682 101 q 798 303 768 225 q 845 463 828 381 q 871 624 863 546 q 879 764 879 701 q 871 865 879 818 q 843 946 863 911 q 790 999 824 981 q 707 1018 757 1018 q 576 982 633 1018 q 476 884 518 946 q 403 744 433 822 q 353 583 372 667 q 326 421 335 500 q 318 276 318 342 q 358 94 318 161 q 492 28 397 28 m 538 1203 l 563 1314 l 1025 1314 l 1000 1203 l 538 1203 z "},"Ǫ":{"ha":1086,"x_min":93,"x_max":1100,"o":"m 494 -15 q 330 19 404 -15 q 203 112 256 53 q 122 247 150 171 q 93 411 93 324 q 126 599 93 506 q 218 776 160 693 q 353 923 276 860 q 520 1023 431 986 q 703 1060 610 1060 q 865 1026 792 1060 q 990 935 938 993 q 1072 802 1043 878 q 1100 640 1100 726 q 1069 457 1100 550 q 982 279 1038 364 q 850 128 926 194 q 683 23 774 61 q 494 -15 593 -15 m 492 28 q 624 65 567 28 q 725 163 682 101 q 798 303 768 225 q 845 463 828 381 q 871 624 863 546 q 879 764 879 701 q 871 865 879 818 q 843 946 863 911 q 790 999 824 981 q 707 1018 757 1018 q 576 982 633 1018 q 476 884 518 946 q 403 744 433 822 q 353 583 372 667 q 326 421 335 500 q 318 276 318 342 q 358 94 318 161 q 492 28 397 28 m 374 -326 q 288 -302 319 -326 q 256 -235 256 -278 q 321 -112 256 -176 q 518 19 386 -49 l 578 17 q 434 -90 488 -33 q 381 -196 381 -147 q 397 -237 381 -222 q 443 -251 414 -251 q 485 -244 461 -251 q 540 -222 508 -237 l 560 -258 q 477 -307 531 -287 q 374 -326 424 -326 z "},"Ø":{"ha":1086,"x_min":71,"x_max":1167,"o":"m 71 -74 l 217 96 q 125 238 157 156 q 93 411 93 319 q 126 599 93 506 q 218 776 160 693 q 353 923 276 860 q 520 1023 431 986 q 703 1060 610 1060 q 847 1034 781 1060 q 963 964 913 1008 l 1094 1117 l 1167 1117 l 1000 924 q 1074 794 1049 868 q 1100 640 1100 721 q 1069 457 1100 550 q 982 279 1038 364 q 850 128 926 194 q 683 23 774 61 q 494 -15 593 -15 q 364 5 424 -15 q 257 61 304 25 l 142 -74 l 71 -74 m 492 28 q 642 78 576 28 q 754 212 707 129 q 830 394 801 294 q 870 596 858 494 q 878 781 882 697 l 333 150 q 388 59 350 90 q 492 28 426 28 m 321 217 l 871 857 q 844 941 864 906 q 792 997 825 976 q 707 1018 758 1018 q 576 982 633 1018 q 476 884 518 946 q 403 744 433 822 q 353 583 372 667 q 326 421 335 500 q 318 276 318 342 q 319 247 318 267 q 321 217 319 228 z "},"Ǿ":{"ha":1086,"x_min":71,"x_max":1167,"o":"m 71 -74 l 217 96 q 125 238 157 156 q 93 411 93 319 q 126 599 93 506 q 218 776 160 693 q 353 923 276 860 q 520 1023 431 986 q 703 1060 610 1060 q 847 1034 781 1060 q 963 964 913 1008 l 1094 1117 l 1167 1117 l 1000 924 q 1074 794 1049 868 q 1100 640 1100 721 q 1069 457 1100 550 q 982 279 1038 364 q 850 128 926 194 q 683 23 774 61 q 494 -15 593 -15 q 364 5 424 -15 q 257 61 304 25 l 142 -74 l 71 -74 m 492 28 q 642 78 576 28 q 754 212 707 129 q 830 394 801 294 q 870 596 858 494 q 878 781 882 697 l 333 150 q 388 59 350 90 q 492 28 426 28 m 321 217 l 871 857 q 844 941 864 906 q 792 997 825 976 q 707 1018 758 1018 q 576 982 633 1018 q 476 884 518 946 q 403 744 433 822 q 353 583 372 667 q 326 421 335 500 q 318 276 318 342 q 319 247 318 267 q 321 217 319 228 m 540 1172 l 783 1322 q 851 1358 825 1347 q 903 1368 876 1368 q 955 1349 936 1368 q 974 1304 974 1331 q 954 1257 974 1279 q 893 1226 935 1235 l 629 1172 l 540 1172 z "},"Õ":{"ha":1086,"x_min":93,"x_max":1100,"o":"m 494 -15 q 330 19 404 -15 q 203 112 256 53 q 122 247 150 171 q 93 411 93 324 q 126 599 93 506 q 218 776 160 693 q 353 923 276 860 q 520 1023 431 986 q 703 1060 610 1060 q 865 1026 792 1060 q 990 935 938 993 q 1072 802 1043 878 q 1100 640 1100 726 q 1069 457 1100 550 q 982 279 1038 364 q 850 128 926 194 q 683 23 774 61 q 494 -15 593 -15 m 492 28 q 624 65 567 28 q 725 163 682 101 q 798 303 768 225 q 845 463 828 381 q 871 624 863 546 q 879 764 879 701 q 871 865 879 818 q 843 946 863 911 q 790 999 824 981 q 707 1018 757 1018 q 576 982 633 1018 q 476 884 518 946 q 403 744 433 822 q 353 583 372 667 q 326 421 335 500 q 318 276 318 342 q 358 94 318 161 q 492 28 397 28 m 511 1171 q 553 1262 526 1221 q 618 1328 579 1303 q 706 1353 657 1353 q 775 1337 749 1353 q 826 1305 801 1321 q 885 1289 851 1289 q 955 1312 926 1289 q 994 1354 983 1335 l 1043 1354 q 965 1221 1015 1269 q 847 1172 915 1172 q 777 1188 804 1172 q 726 1220 750 1204 q 665 1236 701 1236 q 599 1217 628 1236 q 558 1171 571 1199 l 511 1171 z "},"Œ":{"ha":1556,"x_min":93,"x_max":1593,"o":"m 471 0 q 313 33 382 0 q 194 121 243 65 q 119 247 146 176 q 93 396 93 318 q 127 585 93 490 q 220 762 161 679 q 357 909 279 844 q 523 1010 435 974 q 703 1047 611 1047 q 837 1015 776 1047 q 940 926 897 982 q 1005 799 982 869 q 1028 650 1028 728 q 998 469 1028 561 q 916 293 968 378 q 794 142 864 208 q 642 38 725 76 q 471 0 560 0 m 463 43 q 592 83 535 43 q 694 188 650 122 q 768 336 738 254 q 818 503 799 418 q 847 667 838 589 q 856 803 856 744 q 841 914 856 869 q 794 982 826 958 q 708 1006 763 1006 q 578 966 636 1006 q 476 860 519 926 q 401 713 433 794 q 350 548 369 632 q 322 386 331 464 q 313 251 313 308 q 353 89 313 135 q 463 43 393 43 m 488 0 l 622 50 l 742 150 l 794 39 l 1136 39 q 1250 63 1199 39 q 1350 147 1301 86 q 1451 322 1399 207 l 1503 322 l 1419 0 l 488 0 m 711 0 l 939 1047 l 1133 1047 l 900 0 l 711 0 m 1203 315 q 1189 444 1203 400 q 1144 505 1175 489 q 1067 521 1114 521 l 946 521 l 946 561 l 1089 561 q 1176 578 1139 561 q 1242 635 1214 594 q 1292 743 1271 675 l 1336 743 l 1249 315 l 1203 315 m 1496 764 q 1476 914 1496 861 q 1408 988 1457 967 q 1268 1008 1358 1008 l 990 1008 l 918 888 l 822 1006 l 707 1047 l 1593 1047 l 1547 764 l 1496 764 z "},"P":{"ha":931,"x_min":-17,"x_max":975,"o":"m 250 483 l 250 518 l 501 518 q 693 597 628 518 q 758 838 758 676 q 745 936 758 899 q 695 991 732 974 q 586 1008 658 1008 l 171 1008 l 171 1047 l 603 1047 q 881 978 786 1047 q 975 792 975 908 q 915 630 975 700 q 744 522 856 560 q 478 483 633 483 l 250 483 m -17 0 l -17 40 l 418 40 l 418 0 l -17 0 m 86 0 l 314 1047 l 507 1047 l 274 0 l 86 0 z "},"Þ":{"ha":882,"x_min":-22,"x_max":919,"o":"m 79 0 l 307 1047 l 501 1047 l 268 0 l 79 0 m -22 0 l -22 40 l 411 40 l 411 0 l -22 0 m 193 244 l 193 279 l 444 279 q 638 358 572 279 q 703 599 703 438 q 690 697 703 660 q 639 752 676 735 q 529 769 601 769 l 304 769 l 304 808 l 546 808 q 825 739 731 808 q 919 553 919 669 q 859 391 919 461 q 688 283 799 321 q 421 244 576 244 l 193 244 m 188 1007 l 188 1047 l 625 1047 l 625 1007 l 188 1007 z "},"Q":{"ha":1086,"x_min":96,"x_max":1111,"o":"m 486 -15 q 321 18 393 -15 q 199 109 249 51 q 122 240 149 167 q 96 394 96 314 q 131 587 96 492 q 227 767 165 682 q 369 919 289 853 q 540 1022 449 985 q 726 1060 632 1060 q 888 1026 817 1060 q 1009 935 958 993 q 1085 804 1060 878 q 1111 651 1111 731 q 1078 466 1111 560 q 987 286 1046 372 q 849 132 928 200 q 678 24 771 64 q 486 -15 585 -15 m 689 -336 q 438 -265 526 -336 q 350 -56 350 -194 q 352 -20 350 -40 q 356 17 354 0 l 585 17 q 570 -47 575 -14 q 565 -118 565 -79 q 611 -243 565 -204 q 738 -282 657 -282 q 783 -279 758 -282 q 835 -271 808 -276 l 844 -322 q 763 -333 801 -329 q 689 -336 724 -336 m 485 28 q 622 68 563 28 q 728 176 682 108 q 806 328 774 244 q 858 498 838 411 q 887 664 878 585 q 896 800 896 743 q 879 920 896 872 q 826 993 863 968 q 731 1018 790 1018 q 594 978 654 1018 q 488 871 533 938 q 409 722 442 804 q 356 553 376 639 q 325 389 335 467 q 315 254 315 311 q 358 81 315 133 q 485 28 401 28 z "},"R":{"ha":994,"x_min":-1,"x_max":1014,"o":"m 100 0 l 328 1047 l 522 1047 l 289 0 l 100 0 m -1 0 l -1 40 l 432 40 l 432 0 l -1 0 m 860 -15 q 745 6 789 -15 q 677 61 701 26 q 642 140 653 96 q 628 231 631 183 q 622 324 625 278 q 606 434 619 386 q 557 510 592 482 q 456 538 522 538 l 626 544 l 626 539 q 733 489 692 517 q 798 423 774 461 q 833 333 822 385 q 847 213 843 282 q 854 125 851 163 q 872 67 857 88 q 925 46 886 46 q 960 51 944 46 q 992 68 976 57 l 1014 35 q 955 -1 992 13 q 860 -15 918 -15 m 264 538 l 264 576 l 528 576 q 710 650 646 576 q 774 856 774 724 q 760 943 774 910 q 708 992 746 976 q 600 1008 671 1008 l 185 1008 l 185 1047 l 617 1047 q 896 980 801 1047 q 990 806 990 913 q 861 608 990 679 q 492 538 732 538 l 264 538 z "},"Ŕ":{"ha":994,"x_min":-1,"x_max":1014,"o":"m 100 0 l 328 1047 l 522 1047 l 289 0 l 100 0 m -1 0 l -1 40 l 432 40 l 432 0 l -1 0 m 860 -15 q 745 6 789 -15 q 677 61 701 26 q 642 140 653 96 q 628 231 631 183 q 622 324 625 278 q 606 434 619 386 q 557 510 592 482 q 456 538 522 538 l 626 544 l 626 539 q 733 489 692 517 q 798 423 774 461 q 833 333 822 385 q 847 213 843 282 q 854 125 851 163 q 872 67 857 88 q 925 46 886 46 q 960 51 944 46 q 992 68 976 57 l 1014 35 q 955 -1 992 13 q 860 -15 918 -15 m 264 538 l 264 576 l 528 576 q 710 650 646 576 q 774 856 774 724 q 760 943 774 910 q 708 992 746 976 q 600 1008 671 1008 l 185 1008 l 185 1047 l 617 1047 q 896 980 801 1047 q 990 806 990 913 q 861 608 990 679 q 492 538 732 538 l 264 538 m 494 1172 l 738 1322 q 805 1358 779 1347 q 857 1368 831 1368 q 909 1349 890 1368 q 928 1304 928 1331 q 908 1257 928 1279 q 847 1226 889 1235 l 583 1172 l 494 1172 z "},"Ř":{"ha":994,"x_min":-1,"x_max":1014,"o":"m 100 0 l 328 1047 l 522 1047 l 289 0 l 100 0 m -1 0 l -1 40 l 432 40 l 432 0 l -1 0 m 860 -15 q 745 6 789 -15 q 677 61 701 26 q 642 140 653 96 q 628 231 631 183 q 622 324 625 278 q 606 434 619 386 q 557 510 592 482 q 456 538 522 538 l 626 544 l 626 539 q 733 489 692 517 q 798 423 774 461 q 833 333 822 385 q 847 213 843 282 q 854 125 851 163 q 872 67 857 88 q 925 46 886 46 q 960 51 944 46 q 992 68 976 57 l 1014 35 q 955 -1 992 13 q 860 -15 918 -15 m 264 538 l 264 576 l 528 576 q 710 650 646 576 q 774 856 774 724 q 760 943 774 910 q 708 992 746 976 q 600 1008 671 1008 l 185 1008 l 185 1047 l 617 1047 q 896 980 801 1047 q 990 806 990 913 q 861 608 990 679 q 492 538 732 538 l 264 538 m 646 1172 l 485 1358 l 549 1358 l 711 1289 l 903 1358 l 965 1358 l 726 1172 l 646 1172 z "},"Ŗ":{"ha":994,"x_min":-1,"x_max":1014,"o":"m 100 0 l 328 1047 l 522 1047 l 289 0 l 100 0 m -1 0 l -1 40 l 432 40 l 432 0 l -1 0 m 860 -15 q 745 6 789 -15 q 677 61 701 26 q 642 140 653 96 q 628 231 631 183 q 622 324 625 278 q 606 434 619 386 q 557 510 592 482 q 456 538 522 538 l 626 544 l 626 539 q 733 489 692 517 q 798 423 774 461 q 833 333 822 385 q 847 213 843 282 q 854 125 851 163 q 872 67 857 88 q 925 46 886 46 q 960 51 944 46 q 992 68 976 57 l 1014 35 q 955 -1 992 13 q 860 -15 918 -15 m 264 538 l 264 576 l 528 576 q 710 650 646 576 q 774 856 774 724 q 760 943 774 910 q 708 992 746 976 q 600 1008 671 1008 l 185 1008 l 185 1047 l 617 1047 q 896 980 801 1047 q 990 806 990 913 q 861 608 990 679 q 492 538 732 538 l 264 538 m 292 -435 l 272 -397 q 409 -330 361 -365 q 457 -260 457 -294 q 451 -239 457 -246 q 439 -232 444 -232 q 424 -244 432 -232 q 403 -267 417 -256 q 363 -279 389 -279 q 308 -255 326 -279 q 290 -200 290 -231 q 324 -128 290 -154 q 401 -101 357 -101 q 467 -121 442 -101 q 503 -170 492 -140 q 515 -231 515 -200 q 458 -348 515 -297 q 292 -435 401 -399 z "},"Ȑ":{"ha":994,"x_min":-1,"x_max":1014,"o":"m 100 0 l 328 1047 l 522 1047 l 289 0 l 100 0 m -1 0 l -1 40 l 432 40 l 432 0 l -1 0 m 860 -15 q 745 6 789 -15 q 677 61 701 26 q 642 140 653 96 q 628 231 631 183 q 622 324 625 278 q 606 434 619 386 q 557 510 592 482 q 456 538 522 538 l 626 544 l 626 539 q 733 489 692 517 q 798 423 774 461 q 833 333 822 385 q 847 213 843 282 q 854 125 851 163 q 872 67 857 88 q 925 46 886 46 q 960 51 944 46 q 992 68 976 57 l 1014 35 q 955 -1 992 13 q 860 -15 918 -15 m 264 538 l 264 576 l 528 576 q 710 650 646 576 q 774 856 774 724 q 760 943 774 910 q 708 992 746 976 q 600 1008 671 1008 l 185 1008 l 185 1047 l 617 1047 q 896 980 801 1047 q 990 806 990 913 q 861 608 990 679 q 492 538 732 538 l 264 538 m 910 1172 l 693 1225 q 645 1251 661 1233 q 629 1290 629 1269 q 649 1337 629 1317 q 703 1357 668 1357 q 750 1349 728 1357 q 807 1314 772 1340 l 993 1172 l 910 1172 m 601 1172 l 385 1225 q 337 1251 353 1233 q 321 1290 321 1269 q 340 1337 321 1317 q 394 1357 360 1357 q 442 1349 419 1357 q 499 1314 464 1340 l 685 1172 l 601 1172 z "},"Ṛ":{"ha":994,"x_min":-1,"x_max":1014,"o":"m 100 0 l 328 1047 l 522 1047 l 289 0 l 100 0 m -1 0 l -1 40 l 432 40 l 432 0 l -1 0 m 860 -15 q 745 6 789 -15 q 677 61 701 26 q 642 140 653 96 q 628 231 631 183 q 622 324 625 278 q 606 434 619 386 q 557 510 592 482 q 456 538 522 538 l 626 544 l 626 539 q 733 489 692 517 q 798 423 774 461 q 833 333 822 385 q 847 213 843 282 q 854 125 851 163 q 872 67 857 88 q 925 46 886 46 q 960 51 944 46 q 992 68 976 57 l 1014 35 q 955 -1 992 13 q 860 -15 918 -15 m 264 538 l 264 576 l 528 576 q 710 650 646 576 q 774 856 774 724 q 760 943 774 910 q 708 992 746 976 q 600 1008 671 1008 l 185 1008 l 185 1047 l 617 1047 q 896 980 801 1047 q 990 806 990 913 q 861 608 990 679 q 492 538 732 538 l 264 538 m 378 -310 q 305 -278 336 -310 q 274 -204 274 -247 q 305 -130 274 -161 q 378 -99 336 -99 q 453 -130 422 -99 q 485 -204 485 -161 q 453 -278 485 -247 q 378 -310 422 -310 z "},"Ȓ":{"ha":994,"x_min":-1,"x_max":1014,"o":"m 100 0 l 328 1047 l 522 1047 l 289 0 l 100 0 m -1 0 l -1 40 l 432 40 l 432 0 l -1 0 m 860 -15 q 745 6 789 -15 q 677 61 701 26 q 642 140 653 96 q 628 231 631 183 q 622 324 625 278 q 606 434 619 386 q 557 510 592 482 q 456 538 522 538 l 626 544 l 626 539 q 733 489 692 517 q 798 423 774 461 q 833 333 822 385 q 847 213 843 282 q 854 125 851 163 q 872 67 857 88 q 925 46 886 46 q 960 51 944 46 q 992 68 976 57 l 1014 35 q 955 -1 992 13 q 860 -15 918 -15 m 264 538 l 264 576 l 528 576 q 710 650 646 576 q 774 856 774 724 q 760 943 774 910 q 708 992 746 976 q 600 1008 671 1008 l 185 1008 l 185 1047 l 617 1047 q 896 980 801 1047 q 990 806 990 913 q 861 608 990 679 q 492 538 732 538 l 264 538 m 475 1172 q 558 1315 493 1261 q 722 1368 624 1368 q 853 1332 806 1368 q 900 1226 900 1296 q 893 1172 900 1203 l 840 1172 q 810 1244 849 1222 q 707 1265 771 1265 q 588 1243 636 1265 q 528 1172 539 1221 l 475 1172 z "},"S":{"ha":806,"x_min":22,"x_max":819,"o":"m 378 -18 q 240 6 300 -18 q 139 71 181 31 l 65 0 l 22 0 l 76 296 l 117 296 q 381 26 163 26 q 516 58 461 26 q 599 135 571 89 q 626 231 626 182 q 594 324 626 288 q 513 388 563 361 q 406 442 463 415 q 298 505 349 469 q 215 594 247 540 q 183 728 183 647 q 222 890 183 814 q 335 1013 261 965 q 514 1060 410 1060 q 639 1038 583 1060 q 728 983 694 1017 l 785 1047 l 819 1047 l 769 771 l 729 771 q 699 903 729 849 q 619 987 669 958 q 501 1015 568 1015 q 401 995 446 1015 q 329 940 356 975 q 303 858 303 904 q 335 771 303 806 q 419 710 368 736 q 528 658 471 685 q 636 592 585 631 q 720 496 688 554 q 753 349 753 438 q 703 158 753 240 q 569 28 654 75 q 378 -18 485 -18 z "},"Ś":{"ha":806,"x_min":22,"x_max":832,"o":"m 378 -18 q 240 6 300 -18 q 139 71 181 31 l 65 0 l 22 0 l 76 296 l 117 296 q 381 26 163 26 q 516 58 461 26 q 599 135 571 89 q 626 231 626 182 q 594 324 626 288 q 513 388 563 361 q 406 442 463 415 q 298 505 349 469 q 215 594 247 540 q 183 728 183 647 q 222 890 183 814 q 335 1013 261 965 q 514 1060 410 1060 q 639 1038 583 1060 q 728 983 694 1017 l 785 1047 l 819 1047 l 769 771 l 729 771 q 699 903 729 849 q 619 987 669 958 q 501 1015 568 1015 q 401 995 446 1015 q 329 940 356 975 q 303 858 303 904 q 335 771 303 806 q 419 710 368 736 q 528 658 471 685 q 636 592 585 631 q 720 496 688 554 q 753 349 753 438 q 703 158 753 240 q 569 28 654 75 q 378 -18 485 -18 m 399 1172 l 642 1322 q 709 1358 683 1347 q 761 1368 735 1368 q 813 1349 794 1368 q 832 1304 832 1331 q 813 1257 832 1279 q 751 1226 793 1235 l 488 1172 l 399 1172 z "},"Š":{"ha":806,"x_min":22,"x_max":871,"o":"m 378 -18 q 240 6 300 -18 q 139 71 181 31 l 65 0 l 22 0 l 76 296 l 117 296 q 381 26 163 26 q 516 58 461 26 q 599 135 571 89 q 626 231 626 182 q 594 324 626 288 q 513 388 563 361 q 406 442 463 415 q 298 505 349 469 q 215 594 247 540 q 183 728 183 647 q 222 890 183 814 q 335 1013 261 965 q 514 1060 410 1060 q 639 1038 583 1060 q 728 983 694 1017 l 785 1047 l 819 1047 l 769 771 l 729 771 q 699 903 729 849 q 619 987 669 958 q 501 1015 568 1015 q 401 995 446 1015 q 329 940 356 975 q 303 858 303 904 q 335 771 303 806 q 419 710 368 736 q 528 658 471 685 q 636 592 585 631 q 720 496 688 554 q 753 349 753 438 q 703 158 753 240 q 569 28 654 75 q 378 -18 485 -18 m 550 1172 l 389 1358 l 453 1358 l 615 1289 l 807 1358 l 869 1358 l 631 1172 l 550 1172 z "},"Ş":{"ha":806,"x_min":22,"x_max":819,"o":"m 378 -18 q 240 6 300 -18 q 139 71 181 31 l 65 0 l 22 0 l 76 296 l 117 296 q 381 26 163 26 q 516 58 461 26 q 599 135 571 89 q 626 231 626 182 q 594 324 626 288 q 513 388 563 361 q 406 442 463 415 q 298 505 349 469 q 215 594 247 540 q 183 728 183 647 q 222 890 183 814 q 335 1013 261 965 q 514 1060 410 1060 q 639 1038 583 1060 q 728 983 694 1017 l 785 1047 l 819 1047 l 769 771 l 729 771 q 699 903 729 849 q 619 987 669 958 q 501 1015 568 1015 q 401 995 446 1015 q 329 940 356 975 q 303 858 303 904 q 335 771 303 806 q 419 710 368 736 q 528 658 471 685 q 636 592 585 631 q 720 496 688 554 q 753 349 753 438 q 703 158 753 240 q 569 28 654 75 q 378 -18 485 -18 m 272 -331 q 204 -322 231 -331 q 167 -307 178 -314 l 190 -260 q 220 -270 197 -265 q 265 -275 243 -275 q 338 -256 310 -275 q 367 -201 367 -237 q 346 -160 367 -176 q 272 -143 325 -144 l 361 6 l 418 6 l 358 -100 l 385 -100 q 469 -124 440 -100 q 499 -190 499 -149 q 463 -269 499 -237 q 374 -315 426 -300 q 272 -331 322 -331 z "},"Ŝ":{"ha":806,"x_min":22,"x_max":839,"o":"m 378 -18 q 240 6 300 -18 q 139 71 181 31 l 65 0 l 22 0 l 76 296 l 117 296 q 381 26 163 26 q 516 58 461 26 q 599 135 571 89 q 626 231 626 182 q 594 324 626 288 q 513 388 563 361 q 406 442 463 415 q 298 505 349 469 q 215 594 247 540 q 183 728 183 647 q 222 890 183 814 q 335 1013 261 965 q 514 1060 410 1060 q 639 1038 583 1060 q 728 983 694 1017 l 785 1047 l 819 1047 l 769 771 l 729 771 q 699 903 729 849 q 619 987 669 958 q 501 1015 568 1015 q 401 995 446 1015 q 329 940 356 975 q 303 858 303 904 q 335 771 303 806 q 419 710 368 736 q 528 658 471 685 q 636 592 585 631 q 720 496 688 554 q 753 349 753 438 q 703 158 753 240 q 569 28 654 75 q 378 -18 485 -18 m 358 1172 l 597 1358 l 678 1358 l 839 1172 l 775 1172 l 613 1242 l 421 1172 l 358 1172 z "},"Ș":{"ha":806,"x_min":22,"x_max":819,"o":"m 378 -18 q 240 6 300 -18 q 139 71 181 31 l 65 0 l 22 0 l 76 296 l 117 296 q 381 26 163 26 q 516 58 461 26 q 599 135 571 89 q 626 231 626 182 q 594 324 626 288 q 513 388 563 361 q 406 442 463 415 q 298 505 349 469 q 215 594 247 540 q 183 728 183 647 q 222 890 183 814 q 335 1013 261 965 q 514 1060 410 1060 q 639 1038 583 1060 q 728 983 694 1017 l 785 1047 l 819 1047 l 769 771 l 729 771 q 699 903 729 849 q 619 987 669 958 q 501 1015 568 1015 q 401 995 446 1015 q 329 940 356 975 q 303 858 303 904 q 335 771 303 806 q 419 710 368 736 q 528 658 471 685 q 636 592 585 631 q 720 496 688 554 q 753 349 753 438 q 703 158 753 240 q 569 28 654 75 q 378 -18 485 -18 m 244 -443 l 225 -406 q 362 -338 314 -374 q 410 -268 410 -303 q 403 -247 410 -254 q 392 -240 397 -240 q 377 -252 385 -240 q 356 -276 369 -264 q 315 -287 342 -287 q 261 -263 279 -287 q 243 -208 243 -239 q 276 -136 243 -162 q 354 -110 310 -110 q 419 -129 394 -110 q 456 -178 444 -149 q 468 -239 468 -208 q 411 -356 468 -306 q 244 -443 354 -407 z "},"Ṣ":{"ha":806,"x_min":22,"x_max":819,"o":"m 378 -18 q 240 6 300 -18 q 139 71 181 31 l 65 0 l 22 0 l 76 296 l 117 296 q 381 26 163 26 q 516 58 461 26 q 599 135 571 89 q 626 231 626 182 q 594 324 626 288 q 513 388 563 361 q 406 442 463 415 q 298 505 349 469 q 215 594 247 540 q 183 728 183 647 q 222 890 183 814 q 335 1013 261 965 q 514 1060 410 1060 q 639 1038 583 1060 q 728 983 694 1017 l 785 1047 l 819 1047 l 769 771 l 729 771 q 699 903 729 849 q 619 987 669 958 q 501 1015 568 1015 q 401 995 446 1015 q 329 940 356 975 q 303 858 303 904 q 335 771 303 806 q 419 710 368 736 q 528 658 471 685 q 636 592 585 631 q 720 496 688 554 q 753 349 753 438 q 703 158 753 240 q 569 28 654 75 q 378 -18 485 -18 m 331 -318 q 258 -287 289 -318 q 226 -212 226 -256 q 258 -138 226 -169 q 331 -107 289 -107 q 406 -138 375 -107 q 438 -212 438 -169 q 406 -287 438 -256 q 331 -318 375 -318 z "},"T":{"ha":964,"x_min":122,"x_max":1071,"o":"m 324 0 l 551 1047 l 746 1047 l 513 0 l 324 0 m 185 0 l 185 40 l 693 40 l 693 0 l 185 0 m 122 713 l 222 1047 l 1071 1047 l 1025 713 l 978 713 q 963 894 978 831 q 907 983 949 957 q 785 1008 865 1008 l 478 1008 q 313 937 397 1008 q 168 713 229 865 l 122 713 z "},"Ŧ":{"ha":964,"x_min":122,"x_max":1071,"o":"m 324 0 l 551 1047 l 746 1047 l 513 0 l 324 0 m 185 0 l 185 40 l 693 40 l 693 0 l 185 0 m 122 713 l 222 1047 l 1071 1047 l 1025 713 l 978 713 q 963 894 978 831 q 907 983 949 957 q 785 1008 865 1008 l 478 1008 q 313 937 397 1008 q 168 713 229 865 l 122 713 m 276 496 l 276 550 l 783 550 l 783 496 l 276 496 z "},"Ť":{"ha":964,"x_min":122,"x_max":1071,"o":"m 324 0 l 551 1047 l 746 1047 l 513 0 l 324 0 m 185 0 l 185 40 l 693 40 l 693 0 l 185 0 m 122 713 l 222 1047 l 1071 1047 l 1025 713 l 978 713 q 963 894 978 831 q 907 983 949 957 q 785 1008 865 1008 l 478 1008 q 313 937 397 1008 q 168 713 229 865 l 122 713 m 631 1172 l 469 1358 l 533 1358 l 696 1289 l 888 1358 l 950 1358 l 711 1172 l 631 1172 z "},"Ţ":{"ha":964,"x_min":122,"x_max":1071,"o":"m 324 0 l 551 1047 l 746 1047 l 513 0 l 324 0 m 185 0 l 185 40 l 693 40 l 693 0 l 185 0 m 122 713 l 222 1047 l 1071 1047 l 1025 713 l 978 713 q 963 894 978 831 q 907 983 949 957 q 785 1008 865 1008 l 478 1008 q 313 937 397 1008 q 168 713 229 865 l 122 713 m 311 -322 q 243 -314 269 -322 q 206 -299 217 -306 l 229 -251 q 259 -262 236 -257 q 304 -267 282 -267 q 377 -248 349 -267 q 406 -193 406 -229 q 385 -152 406 -168 q 311 -135 364 -136 l 400 14 l 457 14 l 397 -92 l 424 -92 q 508 -116 479 -92 q 538 -182 538 -140 q 501 -260 538 -229 q 413 -307 465 -292 q 311 -322 361 -322 z "},"Ț":{"ha":964,"x_min":122,"x_max":1071,"o":"m 324 0 l 551 1047 l 746 1047 l 513 0 l 324 0 m 185 0 l 185 40 l 693 40 l 693 0 l 185 0 m 122 713 l 222 1047 l 1071 1047 l 1025 713 l 978 713 q 963 894 978 831 q 907 983 949 957 q 785 1008 865 1008 l 478 1008 q 313 937 397 1008 q 168 713 229 865 l 122 713 m 283 -435 l 264 -397 q 401 -330 353 -365 q 449 -260 449 -294 q 442 -239 449 -246 q 431 -232 436 -232 q 416 -244 424 -232 q 394 -267 408 -256 q 354 -279 381 -279 q 300 -255 318 -279 q 282 -200 282 -231 q 315 -128 282 -154 q 393 -101 349 -101 q 458 -121 433 -101 q 495 -170 483 -140 q 507 -231 507 -200 q 450 -348 507 -297 q 283 -435 393 -399 z "},"Ṭ":{"ha":964,"x_min":122,"x_max":1071,"o":"m 324 0 l 551 1047 l 746 1047 l 513 0 l 324 0 m 185 0 l 185 40 l 693 40 l 693 0 l 185 0 m 122 713 l 222 1047 l 1071 1047 l 1025 713 l 978 713 q 963 894 978 831 q 907 983 949 957 q 785 1008 865 1008 l 478 1008 q 313 937 397 1008 q 168 713 229 865 l 122 713 m 369 -310 q 297 -278 328 -310 q 265 -204 265 -247 q 297 -130 265 -161 q 369 -99 328 -99 q 445 -130 414 -99 q 476 -204 476 -161 q 445 -278 476 -247 q 369 -310 414 -310 z "},"U":{"ha":1035,"x_min":164,"x_max":1165,"o":"m 503 -17 q 250 53 336 -17 q 164 239 164 122 q 167 283 164 260 q 175 332 169 307 l 329 1047 l 524 1047 l 363 332 q 353 280 357 306 q 350 233 350 254 q 404 87 350 138 q 547 36 458 36 q 728 102 650 36 q 836 304 807 168 l 996 1047 l 1047 1047 l 889 317 q 824 138 867 213 q 703 23 781 63 q 503 -17 626 -17 m 164 1008 l 164 1047 l 646 1047 l 646 1008 l 164 1008 m 843 1008 l 843 1047 l 1165 1047 l 1165 1008 l 843 1008 z "},"Ú":{"ha":1035,"x_min":164,"x_max":1165,"o":"m 503 -17 q 250 53 336 -17 q 164 239 164 122 q 167 283 164 260 q 175 332 169 307 l 329 1047 l 524 1047 l 363 332 q 353 280 357 306 q 350 233 350 254 q 404 87 350 138 q 547 36 458 36 q 728 102 650 36 q 836 304 807 168 l 996 1047 l 1047 1047 l 889 317 q 824 138 867 213 q 703 23 781 63 q 503 -17 626 -17 m 164 1008 l 164 1047 l 646 1047 l 646 1008 l 164 1008 m 843 1008 l 843 1047 l 1165 1047 l 1165 1008 l 843 1008 m 572 1172 l 815 1322 q 883 1358 857 1347 q 935 1368 908 1368 q 987 1349 968 1368 q 1006 1304 1006 1331 q 986 1257 1006 1279 q 925 1226 967 1235 l 661 1172 l 572 1172 z "},"Ŭ":{"ha":1035,"x_min":164,"x_max":1165,"o":"m 503 -17 q 250 53 336 -17 q 164 239 164 122 q 167 283 164 260 q 175 332 169 307 l 329 1047 l 524 1047 l 363 332 q 353 280 357 306 q 350 233 350 254 q 404 87 350 138 q 547 36 458 36 q 728 102 650 36 q 836 304 807 168 l 996 1047 l 1047 1047 l 889 317 q 824 138 867 213 q 703 23 781 63 q 503 -17 626 -17 m 164 1008 l 164 1047 l 646 1047 l 646 1008 l 164 1008 m 843 1008 l 843 1047 l 1165 1047 l 1165 1008 l 843 1008 m 764 1172 q 622 1219 669 1172 q 596 1360 574 1267 l 647 1360 q 660 1308 642 1326 q 710 1283 678 1289 q 781 1276 743 1276 q 862 1283 824 1276 q 926 1309 900 1290 q 961 1360 953 1328 l 1013 1360 q 926 1222 994 1271 q 764 1172 857 1172 z "},"Û":{"ha":1035,"x_min":164,"x_max":1165,"o":"m 503 -17 q 250 53 336 -17 q 164 239 164 122 q 167 283 164 260 q 175 332 169 307 l 329 1047 l 524 1047 l 363 332 q 353 280 357 306 q 350 233 350 254 q 404 87 350 138 q 547 36 458 36 q 728 102 650 36 q 836 304 807 168 l 996 1047 l 1047 1047 l 889 317 q 824 138 867 213 q 703 23 781 63 q 503 -17 626 -17 m 164 1008 l 164 1047 l 646 1047 l 646 1008 l 164 1008 m 843 1008 l 843 1047 l 1165 1047 l 1165 1008 l 843 1008 m 532 1172 l 771 1358 l 851 1358 l 1013 1172 l 949 1172 l 786 1242 l 594 1172 l 532 1172 z "},"Ȕ":{"ha":1035,"x_min":164,"x_max":1165,"o":"m 503 -17 q 250 53 336 -17 q 164 239 164 122 q 167 283 164 260 q 175 332 169 307 l 329 1047 l 524 1047 l 363 332 q 353 280 357 306 q 350 233 350 254 q 404 87 350 138 q 547 36 458 36 q 728 102 650 36 q 836 304 807 168 l 996 1047 l 1047 1047 l 889 317 q 824 138 867 213 q 703 23 781 63 q 503 -17 626 -17 m 164 1008 l 164 1047 l 646 1047 l 646 1008 l 164 1008 m 843 1008 l 843 1047 l 1165 1047 l 1165 1008 l 843 1008 m 989 1172 l 772 1225 q 724 1251 740 1233 q 708 1290 708 1269 q 728 1337 708 1317 q 782 1357 747 1357 q 829 1349 807 1357 q 886 1314 851 1340 l 1072 1172 l 989 1172 m 681 1172 l 464 1225 q 416 1251 432 1233 q 400 1290 400 1269 q 419 1337 400 1317 q 474 1357 439 1357 q 521 1349 499 1357 q 578 1314 543 1340 l 764 1172 l 681 1172 z "},"Ü":{"ha":1035,"x_min":164,"x_max":1165,"o":"m 503 -17 q 250 53 336 -17 q 164 239 164 122 q 167 283 164 260 q 175 332 169 307 l 329 1047 l 524 1047 l 363 332 q 353 280 357 306 q 350 233 350 254 q 404 87 350 138 q 547 36 458 36 q 728 102 650 36 q 836 304 807 168 l 996 1047 l 1047 1047 l 889 317 q 824 138 867 213 q 703 23 781 63 q 503 -17 626 -17 m 164 1008 l 164 1047 l 646 1047 l 646 1008 l 164 1008 m 843 1008 l 843 1047 l 1165 1047 l 1165 1008 l 843 1008 m 928 1190 q 860 1218 889 1190 q 832 1286 832 1246 q 860 1353 832 1325 q 928 1381 889 1381 q 997 1353 969 1381 q 1025 1286 1025 1326 q 997 1218 1025 1246 q 928 1190 969 1190 m 633 1190 q 565 1218 593 1190 q 538 1286 538 1246 q 565 1353 538 1325 q 633 1381 592 1381 q 701 1353 672 1381 q 731 1286 731 1326 q 701 1218 731 1246 q 633 1190 672 1190 z "},"Ụ":{"ha":1035,"x_min":164,"x_max":1165,"o":"m 503 -17 q 250 53 336 -17 q 164 239 164 122 q 167 283 164 260 q 175 332 169 307 l 329 1047 l 524 1047 l 363 332 q 353 280 357 306 q 350 233 350 254 q 404 87 350 138 q 547 36 458 36 q 728 102 650 36 q 836 304 807 168 l 996 1047 l 1047 1047 l 889 317 q 824 138 867 213 q 703 23 781 63 q 503 -17 626 -17 m 164 1008 l 164 1047 l 646 1047 l 646 1008 l 164 1008 m 843 1008 l 843 1047 l 1165 1047 l 1165 1008 l 843 1008 m 401 -310 q 328 -278 360 -310 q 297 -204 297 -247 q 328 -130 297 -161 q 401 -99 360 -99 q 477 -130 446 -99 q 508 -204 508 -161 q 477 -278 508 -247 q 401 -310 446 -310 z "},"Ù":{"ha":1035,"x_min":164,"x_max":1165,"o":"m 503 -17 q 250 53 336 -17 q 164 239 164 122 q 167 283 164 260 q 175 332 169 307 l 329 1047 l 524 1047 l 363 332 q 353 280 357 306 q 350 233 350 254 q 404 87 350 138 q 547 36 458 36 q 728 102 650 36 q 836 304 807 168 l 996 1047 l 1047 1047 l 889 317 q 824 138 867 213 q 703 23 781 63 q 503 -17 626 -17 m 164 1008 l 164 1047 l 646 1047 l 646 1008 l 164 1008 m 843 1008 l 843 1047 l 1165 1047 l 1165 1008 l 843 1008 m 892 1172 l 631 1228 q 580 1255 596 1235 q 564 1297 564 1275 q 585 1346 564 1325 q 642 1367 606 1367 q 691 1356 668 1367 q 753 1321 714 1346 l 979 1172 l 892 1172 z "},"Ủ":{"ha":1035,"x_min":164,"x_max":1165,"o":"m 503 -17 q 250 53 336 -17 q 164 239 164 122 q 167 283 164 260 q 175 332 169 307 l 329 1047 l 524 1047 l 363 332 q 353 280 357 306 q 350 233 350 254 q 404 87 350 138 q 547 36 458 36 q 728 102 650 36 q 836 304 807 168 l 996 1047 l 1047 1047 l 889 317 q 824 138 867 213 q 703 23 781 63 q 503 -17 626 -17 m 164 1008 l 164 1047 l 646 1047 l 646 1008 l 164 1008 m 843 1008 l 843 1047 l 1165 1047 l 1165 1008 l 843 1008 m 764 1143 q 785 1192 771 1174 q 815 1226 799 1211 q 842 1252 831 1240 q 854 1281 853 1264 q 845 1323 857 1310 q 806 1336 833 1336 q 760 1324 779 1336 q 739 1296 742 1311 q 742 1278 738 1282 q 752 1268 747 1274 q 754 1246 757 1263 q 735 1219 753 1228 q 697 1211 717 1211 q 661 1227 672 1211 q 651 1267 650 1243 q 679 1342 654 1314 q 742 1382 704 1369 q 817 1394 779 1394 q 912 1367 883 1394 q 938 1288 940 1339 q 919 1239 936 1257 q 881 1207 903 1221 q 839 1179 858 1193 q 813 1143 819 1165 l 764 1143 z "},"Ư":{"ha":1035,"x_min":164,"x_max":1274,"o":"m 503 -17 q 250 53 336 -17 q 164 239 164 122 q 167 283 164 260 q 175 332 169 307 l 329 1047 l 524 1047 l 363 332 q 353 280 357 306 q 350 233 350 254 q 404 87 350 138 q 547 36 458 36 q 728 102 650 36 q 836 304 807 168 l 996 1047 l 1047 1047 l 889 317 q 824 138 867 213 q 703 23 781 63 q 503 -17 626 -17 m 164 1008 l 164 1047 l 646 1047 l 646 1008 l 164 1008 m 843 1008 l 843 1047 l 1165 1047 l 1165 1008 l 843 1008 m 1025 1000 l 1032 1047 q 1133 1074 1106 1047 q 1174 1157 1160 1100 l 1274 1157 q 1234 1057 1263 1092 q 1155 1011 1206 1022 q 1025 1000 1104 1000 z "},"Ứ":{"ha":1035,"x_min":164,"x_max":1274,"o":"m 503 -17 q 250 53 336 -17 q 164 239 164 122 q 167 283 164 260 q 175 332 169 307 l 329 1047 l 524 1047 l 363 332 q 353 280 357 306 q 350 233 350 254 q 404 87 350 138 q 547 36 458 36 q 728 102 650 36 q 836 304 807 168 l 996 1047 l 1047 1047 l 889 317 q 824 138 867 213 q 703 23 781 63 q 503 -17 626 -17 m 164 1008 l 164 1047 l 646 1047 l 646 1008 l 164 1008 m 843 1008 l 843 1047 l 1165 1047 l 1165 1008 l 843 1008 m 1025 1000 l 1032 1047 q 1133 1074 1106 1047 q 1174 1157 1160 1100 l 1274 1157 q 1234 1057 1263 1092 q 1155 1011 1206 1022 q 1025 1000 1104 1000 m 514 1144 l 757 1294 q 824 1330 799 1319 q 876 1340 850 1340 q 928 1322 910 1340 q 947 1276 947 1303 q 928 1229 947 1251 q 867 1199 908 1207 l 603 1144 l 514 1144 z "},"Ự":{"ha":1035,"x_min":164,"x_max":1274,"o":"m 503 -17 q 250 53 336 -17 q 164 239 164 122 q 167 283 164 260 q 175 332 169 307 l 329 1047 l 524 1047 l 363 332 q 353 280 357 306 q 350 233 350 254 q 404 87 350 138 q 547 36 458 36 q 728 102 650 36 q 836 304 807 168 l 996 1047 l 1047 1047 l 889 317 q 824 138 867 213 q 703 23 781 63 q 503 -17 626 -17 m 164 1008 l 164 1047 l 646 1047 l 646 1008 l 164 1008 m 843 1008 l 843 1047 l 1165 1047 l 1165 1008 l 843 1008 m 1025 1000 l 1032 1047 q 1133 1074 1106 1047 q 1174 1157 1160 1100 l 1274 1157 q 1234 1057 1263 1092 q 1155 1011 1206 1022 q 1025 1000 1104 1000 m 397 -310 q 324 -278 356 -310 q 293 -204 293 -247 q 324 -130 293 -161 q 397 -99 356 -99 q 473 -130 442 -99 q 504 -204 504 -161 q 473 -278 504 -247 q 397 -310 442 -310 z "},"Ừ":{"ha":1035,"x_min":164,"x_max":1274,"o":"m 503 -17 q 250 53 336 -17 q 164 239 164 122 q 167 283 164 260 q 175 332 169 307 l 329 1047 l 524 1047 l 363 332 q 353 280 357 306 q 350 233 350 254 q 404 87 350 138 q 547 36 458 36 q 728 102 650 36 q 836 304 807 168 l 996 1047 l 1047 1047 l 889 317 q 824 138 867 213 q 703 23 781 63 q 503 -17 626 -17 m 164 1008 l 164 1047 l 646 1047 l 646 1008 l 164 1008 m 843 1008 l 843 1047 l 1165 1047 l 1165 1008 l 843 1008 m 1025 1000 l 1032 1047 q 1133 1074 1106 1047 q 1174 1157 1160 1100 l 1274 1157 q 1234 1057 1263 1092 q 1155 1011 1206 1022 q 1025 1000 1104 1000 m 832 1172 l 571 1228 q 520 1255 536 1235 q 504 1297 504 1275 q 525 1346 504 1325 q 582 1367 546 1367 q 631 1356 608 1367 q 693 1321 654 1346 l 919 1172 l 832 1172 z "},"Ử":{"ha":1035,"x_min":164,"x_max":1274,"o":"m 503 -17 q 250 53 336 -17 q 164 239 164 122 q 167 283 164 260 q 175 332 169 307 l 329 1047 l 524 1047 l 363 332 q 353 280 357 306 q 350 233 350 254 q 404 87 350 138 q 547 36 458 36 q 728 102 650 36 q 836 304 807 168 l 996 1047 l 1047 1047 l 889 317 q 824 138 867 213 q 703 23 781 63 q 503 -17 626 -17 m 164 1008 l 164 1047 l 646 1047 l 646 1008 l 164 1008 m 843 1008 l 843 1047 l 1165 1047 l 1165 1008 l 843 1008 m 1025 1000 l 1032 1047 q 1133 1074 1106 1047 q 1174 1157 1160 1100 l 1274 1157 q 1234 1057 1263 1092 q 1155 1011 1206 1022 q 1025 1000 1104 1000 m 706 1143 q 726 1192 713 1174 q 756 1226 740 1211 q 783 1252 772 1240 q 796 1281 794 1264 q 787 1323 799 1310 q 747 1336 775 1336 q 702 1324 721 1336 q 681 1296 683 1311 q 684 1278 679 1282 q 694 1268 689 1274 q 696 1246 699 1263 q 676 1219 694 1228 q 639 1211 658 1211 q 603 1227 614 1211 q 593 1267 592 1243 q 621 1342 596 1314 q 683 1382 646 1369 q 758 1394 721 1394 q 853 1367 825 1394 q 879 1288 882 1339 q 861 1239 878 1257 q 822 1207 844 1221 q 781 1179 800 1193 q 754 1143 761 1165 l 706 1143 z "},"Ữ":{"ha":1035,"x_min":164,"x_max":1274,"o":"m 503 -17 q 250 53 336 -17 q 164 239 164 122 q 167 283 164 260 q 175 332 169 307 l 329 1047 l 524 1047 l 363 332 q 353 280 357 306 q 350 233 350 254 q 404 87 350 138 q 547 36 458 36 q 728 102 650 36 q 836 304 807 168 l 996 1047 l 1047 1047 l 889 317 q 824 138 867 213 q 703 23 781 63 q 503 -17 626 -17 m 164 1008 l 164 1047 l 646 1047 l 646 1008 l 164 1008 m 843 1008 l 843 1047 l 1165 1047 l 1165 1008 l 843 1008 m 1025 1000 l 1032 1047 q 1133 1074 1106 1047 q 1174 1157 1160 1100 l 1274 1157 q 1234 1057 1263 1092 q 1155 1011 1206 1022 q 1025 1000 1104 1000 m 472 1171 q 514 1262 488 1221 q 579 1328 540 1303 q 667 1353 618 1353 q 736 1337 710 1353 q 788 1305 763 1321 q 846 1289 813 1289 q 916 1312 888 1289 q 956 1354 944 1335 l 1004 1354 q 926 1221 976 1269 q 808 1172 876 1172 q 738 1188 765 1172 q 687 1220 711 1204 q 626 1236 663 1236 q 560 1217 589 1236 q 519 1171 532 1199 l 472 1171 z "},"Ű":{"ha":1035,"x_min":164,"x_max":1165,"o":"m 503 -17 q 250 53 336 -17 q 164 239 164 122 q 167 283 164 260 q 175 332 169 307 l 329 1047 l 524 1047 l 363 332 q 353 280 357 306 q 350 233 350 254 q 404 87 350 138 q 547 36 458 36 q 728 102 650 36 q 836 304 807 168 l 996 1047 l 1047 1047 l 889 317 q 824 138 867 213 q 703 23 781 63 q 503 -17 626 -17 m 164 1008 l 164 1047 l 646 1047 l 646 1008 l 164 1008 m 843 1008 l 843 1047 l 1165 1047 l 1165 1008 l 843 1008 m 736 1172 l 940 1321 q 1000 1353 975 1346 q 1050 1361 1025 1361 q 1098 1344 1081 1361 q 1115 1301 1115 1326 q 1097 1258 1115 1278 q 1039 1228 1079 1238 l 818 1172 l 736 1172 m 426 1172 l 632 1321 q 691 1353 665 1346 q 740 1361 717 1361 q 790 1344 772 1361 q 807 1301 807 1326 q 788 1258 807 1278 q 729 1228 769 1238 l 508 1172 l 426 1172 z "},"Ȗ":{"ha":1035,"x_min":164,"x_max":1165,"o":"m 503 -17 q 250 53 336 -17 q 164 239 164 122 q 167 283 164 260 q 175 332 169 307 l 329 1047 l 524 1047 l 363 332 q 353 280 357 306 q 350 233 350 254 q 404 87 350 138 q 547 36 458 36 q 728 102 650 36 q 836 304 807 168 l 996 1047 l 1047 1047 l 889 317 q 824 138 867 213 q 703 23 781 63 q 503 -17 626 -17 m 164 1008 l 164 1047 l 646 1047 l 646 1008 l 164 1008 m 843 1008 l 843 1047 l 1165 1047 l 1165 1008 l 843 1008 m 554 1172 q 638 1315 572 1261 q 801 1368 703 1368 q 932 1332 885 1368 q 979 1226 979 1296 q 972 1172 979 1203 l 919 1172 q 889 1244 928 1222 q 786 1265 850 1265 q 667 1243 715 1265 q 607 1172 618 1221 l 554 1172 z "},"Ū":{"ha":1035,"x_min":164,"x_max":1165,"o":"m 503 -17 q 250 53 336 -17 q 164 239 164 122 q 167 283 164 260 q 175 332 169 307 l 329 1047 l 524 1047 l 363 332 q 353 280 357 306 q 350 233 350 254 q 404 87 350 138 q 547 36 458 36 q 728 102 650 36 q 836 304 807 168 l 996 1047 l 1047 1047 l 889 317 q 824 138 867 213 q 703 23 781 63 q 503 -17 626 -17 m 164 1008 l 164 1047 l 646 1047 l 646 1008 l 164 1008 m 843 1008 l 843 1047 l 1165 1047 l 1165 1008 l 843 1008 m 558 1203 l 583 1314 l 1046 1314 l 1021 1203 l 558 1203 z "},"Ų":{"ha":1035,"x_min":164,"x_max":1165,"o":"m 503 -17 q 250 53 336 -17 q 164 239 164 122 q 167 283 164 260 q 175 332 169 307 l 329 1047 l 524 1047 l 363 332 q 353 280 357 306 q 350 233 350 254 q 404 87 350 138 q 547 36 458 36 q 728 102 650 36 q 836 304 807 168 l 996 1047 l 1047 1047 l 889 317 q 824 138 867 213 q 703 23 781 63 q 503 -17 626 -17 m 164 1008 l 164 1047 l 646 1047 l 646 1008 l 164 1008 m 843 1008 l 843 1047 l 1165 1047 l 1165 1008 l 843 1008 m 389 -339 q 303 -315 335 -339 q 271 -247 271 -290 q 336 -125 271 -189 q 533 7 401 -61 l 593 4 q 449 -103 503 -46 q 396 -208 396 -160 q 413 -249 396 -235 q 458 -264 429 -264 q 500 -257 476 -264 q 556 -235 524 -250 l 575 -271 q 492 -319 546 -300 q 389 -339 439 -339 z "},"Ů":{"ha":1035,"x_min":164,"x_max":1165,"o":"m 503 -17 q 250 53 336 -17 q 164 239 164 122 q 167 283 164 260 q 175 332 169 307 l 329 1047 l 524 1047 l 363 332 q 353 280 357 306 q 350 233 350 254 q 404 87 350 138 q 547 36 458 36 q 728 102 650 36 q 836 304 807 168 l 996 1047 l 1047 1047 l 889 317 q 824 138 867 213 q 703 23 781 63 q 503 -17 626 -17 m 164 1008 l 164 1047 l 646 1047 l 646 1008 l 164 1008 m 843 1008 l 843 1047 l 1165 1047 l 1165 1008 l 843 1008 m 779 1168 q 707 1196 735 1168 q 679 1268 679 1224 q 707 1340 679 1313 q 779 1367 735 1367 q 851 1340 824 1367 q 879 1268 879 1314 q 851 1196 879 1224 q 779 1168 824 1168 m 779 1211 q 817 1227 804 1211 q 831 1267 831 1243 q 817 1307 831 1292 q 779 1322 803 1322 q 741 1307 756 1322 q 726 1267 726 1292 q 741 1227 726 1243 q 779 1211 756 1211 z "},"Ũ":{"ha":1035,"x_min":164,"x_max":1165,"o":"m 503 -17 q 250 53 336 -17 q 164 239 164 122 q 167 283 164 260 q 175 332 169 307 l 329 1047 l 524 1047 l 363 332 q 353 280 357 306 q 350 233 350 254 q 404 87 350 138 q 547 36 458 36 q 728 102 650 36 q 836 304 807 168 l 996 1047 l 1047 1047 l 889 317 q 824 138 867 213 q 703 23 781 63 q 503 -17 626 -17 m 164 1008 l 164 1047 l 646 1047 l 646 1008 l 164 1008 m 843 1008 l 843 1047 l 1165 1047 l 1165 1008 l 843 1008 m 532 1171 q 574 1262 547 1221 q 639 1328 600 1303 q 726 1353 678 1353 q 796 1337 769 1353 q 847 1305 822 1321 q 906 1289 872 1289 q 976 1312 947 1289 q 1015 1354 1004 1335 l 1064 1354 q 986 1221 1036 1269 q 868 1172 936 1172 q 798 1188 825 1172 q 747 1220 771 1204 q 686 1236 722 1236 q 620 1217 649 1236 q 579 1171 592 1199 l 532 1171 z "},"V":{"ha":832,"x_min":142,"x_max":1085,"o":"m 222 -17 l 406 297 l 933 1019 l 986 1019 l 235 -17 l 222 -17 m 193 -17 l 251 1033 l 458 1033 l 404 303 l 410 303 l 232 -17 l 193 -17 m 142 1008 l 142 1047 l 561 1047 l 561 1008 l 142 1008 m 782 1008 l 782 1047 l 1085 1047 l 1085 1008 l 782 1008 z "},"W":{"ha":1257,"x_min":111,"x_max":1490,"o":"m 606 -17 l 786 285 l 1354 1019 l 1406 1019 l 617 -17 l 606 -17 m 197 -17 l 382 282 l 647 604 l 674 571 l 208 -17 l 197 -17 m 168 -17 l 226 1033 l 433 1033 l 381 288 l 386 288 l 207 -17 l 168 -17 m 571 -17 l 629 1033 l 836 1033 l 782 288 l 788 288 l 610 -17 l 571 -17 m 111 1008 l 111 1047 l 1133 1047 l 1133 1008 l 111 1008 m 775 646 l 749 685 l 1007 1021 l 1057 1021 l 775 646 m 1188 1008 l 1188 1047 l 1490 1047 l 1490 1008 l 1188 1008 z "},"Ẃ":{"ha":1257,"x_min":111,"x_max":1490,"o":"m 606 -17 l 786 285 l 1354 1019 l 1406 1019 l 617 -17 l 606 -17 m 197 -17 l 382 282 l 647 604 l 674 571 l 208 -17 l 197 -17 m 168 -17 l 226 1033 l 433 1033 l 381 288 l 386 288 l 207 -17 l 168 -17 m 571 -17 l 629 1033 l 836 1033 l 782 288 l 788 288 l 610 -17 l 571 -17 m 111 1008 l 111 1047 l 1133 1047 l 1133 1008 l 111 1008 m 775 646 l 749 685 l 1007 1021 l 1057 1021 l 775 646 m 1188 1008 l 1188 1047 l 1490 1047 l 1490 1008 l 1188 1008 m 624 1172 l 867 1322 q 934 1358 908 1347 q 986 1368 960 1368 q 1038 1349 1019 1368 q 1057 1304 1057 1331 q 1038 1257 1057 1279 q 976 1226 1018 1235 l 713 1172 l 624 1172 z "},"Ŵ":{"ha":1257,"x_min":111,"x_max":1490,"o":"m 606 -17 l 786 285 l 1354 1019 l 1406 1019 l 617 -17 l 606 -17 m 197 -17 l 382 282 l 647 604 l 674 571 l 208 -17 l 197 -17 m 168 -17 l 226 1033 l 433 1033 l 381 288 l 386 288 l 207 -17 l 168 -17 m 571 -17 l 629 1033 l 836 1033 l 782 288 l 788 288 l 610 -17 l 571 -17 m 111 1008 l 111 1047 l 1133 1047 l 1133 1008 l 111 1008 m 775 646 l 749 685 l 1007 1021 l 1057 1021 l 775 646 m 1188 1008 l 1188 1047 l 1490 1047 l 1490 1008 l 1188 1008 m 583 1172 l 822 1358 l 903 1358 l 1064 1172 l 1000 1172 l 838 1242 l 646 1172 l 583 1172 z "},"Ẅ":{"ha":1257,"x_min":111,"x_max":1490,"o":"m 606 -17 l 786 285 l 1354 1019 l 1406 1019 l 617 -17 l 606 -17 m 197 -17 l 382 282 l 647 604 l 674 571 l 208 -17 l 197 -17 m 168 -17 l 226 1033 l 433 1033 l 381 288 l 386 288 l 207 -17 l 168 -17 m 571 -17 l 629 1033 l 836 1033 l 782 288 l 788 288 l 610 -17 l 571 -17 m 111 1008 l 111 1047 l 1133 1047 l 1133 1008 l 111 1008 m 775 646 l 749 685 l 1007 1021 l 1057 1021 l 775 646 m 1188 1008 l 1188 1047 l 1490 1047 l 1490 1008 l 1188 1008 m 979 1190 q 912 1218 940 1190 q 883 1286 883 1246 q 912 1353 883 1325 q 979 1381 940 1381 q 1049 1353 1021 1381 q 1076 1286 1076 1326 q 1049 1218 1076 1246 q 979 1190 1021 1190 m 685 1190 q 617 1218 644 1190 q 589 1286 589 1246 q 616 1353 589 1325 q 685 1381 643 1381 q 753 1353 724 1381 q 782 1286 782 1326 q 753 1218 782 1246 q 685 1190 724 1190 z "},"Ẁ":{"ha":1257,"x_min":111,"x_max":1490,"o":"m 606 -17 l 786 285 l 1354 1019 l 1406 1019 l 617 -17 l 606 -17 m 197 -17 l 382 282 l 647 604 l 674 571 l 208 -17 l 197 -17 m 168 -17 l 226 1033 l 433 1033 l 381 288 l 386 288 l 207 -17 l 168 -17 m 571 -17 l 629 1033 l 836 1033 l 782 288 l 788 288 l 610 -17 l 571 -17 m 111 1008 l 111 1047 l 1133 1047 l 1133 1008 l 111 1008 m 775 646 l 749 685 l 1007 1021 l 1057 1021 l 775 646 m 1188 1008 l 1188 1047 l 1490 1047 l 1490 1008 l 1188 1008 m 943 1172 l 682 1228 q 631 1255 647 1235 q 615 1297 615 1275 q 636 1346 615 1325 q 693 1367 657 1367 q 742 1356 719 1367 q 804 1321 765 1346 l 1031 1172 l 943 1172 z "},"X":{"ha":867,"x_min":-75,"x_max":1018,"o":"m 586 0 l 189 1047 l 400 1047 l 792 0 l 586 0 m -75 0 l -75 39 l 282 39 l 282 0 l -75 0 m 49 28 l 447 540 l 504 540 l 424 433 l 418 433 l 103 28 l 49 28 m 447 0 l 447 39 l 904 39 l 904 0 l 447 0 m 88 1008 l 88 1047 l 531 1047 l 531 1008 l 88 1008 m 474 561 l 544 657 l 550 657 l 843 1019 l 892 1019 l 525 561 l 474 561 m 678 1008 l 678 1047 l 1018 1047 l 1018 1008 l 678 1008 z "},"Y":{"ha":869,"x_min":82,"x_max":1064,"o":"m 408 426 l 186 1047 l 388 1047 l 594 492 l 408 426 m 511 425 l 581 526 l 586 526 l 908 1019 l 957 1019 l 571 425 l 511 425 m 297 0 l 404 496 l 597 496 l 486 0 l 297 0 m 147 0 l 147 40 l 661 40 l 661 0 l 147 0 m 82 1008 l 82 1047 l 564 1047 l 564 1008 l 82 1008 m 743 1008 l 743 1047 l 1064 1047 l 1064 1008 l 743 1008 z "},"Ý":{"ha":869,"x_min":82,"x_max":1064,"o":"m 408 426 l 186 1047 l 388 1047 l 594 492 l 408 426 m 511 425 l 581 526 l 586 526 l 908 1019 l 957 1019 l 571 425 l 511 425 m 297 0 l 404 496 l 597 496 l 486 0 l 297 0 m 147 0 l 147 40 l 661 40 l 661 0 l 147 0 m 82 1008 l 82 1047 l 564 1047 l 564 1008 l 82 1008 m 743 1008 l 743 1047 l 1064 1047 l 1064 1008 l 743 1008 m 431 1172 l 674 1322 q 741 1358 715 1347 q 793 1368 767 1368 q 845 1349 826 1368 q 864 1304 864 1331 q 844 1257 864 1279 q 783 1226 825 1235 l 519 1172 l 431 1172 z "},"Ŷ":{"ha":869,"x_min":82,"x_max":1064,"o":"m 408 426 l 186 1047 l 388 1047 l 594 492 l 408 426 m 511 425 l 581 526 l 586 526 l 908 1019 l 957 1019 l 571 425 l 511 425 m 297 0 l 404 496 l 597 496 l 486 0 l 297 0 m 147 0 l 147 40 l 661 40 l 661 0 l 147 0 m 82 1008 l 82 1047 l 564 1047 l 564 1008 l 82 1008 m 743 1008 l 743 1047 l 1064 1047 l 1064 1008 l 743 1008 m 390 1172 l 629 1358 l 710 1358 l 871 1172 l 807 1172 l 644 1242 l 453 1172 l 390 1172 z "},"Ÿ":{"ha":869,"x_min":82,"x_max":1064,"o":"m 408 426 l 186 1047 l 388 1047 l 594 492 l 408 426 m 511 425 l 581 526 l 586 526 l 908 1019 l 957 1019 l 571 425 l 511 425 m 297 0 l 404 496 l 597 496 l 486 0 l 297 0 m 147 0 l 147 40 l 661 40 l 661 0 l 147 0 m 82 1008 l 82 1047 l 564 1047 l 564 1008 l 82 1008 m 743 1008 l 743 1047 l 1064 1047 l 1064 1008 l 743 1008 m 786 1190 q 719 1218 747 1190 q 690 1286 690 1246 q 719 1353 690 1325 q 786 1381 747 1381 q 856 1353 828 1381 q 883 1286 883 1326 q 856 1218 883 1246 q 786 1190 828 1190 m 492 1190 q 424 1218 451 1190 q 396 1286 396 1246 q 423 1353 396 1325 q 492 1381 450 1381 q 560 1353 531 1381 q 589 1286 589 1326 q 560 1218 589 1246 q 492 1190 531 1190 z "},"Ỵ":{"ha":869,"x_min":82,"x_max":1064,"o":"m 408 426 l 186 1047 l 388 1047 l 594 492 l 408 426 m 511 425 l 581 526 l 586 526 l 908 1019 l 957 1019 l 571 425 l 511 425 m 297 0 l 404 496 l 597 496 l 486 0 l 297 0 m 147 0 l 147 40 l 661 40 l 661 0 l 147 0 m 82 1008 l 82 1047 l 564 1047 l 564 1008 l 82 1008 m 743 1008 l 743 1047 l 1064 1047 l 1064 1008 l 743 1008 m 314 -310 q 241 -278 272 -310 q 210 -204 210 -247 q 241 -130 210 -161 q 314 -99 272 -99 q 390 -130 358 -99 q 421 -204 421 -161 q 390 -278 421 -247 q 314 -310 358 -310 z "},"Ỳ":{"ha":869,"x_min":82,"x_max":1064,"o":"m 408 426 l 186 1047 l 388 1047 l 594 492 l 408 426 m 511 425 l 581 526 l 586 526 l 908 1019 l 957 1019 l 571 425 l 511 425 m 297 0 l 404 496 l 597 496 l 486 0 l 297 0 m 147 0 l 147 40 l 661 40 l 661 0 l 147 0 m 82 1008 l 82 1047 l 564 1047 l 564 1008 l 82 1008 m 743 1008 l 743 1047 l 1064 1047 l 1064 1008 l 743 1008 m 750 1172 l 489 1228 q 438 1255 454 1235 q 422 1297 422 1275 q 443 1346 422 1325 q 500 1367 464 1367 q 549 1356 526 1367 q 611 1321 572 1346 l 838 1172 l 750 1172 z "},"Ỷ":{"ha":869,"x_min":82,"x_max":1064,"o":"m 408 426 l 186 1047 l 388 1047 l 594 492 l 408 426 m 511 425 l 581 526 l 586 526 l 908 1019 l 957 1019 l 571 425 l 511 425 m 297 0 l 404 496 l 597 496 l 486 0 l 297 0 m 147 0 l 147 40 l 661 40 l 661 0 l 147 0 m 82 1008 l 82 1047 l 564 1047 l 564 1008 l 82 1008 m 743 1008 l 743 1047 l 1064 1047 l 1064 1008 l 743 1008 m 622 1143 q 643 1192 629 1174 q 673 1226 657 1211 q 700 1252 689 1240 q 713 1281 711 1264 q 703 1323 715 1310 q 664 1336 692 1336 q 619 1324 638 1336 q 597 1296 600 1311 q 601 1278 596 1282 q 610 1268 606 1274 q 613 1246 615 1263 q 593 1219 611 1228 q 556 1211 575 1211 q 519 1227 531 1211 q 510 1267 508 1243 q 538 1342 513 1314 q 600 1382 563 1369 q 675 1394 638 1394 q 770 1367 742 1394 q 796 1288 799 1339 q 778 1239 794 1257 q 739 1207 761 1221 q 697 1179 717 1193 q 671 1143 678 1165 l 622 1143 z "},"Ỹ":{"ha":869,"x_min":82,"x_max":1064,"o":"m 408 426 l 186 1047 l 388 1047 l 594 492 l 408 426 m 511 425 l 581 526 l 586 526 l 908 1019 l 957 1019 l 571 425 l 511 425 m 297 0 l 404 496 l 597 496 l 486 0 l 297 0 m 147 0 l 147 40 l 661 40 l 661 0 l 147 0 m 82 1008 l 82 1047 l 564 1047 l 564 1008 l 82 1008 m 743 1008 l 743 1047 l 1064 1047 l 1064 1008 l 743 1008 m 390 1171 q 432 1262 406 1221 q 497 1328 458 1303 q 585 1353 536 1353 q 654 1337 628 1353 q 706 1305 681 1321 q 764 1289 731 1289 q 834 1312 806 1289 q 874 1354 863 1335 l 922 1354 q 844 1221 894 1269 q 726 1172 794 1172 q 656 1188 683 1172 q 605 1220 629 1204 q 544 1236 581 1236 q 478 1217 507 1236 q 438 1171 450 1199 l 390 1171 z "},"Z":{"ha":919,"x_min":3,"x_max":992,"o":"m 3 39 l 760 1003 l 760 1008 l 992 1008 l 244 46 l 244 39 l 3 39 m 3 0 l 3 39 l 486 39 q 600 63 549 39 q 700 147 651 86 q 801 322 749 207 l 853 322 l 769 0 l 3 0 m 204 744 l 290 1047 l 992 1047 l 992 1008 l 551 1008 q 444 982 497 1008 q 342 898 390 956 q 251 744 293 840 l 204 744 z "},"Ź":{"ha":919,"x_min":3,"x_max":992,"o":"m 3 39 l 760 1003 l 760 1008 l 992 1008 l 244 46 l 244 39 l 3 39 m 3 0 l 3 39 l 486 39 q 600 63 549 39 q 700 147 651 86 q 801 322 749 207 l 853 322 l 769 0 l 3 0 m 204 744 l 290 1047 l 992 1047 l 992 1008 l 551 1008 q 444 982 497 1008 q 342 898 390 956 q 251 744 293 840 l 204 744 m 457 1172 l 700 1322 q 767 1358 742 1347 q 819 1368 793 1368 q 872 1349 853 1368 q 890 1304 890 1331 q 871 1257 890 1279 q 810 1226 851 1235 l 546 1172 l 457 1172 z "},"Ž":{"ha":919,"x_min":3,"x_max":992,"o":"m 3 39 l 760 1003 l 760 1008 l 992 1008 l 244 46 l 244 39 l 3 39 m 3 0 l 3 39 l 486 39 q 600 63 549 39 q 700 147 651 86 q 801 322 749 207 l 853 322 l 769 0 l 3 0 m 204 744 l 290 1047 l 992 1047 l 992 1008 l 551 1008 q 444 982 497 1008 q 342 898 390 956 q 251 744 293 840 l 204 744 m 608 1172 l 447 1358 l 511 1358 l 674 1289 l 865 1358 l 928 1358 l 689 1172 l 608 1172 z "},"Ż":{"ha":919,"x_min":3,"x_max":992,"o":"m 3 39 l 760 1003 l 760 1008 l 992 1008 l 244 46 l 244 39 l 3 39 m 3 0 l 3 39 l 486 39 q 600 63 549 39 q 700 147 651 86 q 801 322 749 207 l 853 322 l 769 0 l 3 0 m 204 744 l 290 1047 l 992 1047 l 992 1008 l 551 1008 q 444 982 497 1008 q 342 898 390 956 q 251 744 293 840 l 204 744 m 643 1154 q 569 1185 600 1154 q 538 1258 538 1217 q 569 1334 538 1303 q 643 1365 600 1365 q 719 1334 688 1365 q 750 1258 750 1303 q 719 1185 750 1217 q 643 1154 688 1154 z "},"Ẓ":{"ha":919,"x_min":3,"x_max":992,"o":"m 3 39 l 760 1003 l 760 1008 l 992 1008 l 244 46 l 244 39 l 3 39 m 3 0 l 3 39 l 486 39 q 600 63 549 39 q 700 147 651 86 q 801 322 749 207 l 853 322 l 769 0 l 3 0 m 204 744 l 290 1047 l 992 1047 l 992 1008 l 551 1008 q 444 982 497 1008 q 342 898 390 956 q 251 744 293 840 l 204 744 m 340 -310 q 267 -278 299 -310 q 236 -204 236 -247 q 267 -130 236 -161 q 340 -99 299 -99 q 416 -130 385 -99 q 447 -204 447 -161 q 416 -278 447 -247 q 340 -310 385 -310 z "},"a":{"ha":799,"x_min":47,"x_max":815,"o":"m 269 -17 q 160 13 211 -17 q 78 99 108 43 q 47 233 47 156 q 80 388 47 314 q 167 518 113 461 q 287 608 221 575 q 421 642 353 642 q 508 616 476 642 q 560 542 540 590 l 568 542 l 538 415 q 540 441 539 429 q 542 464 542 453 q 513 556 542 519 q 446 592 483 592 q 376 565 408 592 q 317 491 344 538 q 270 388 290 444 q 240 269 250 331 q 229 153 229 208 q 246 63 229 90 q 297 36 263 36 q 367 58 329 36 q 442 132 406 81 q 504 271 479 183 l 468 97 l 460 97 q 383 18 432 53 q 269 -17 333 -17 m 582 -17 q 524 -4 550 -17 q 483 35 499 8 q 468 103 468 61 q 472 143 468 121 q 488 213 475 165 l 588 625 l 757 625 l 642 149 q 633 104 636 122 q 631 78 631 86 q 650 51 631 51 q 708 90 671 51 q 783 219 746 128 l 815 207 q 764 100 797 151 q 685 16 731 49 q 582 -17 639 -17 z "},"á":{"ha":799,"x_min":47,"x_max":818,"o":"m 269 -17 q 160 13 211 -17 q 78 99 108 43 q 47 233 47 156 q 80 388 47 314 q 167 518 113 461 q 287 608 221 575 q 421 642 353 642 q 508 616 476 642 q 560 542 540 590 l 568 542 l 538 415 q 540 441 539 429 q 542 464 542 453 q 513 556 542 519 q 446 592 483 592 q 376 565 408 592 q 317 491 344 538 q 270 388 290 444 q 240 269 250 331 q 229 153 229 208 q 246 63 229 90 q 297 36 263 36 q 367 58 329 36 q 442 132 406 81 q 504 271 479 183 l 468 97 l 460 97 q 383 18 432 53 q 269 -17 333 -17 m 582 -17 q 524 -4 550 -17 q 483 35 499 8 q 468 103 468 61 q 472 143 468 121 q 488 213 475 165 l 588 625 l 757 625 l 642 149 q 633 104 636 122 q 631 78 631 86 q 650 51 631 51 q 708 90 671 51 q 783 219 746 128 l 815 207 q 764 100 797 151 q 685 16 731 49 q 582 -17 639 -17 m 432 728 l 635 949 q 696 999 671 988 q 743 1011 721 1011 q 800 990 782 1011 q 818 940 818 968 q 803 898 818 917 q 753 860 789 879 l 508 728 l 432 728 z "},"ă":{"ha":799,"x_min":47,"x_max":815,"o":"m 269 -17 q 160 13 211 -17 q 78 99 108 43 q 47 233 47 156 q 80 388 47 314 q 167 518 113 461 q 287 608 221 575 q 421 642 353 642 q 508 616 476 642 q 560 542 540 590 l 568 542 l 538 415 q 540 441 539 429 q 542 464 542 453 q 513 556 542 519 q 446 592 483 592 q 376 565 408 592 q 317 491 344 538 q 270 388 290 444 q 240 269 250 331 q 229 153 229 208 q 246 63 229 90 q 297 36 263 36 q 367 58 329 36 q 442 132 406 81 q 504 271 479 183 l 468 97 l 460 97 q 383 18 432 53 q 269 -17 333 -17 m 582 -17 q 524 -4 550 -17 q 483 35 499 8 q 468 103 468 61 q 472 143 468 121 q 488 213 475 165 l 588 625 l 757 625 l 642 149 q 633 104 636 122 q 631 78 631 86 q 650 51 631 51 q 708 90 671 51 q 783 219 746 128 l 815 207 q 764 100 797 151 q 685 16 731 49 q 582 -17 639 -17 m 478 728 q 340 774 390 728 q 290 900 290 821 q 292 931 290 914 q 297 964 293 947 l 354 964 q 353 955 353 960 q 353 946 353 950 q 394 876 353 897 q 500 854 436 854 q 620 880 568 854 q 690 964 672 906 l 750 964 q 699 844 735 897 q 608 759 663 790 q 478 728 553 728 z "},"ắ":{"ha":799,"x_min":47,"x_max":886,"o":"m 269 -17 q 160 13 211 -17 q 78 99 108 43 q 47 233 47 156 q 80 388 47 314 q 167 518 113 461 q 287 608 221 575 q 421 642 353 642 q 508 616 476 642 q 560 542 540 590 l 568 542 l 538 415 q 540 441 539 429 q 542 464 542 453 q 513 556 542 519 q 446 592 483 592 q 376 565 408 592 q 317 491 344 538 q 270 388 290 444 q 240 269 250 331 q 229 153 229 208 q 246 63 229 90 q 297 36 263 36 q 367 58 329 36 q 442 132 406 81 q 504 271 479 183 l 468 97 l 460 97 q 383 18 432 53 q 269 -17 333 -17 m 582 -17 q 524 -4 550 -17 q 483 35 499 8 q 468 103 468 61 q 472 143 468 121 q 488 213 475 165 l 588 625 l 757 625 l 642 149 q 633 104 636 122 q 631 78 631 86 q 650 51 631 51 q 708 90 671 51 q 783 219 746 128 l 815 207 q 764 100 797 151 q 685 16 731 49 q 582 -17 639 -17 m 500 732 q 365 776 410 732 q 342 910 321 819 l 393 910 q 403 860 388 876 q 451 838 419 843 q 518 832 482 832 q 595 838 560 832 q 656 861 631 844 q 688 910 681 878 l 738 910 q 656 777 721 822 q 500 732 592 732 m 454 956 l 697 1106 q 764 1141 739 1131 q 815 1151 789 1151 q 869 1133 850 1151 q 888 1088 888 1114 q 868 1040 888 1063 q 806 1010 849 1018 l 542 956 l 454 956 z "},"ặ":{"ha":799,"x_min":47,"x_max":815,"o":"m 269 -17 q 160 13 211 -17 q 78 99 108 43 q 47 233 47 156 q 80 388 47 314 q 167 518 113 461 q 287 608 221 575 q 421 642 353 642 q 508 616 476 642 q 560 542 540 590 l 568 542 l 538 415 q 540 441 539 429 q 542 464 542 453 q 513 556 542 519 q 446 592 483 592 q 376 565 408 592 q 317 491 344 538 q 270 388 290 444 q 240 269 250 331 q 229 153 229 208 q 246 63 229 90 q 297 36 263 36 q 367 58 329 36 q 442 132 406 81 q 504 271 479 183 l 468 97 l 460 97 q 383 18 432 53 q 269 -17 333 -17 m 582 -17 q 524 -4 550 -17 q 483 35 499 8 q 468 103 468 61 q 472 143 468 121 q 488 213 475 165 l 588 625 l 757 625 l 642 149 q 633 104 636 122 q 631 78 631 86 q 650 51 631 51 q 708 90 671 51 q 783 219 746 128 l 815 207 q 764 100 797 151 q 685 16 731 49 q 582 -17 639 -17 m 279 -310 q 206 -278 238 -310 q 175 -204 175 -247 q 206 -130 175 -161 q 279 -99 238 -99 q 355 -130 324 -99 q 386 -204 386 -161 q 355 -278 386 -247 q 279 -310 324 -310 m 478 728 q 340 774 390 728 q 290 900 290 821 q 292 931 290 914 q 297 964 293 947 l 354 964 q 353 955 353 960 q 353 946 353 950 q 394 876 353 897 q 500 854 436 854 q 620 880 568 854 q 690 964 672 906 l 750 964 q 699 844 735 897 q 608 759 663 790 q 478 728 553 728 z "},"ằ":{"ha":799,"x_min":47,"x_max":815,"o":"m 269 -17 q 160 13 211 -17 q 78 99 108 43 q 47 233 47 156 q 80 388 47 314 q 167 518 113 461 q 287 608 221 575 q 421 642 353 642 q 508 616 476 642 q 560 542 540 590 l 568 542 l 538 415 q 540 441 539 429 q 542 464 542 453 q 513 556 542 519 q 446 592 483 592 q 376 565 408 592 q 317 491 344 538 q 270 388 290 444 q 240 269 250 331 q 229 153 229 208 q 246 63 229 90 q 297 36 263 36 q 367 58 329 36 q 442 132 406 81 q 504 271 479 183 l 468 97 l 460 97 q 383 18 432 53 q 269 -17 333 -17 m 582 -17 q 524 -4 550 -17 q 483 35 499 8 q 468 103 468 61 q 472 143 468 121 q 488 213 475 165 l 588 625 l 757 625 l 642 149 q 633 104 636 122 q 631 78 631 86 q 650 51 631 51 q 708 90 671 51 q 783 219 746 128 l 815 207 q 764 100 797 151 q 685 16 731 49 q 582 -17 639 -17 m 489 732 q 354 776 399 732 q 331 910 310 819 l 382 910 q 392 860 376 876 q 440 838 408 843 q 507 832 471 832 q 584 838 549 832 q 644 861 619 844 q 676 910 669 878 l 726 910 q 645 777 710 822 q 489 732 581 732 m 561 957 l 301 1014 q 249 1041 265 1021 q 233 1083 233 1061 q 254 1131 233 1110 q 313 1153 275 1153 q 360 1142 338 1153 q 422 1107 383 1132 l 650 957 l 561 957 z "},"ẳ":{"ha":799,"x_min":47,"x_max":815,"o":"m 269 -17 q 160 13 211 -17 q 78 99 108 43 q 47 233 47 156 q 80 388 47 314 q 167 518 113 461 q 287 608 221 575 q 421 642 353 642 q 508 616 476 642 q 560 542 540 590 l 568 542 l 538 415 q 540 441 539 429 q 542 464 542 453 q 513 556 542 519 q 446 592 483 592 q 376 565 408 592 q 317 491 344 538 q 270 388 290 444 q 240 269 250 331 q 229 153 229 208 q 246 63 229 90 q 297 36 263 36 q 367 58 329 36 q 442 132 406 81 q 504 271 479 183 l 468 97 l 460 97 q 383 18 432 53 q 269 -17 333 -17 m 582 -17 q 524 -4 550 -17 q 483 35 499 8 q 468 103 468 61 q 472 143 468 121 q 488 213 475 165 l 588 625 l 757 625 l 642 149 q 633 104 636 122 q 631 78 631 86 q 650 51 631 51 q 708 90 671 51 q 783 219 746 128 l 815 207 q 764 100 797 151 q 685 16 731 49 q 582 -17 639 -17 m 506 732 q 371 776 415 732 q 347 910 326 819 l 399 910 q 409 860 393 876 q 456 838 425 843 q 524 832 488 832 q 601 838 565 832 q 661 861 636 844 q 693 910 686 878 l 743 910 q 662 777 726 822 q 506 732 597 732 m 519 917 q 548 979 528 957 q 588 1015 568 1001 q 610 1046 607 1029 q 603 1096 617 1081 q 561 1111 589 1111 q 516 1098 535 1111 q 494 1069 497 1085 q 498 1051 493 1056 q 508 1042 503 1047 q 510 1019 513 1036 q 490 993 508 1001 q 453 985 472 985 q 415 1002 428 985 q 407 1047 401 1019 q 467 1141 419 1113 q 572 1169 515 1169 q 676 1138 644 1169 q 693 1038 707 1107 q 670 995 688 1010 q 631 971 653 981 q 592 950 610 961 q 568 917 575 939 l 519 917 z "},"ẵ":{"ha":799,"x_min":47,"x_max":851,"o":"m 269 -17 q 160 13 211 -17 q 78 99 108 43 q 47 233 47 156 q 80 388 47 314 q 167 518 113 461 q 287 608 221 575 q 421 642 353 642 q 508 616 476 642 q 560 542 540 590 l 568 542 l 538 415 q 540 441 539 429 q 542 464 542 453 q 513 556 542 519 q 446 592 483 592 q 376 565 408 592 q 317 491 344 538 q 270 388 290 444 q 240 269 250 331 q 229 153 229 208 q 246 63 229 90 q 297 36 263 36 q 367 58 329 36 q 442 132 406 81 q 504 271 479 183 l 468 97 l 460 97 q 383 18 432 53 q 269 -17 333 -17 m 582 -17 q 524 -4 550 -17 q 483 35 499 8 q 468 103 468 61 q 472 143 468 121 q 488 213 475 165 l 588 625 l 757 625 l 642 149 q 633 104 636 122 q 631 78 631 86 q 650 51 631 51 q 708 90 671 51 q 783 219 746 128 l 815 207 q 764 100 797 151 q 685 16 731 49 q 582 -17 639 -17 m 497 732 q 363 776 407 732 q 339 910 318 819 l 389 910 q 400 860 383 876 q 448 838 417 843 q 514 832 479 832 q 592 838 556 832 q 652 861 628 844 q 685 910 676 878 l 735 910 q 653 777 718 822 q 497 732 589 732 m 319 958 q 361 1048 335 1007 q 426 1114 388 1089 q 514 1139 465 1139 q 583 1123 557 1139 q 635 1092 610 1107 q 693 1076 660 1076 q 763 1099 735 1076 q 803 1142 792 1121 l 851 1142 q 774 1008 824 1056 q 656 960 724 960 q 585 975 613 960 q 534 1006 558 990 q 474 1022 510 1022 q 408 1003 436 1022 q 367 958 379 985 l 319 958 z "},"â":{"ha":799,"x_min":47,"x_max":815,"o":"m 269 -17 q 160 13 211 -17 q 78 99 108 43 q 47 233 47 156 q 80 388 47 314 q 167 518 113 461 q 287 608 221 575 q 421 642 353 642 q 508 616 476 642 q 560 542 540 590 l 568 542 l 538 415 q 540 441 539 429 q 542 464 542 453 q 513 556 542 519 q 446 592 483 592 q 376 565 408 592 q 317 491 344 538 q 270 388 290 444 q 240 269 250 331 q 229 153 229 208 q 246 63 229 90 q 297 36 263 36 q 367 58 329 36 q 442 132 406 81 q 504 271 479 183 l 468 97 l 460 97 q 383 18 432 53 q 269 -17 333 -17 m 582 -17 q 524 -4 550 -17 q 483 35 499 8 q 468 103 468 61 q 472 143 468 121 q 488 213 475 165 l 588 625 l 757 625 l 642 149 q 633 104 636 122 q 631 78 631 86 q 650 51 631 51 q 708 90 671 51 q 783 219 746 128 l 815 207 q 764 100 797 151 q 685 16 731 49 q 582 -17 639 -17 m 269 728 l 529 1006 l 615 1006 l 756 728 l 696 728 l 540 857 l 328 728 l 269 728 z "},"ấ":{"ha":799,"x_min":47,"x_max":815,"o":"m 269 -17 q 160 13 211 -17 q 78 99 108 43 q 47 233 47 156 q 80 388 47 314 q 167 518 113 461 q 287 608 221 575 q 421 642 353 642 q 508 616 476 642 q 560 542 540 590 l 568 542 l 538 415 q 540 441 539 429 q 542 464 542 453 q 513 556 542 519 q 446 592 483 592 q 376 565 408 592 q 317 491 344 538 q 270 388 290 444 q 240 269 250 331 q 229 153 229 208 q 246 63 229 90 q 297 36 263 36 q 367 58 329 36 q 442 132 406 81 q 504 271 479 183 l 468 97 l 460 97 q 383 18 432 53 q 269 -17 333 -17 m 582 -17 q 524 -4 550 -17 q 483 35 499 8 q 468 103 468 61 q 472 143 468 121 q 488 213 475 165 l 588 625 l 757 625 l 642 149 q 633 104 636 122 q 631 78 631 86 q 650 51 631 51 q 708 90 671 51 q 783 219 746 128 l 815 207 q 764 100 797 151 q 685 16 731 49 q 582 -17 639 -17 m 264 729 l 469 879 l 550 879 l 707 729 l 643 729 l 500 790 l 326 729 l 264 729 m 310 926 l 553 1075 q 620 1110 594 1100 q 672 1121 646 1121 q 724 1103 706 1121 q 743 1058 743 1085 q 724 1011 743 1033 q 663 981 704 989 l 399 926 l 310 926 z "},"ậ":{"ha":799,"x_min":47,"x_max":815,"o":"m 269 -17 q 160 13 211 -17 q 78 99 108 43 q 47 233 47 156 q 80 388 47 314 q 167 518 113 461 q 287 608 221 575 q 421 642 353 642 q 508 616 476 642 q 560 542 540 590 l 568 542 l 538 415 q 540 441 539 429 q 542 464 542 453 q 513 556 542 519 q 446 592 483 592 q 376 565 408 592 q 317 491 344 538 q 270 388 290 444 q 240 269 250 331 q 229 153 229 208 q 246 63 229 90 q 297 36 263 36 q 367 58 329 36 q 442 132 406 81 q 504 271 479 183 l 468 97 l 460 97 q 383 18 432 53 q 269 -17 333 -17 m 582 -17 q 524 -4 550 -17 q 483 35 499 8 q 468 103 468 61 q 472 143 468 121 q 488 213 475 165 l 588 625 l 757 625 l 642 149 q 633 104 636 122 q 631 78 631 86 q 650 51 631 51 q 708 90 671 51 q 783 219 746 128 l 815 207 q 764 100 797 151 q 685 16 731 49 q 582 -17 639 -17 m 279 -310 q 206 -278 238 -310 q 175 -204 175 -247 q 206 -130 175 -161 q 279 -99 238 -99 q 355 -130 324 -99 q 386 -204 386 -161 q 355 -278 386 -247 q 279 -310 324 -310 m 269 728 l 529 1006 l 615 1006 l 756 728 l 696 728 l 540 857 l 328 728 l 269 728 z "},"ầ":{"ha":799,"x_min":47,"x_max":815,"o":"m 269 -17 q 160 13 211 -17 q 78 99 108 43 q 47 233 47 156 q 80 388 47 314 q 167 518 113 461 q 287 608 221 575 q 421 642 353 642 q 508 616 476 642 q 560 542 540 590 l 568 542 l 538 415 q 540 441 539 429 q 542 464 542 453 q 513 556 542 519 q 446 592 483 592 q 376 565 408 592 q 317 491 344 538 q 270 388 290 444 q 240 269 250 331 q 229 153 229 208 q 246 63 229 90 q 297 36 263 36 q 367 58 329 36 q 442 132 406 81 q 504 271 479 183 l 468 97 l 460 97 q 383 18 432 53 q 269 -17 333 -17 m 582 -17 q 524 -4 550 -17 q 483 35 499 8 q 468 103 468 61 q 472 143 468 121 q 488 213 475 165 l 588 625 l 757 625 l 642 149 q 633 104 636 122 q 631 78 631 86 q 650 51 631 51 q 708 90 671 51 q 783 219 746 128 l 815 207 q 764 100 797 151 q 685 16 731 49 q 582 -17 639 -17 m 269 729 l 475 879 l 556 879 l 713 729 l 649 729 l 506 790 l 332 729 l 269 729 m 676 926 l 417 982 q 365 1009 382 989 q 349 1051 349 1029 q 369 1100 349 1079 q 428 1121 390 1121 q 476 1110 453 1121 q 538 1075 499 1100 l 765 926 l 676 926 z "},"ẩ":{"ha":799,"x_min":47,"x_max":843,"o":"m 269 -17 q 160 13 211 -17 q 78 99 108 43 q 47 233 47 156 q 80 388 47 314 q 167 518 113 461 q 287 608 221 575 q 421 642 353 642 q 508 616 476 642 q 560 542 540 590 l 568 542 l 538 415 q 540 441 539 429 q 542 464 542 453 q 513 556 542 519 q 446 592 483 592 q 376 565 408 592 q 317 491 344 538 q 270 388 290 444 q 240 269 250 331 q 229 153 229 208 q 246 63 229 90 q 297 36 263 36 q 367 58 329 36 q 442 132 406 81 q 504 271 479 183 l 468 97 l 460 97 q 383 18 432 53 q 269 -17 333 -17 m 582 -17 q 524 -4 550 -17 q 483 35 499 8 q 468 103 468 61 q 472 143 468 121 q 488 213 475 165 l 588 625 l 757 625 l 642 149 q 633 104 636 122 q 631 78 631 86 q 650 51 631 51 q 708 90 671 51 q 783 219 746 128 l 815 207 q 764 100 797 151 q 685 16 731 49 q 582 -17 639 -17 m 264 729 l 469 879 l 550 879 l 707 729 l 643 729 l 500 790 l 326 729 l 264 729 m 656 857 q 684 919 664 897 q 724 954 704 940 q 746 985 743 968 q 739 1035 753 1021 q 697 1050 725 1050 q 652 1038 671 1050 q 631 1010 633 1025 q 634 992 629 996 q 644 982 639 988 q 646 960 649 976 q 626 933 644 942 q 589 925 608 925 q 551 942 564 925 q 543 986 538 960 q 603 1081 556 1053 q 708 1108 651 1108 q 812 1078 781 1108 q 829 978 843 1047 q 806 935 824 950 q 767 910 789 919 q 728 890 746 901 q 704 857 711 879 l 656 857 z "},"ẫ":{"ha":799,"x_min":47,"x_max":824,"o":"m 269 -17 q 160 13 211 -17 q 78 99 108 43 q 47 233 47 156 q 80 388 47 314 q 167 518 113 461 q 287 608 221 575 q 421 642 353 642 q 508 616 476 642 q 560 542 540 590 l 568 542 l 538 415 q 540 441 539 429 q 542 464 542 453 q 513 556 542 519 q 446 592 483 592 q 376 565 408 592 q 317 491 344 538 q 270 388 290 444 q 240 269 250 331 q 229 153 229 208 q 246 63 229 90 q 297 36 263 36 q 367 58 329 36 q 442 132 406 81 q 504 271 479 183 l 468 97 l 460 97 q 383 18 432 53 q 269 -17 333 -17 m 582 -17 q 524 -4 550 -17 q 483 35 499 8 q 468 103 468 61 q 472 143 468 121 q 488 213 475 165 l 588 625 l 757 625 l 642 149 q 633 104 636 122 q 631 78 631 86 q 650 51 631 51 q 708 90 671 51 q 783 219 746 128 l 815 207 q 764 100 797 151 q 685 16 731 49 q 582 -17 639 -17 m 263 729 l 468 879 l 549 879 l 706 729 l 642 729 l 499 790 l 325 729 l 263 729 m 293 911 q 334 1001 307 960 q 399 1067 361 1042 q 486 1092 438 1092 q 556 1076 529 1092 q 607 1044 582 1060 q 665 1029 632 1029 q 735 1051 707 1029 q 775 1094 764 1074 l 824 1094 q 747 960 796 1008 q 628 913 697 913 q 558 928 585 913 q 506 959 531 943 q 446 975 482 975 q 381 956 410 975 q 339 911 351 938 l 293 911 z "},"ȁ":{"ha":799,"x_min":47,"x_max":815,"o":"m 269 -17 q 160 13 211 -17 q 78 99 108 43 q 47 233 47 156 q 80 388 47 314 q 167 518 113 461 q 287 608 221 575 q 421 642 353 642 q 508 616 476 642 q 560 542 540 590 l 568 542 l 538 415 q 540 441 539 429 q 542 464 542 453 q 513 556 542 519 q 446 592 483 592 q 376 565 408 592 q 317 491 344 538 q 270 388 290 444 q 240 269 250 331 q 229 153 229 208 q 246 63 229 90 q 297 36 263 36 q 367 58 329 36 q 442 132 406 81 q 504 271 479 183 l 468 97 l 460 97 q 383 18 432 53 q 269 -17 333 -17 m 582 -17 q 524 -4 550 -17 q 483 35 499 8 q 468 103 468 61 q 472 143 468 121 q 488 213 475 165 l 588 625 l 757 625 l 642 149 q 633 104 636 122 q 631 78 631 86 q 650 51 631 51 q 708 90 671 51 q 783 219 746 128 l 815 207 q 764 100 797 151 q 685 16 731 49 q 582 -17 639 -17 m 660 728 l 461 860 q 415 904 425 883 q 406 940 406 925 q 428 993 406 975 q 485 1011 451 1011 q 531 999 510 1011 q 575 954 551 986 l 738 728 l 660 728 m 392 728 l 193 860 q 147 904 157 883 q 138 940 138 925 q 160 993 138 975 q 217 1011 183 1011 q 263 999 242 1011 q 307 954 283 986 l 471 728 l 392 728 z "},"ä":{"ha":799,"x_min":47,"x_max":815,"o":"m 269 -17 q 160 13 211 -17 q 78 99 108 43 q 47 233 47 156 q 80 388 47 314 q 167 518 113 461 q 287 608 221 575 q 421 642 353 642 q 508 616 476 642 q 560 542 540 590 l 568 542 l 538 415 q 540 441 539 429 q 542 464 542 453 q 513 556 542 519 q 446 592 483 592 q 376 565 408 592 q 317 491 344 538 q 270 388 290 444 q 240 269 250 331 q 229 153 229 208 q 246 63 229 90 q 297 36 263 36 q 367 58 329 36 q 442 132 406 81 q 504 271 479 183 l 468 97 l 460 97 q 383 18 432 53 q 269 -17 333 -17 m 582 -17 q 524 -4 550 -17 q 483 35 499 8 q 468 103 468 61 q 472 143 468 121 q 488 213 475 165 l 588 625 l 757 625 l 642 149 q 633 104 636 122 q 631 78 631 86 q 650 51 631 51 q 708 90 671 51 q 783 219 746 128 l 815 207 q 764 100 797 151 q 685 16 731 49 q 582 -17 639 -17 m 676 756 q 616 781 642 756 q 590 842 590 807 q 617 903 590 878 q 676 929 643 929 q 738 903 713 929 q 764 842 764 878 q 739 781 764 807 q 676 756 714 756 m 413 756 q 352 781 378 756 q 326 842 326 807 q 353 903 326 878 q 413 929 379 929 q 474 903 449 929 q 500 842 500 878 q 475 781 500 807 q 413 756 450 756 z "},"ạ":{"ha":799,"x_min":47,"x_max":815,"o":"m 269 -17 q 160 13 211 -17 q 78 99 108 43 q 47 233 47 156 q 80 388 47 314 q 167 518 113 461 q 287 608 221 575 q 421 642 353 642 q 508 616 476 642 q 560 542 540 590 l 568 542 l 538 415 q 540 441 539 429 q 542 464 542 453 q 513 556 542 519 q 446 592 483 592 q 376 565 408 592 q 317 491 344 538 q 270 388 290 444 q 240 269 250 331 q 229 153 229 208 q 246 63 229 90 q 297 36 263 36 q 367 58 329 36 q 442 132 406 81 q 504 271 479 183 l 468 97 l 460 97 q 383 18 432 53 q 269 -17 333 -17 m 582 -17 q 524 -4 550 -17 q 483 35 499 8 q 468 103 468 61 q 472 143 468 121 q 488 213 475 165 l 588 625 l 757 625 l 642 149 q 633 104 636 122 q 631 78 631 86 q 650 51 631 51 q 708 90 671 51 q 783 219 746 128 l 815 207 q 764 100 797 151 q 685 16 731 49 q 582 -17 639 -17 m 279 -310 q 206 -278 238 -310 q 175 -204 175 -247 q 206 -130 175 -161 q 279 -99 238 -99 q 355 -130 324 -99 q 386 -204 386 -161 q 355 -278 386 -247 q 279 -310 324 -310 z "},"à":{"ha":799,"x_min":47,"x_max":815,"o":"m 269 -17 q 160 13 211 -17 q 78 99 108 43 q 47 233 47 156 q 80 388 47 314 q 167 518 113 461 q 287 608 221 575 q 421 642 353 642 q 508 616 476 642 q 560 542 540 590 l 568 542 l 538 415 q 540 441 539 429 q 542 464 542 453 q 513 556 542 519 q 446 592 483 592 q 376 565 408 592 q 317 491 344 538 q 270 388 290 444 q 240 269 250 331 q 229 153 229 208 q 246 63 229 90 q 297 36 263 36 q 367 58 329 36 q 442 132 406 81 q 504 271 479 183 l 468 97 l 460 97 q 383 18 432 53 q 269 -17 333 -17 m 582 -17 q 524 -4 550 -17 q 483 35 499 8 q 468 103 468 61 q 472 143 468 121 q 488 213 475 165 l 588 625 l 757 625 l 642 149 q 633 104 636 122 q 631 78 631 86 q 650 51 631 51 q 708 90 671 51 q 783 219 746 128 l 815 207 q 764 100 797 151 q 685 16 731 49 q 582 -17 639 -17 m 569 728 l 371 860 q 325 904 335 883 q 315 940 315 925 q 338 993 315 975 q 394 1011 361 1011 q 440 999 419 1011 q 485 954 461 986 l 649 728 l 569 728 z "},"ả":{"ha":799,"x_min":47,"x_max":815,"o":"m 269 -17 q 160 13 211 -17 q 78 99 108 43 q 47 233 47 156 q 80 388 47 314 q 167 518 113 461 q 287 608 221 575 q 421 642 353 642 q 508 616 476 642 q 560 542 540 590 l 568 542 l 538 415 q 540 441 539 429 q 542 464 542 453 q 513 556 542 519 q 446 592 483 592 q 376 565 408 592 q 317 491 344 538 q 270 388 290 444 q 240 269 250 331 q 229 153 229 208 q 246 63 229 90 q 297 36 263 36 q 367 58 329 36 q 442 132 406 81 q 504 271 479 183 l 468 97 l 460 97 q 383 18 432 53 q 269 -17 333 -17 m 582 -17 q 524 -4 550 -17 q 483 35 499 8 q 468 103 468 61 q 472 143 468 121 q 488 213 475 165 l 588 625 l 757 625 l 642 149 q 633 104 636 122 q 631 78 631 86 q 650 51 631 51 q 708 90 671 51 q 783 219 746 128 l 815 207 q 764 100 797 151 q 685 16 731 49 q 582 -17 639 -17 m 490 721 q 511 770 497 751 q 541 803 525 789 q 568 830 557 818 q 581 858 579 842 q 572 901 583 888 q 532 914 560 914 q 487 901 506 914 q 465 874 468 889 q 469 856 464 860 q 478 846 474 851 q 481 824 483 840 q 461 797 479 806 q 424 789 443 789 q 388 805 399 789 q 378 844 376 821 q 406 919 381 892 q 468 960 431 947 q 543 972 506 972 q 638 944 610 972 q 664 865 667 917 q 646 817 663 835 q 607 785 629 799 q 565 757 585 771 q 539 721 546 743 l 490 721 z "},"ȃ":{"ha":799,"x_min":47,"x_max":815,"o":"m 269 -17 q 160 13 211 -17 q 78 99 108 43 q 47 233 47 156 q 80 388 47 314 q 167 518 113 461 q 287 608 221 575 q 421 642 353 642 q 508 616 476 642 q 560 542 540 590 l 568 542 l 538 415 q 540 441 539 429 q 542 464 542 453 q 513 556 542 519 q 446 592 483 592 q 376 565 408 592 q 317 491 344 538 q 270 388 290 444 q 240 269 250 331 q 229 153 229 208 q 246 63 229 90 q 297 36 263 36 q 367 58 329 36 q 442 132 406 81 q 504 271 479 183 l 468 97 l 460 97 q 383 18 432 53 q 269 -17 333 -17 m 582 -17 q 524 -4 550 -17 q 483 35 499 8 q 468 103 468 61 q 472 143 468 121 q 488 213 475 165 l 588 625 l 757 625 l 642 149 q 633 104 636 122 q 631 78 631 86 q 650 51 631 51 q 708 90 671 51 q 783 219 746 128 l 815 207 q 764 100 797 151 q 685 16 731 49 q 582 -17 639 -17 m 289 728 q 342 849 306 796 q 433 933 378 901 q 561 964 488 964 q 700 918 650 964 q 750 792 750 872 q 748 762 750 778 q 743 728 746 746 l 686 728 q 688 738 688 733 q 688 746 688 742 q 646 816 688 794 q 540 838 604 838 q 420 813 472 838 q 350 728 368 788 l 289 728 z "},"ā":{"ha":799,"x_min":47,"x_max":815,"o":"m 269 -17 q 160 13 211 -17 q 78 99 108 43 q 47 233 47 156 q 80 388 47 314 q 167 518 113 461 q 287 608 221 575 q 421 642 353 642 q 508 616 476 642 q 560 542 540 590 l 568 542 l 538 415 q 540 441 539 429 q 542 464 542 453 q 513 556 542 519 q 446 592 483 592 q 376 565 408 592 q 317 491 344 538 q 270 388 290 444 q 240 269 250 331 q 229 153 229 208 q 246 63 229 90 q 297 36 263 36 q 367 58 329 36 q 442 132 406 81 q 504 271 479 183 l 468 97 l 460 97 q 383 18 432 53 q 269 -17 333 -17 m 582 -17 q 524 -4 550 -17 q 483 35 499 8 q 468 103 468 61 q 472 143 468 121 q 488 213 475 165 l 588 625 l 757 625 l 642 149 q 633 104 636 122 q 631 78 631 86 q 650 51 631 51 q 708 90 671 51 q 783 219 746 128 l 815 207 q 764 100 797 151 q 685 16 731 49 q 582 -17 639 -17 m 293 815 l 317 925 l 781 925 l 756 815 l 293 815 z "},"ą":{"ha":799,"x_min":47,"x_max":815,"o":"m 269 -17 q 160 13 211 -17 q 78 99 108 43 q 47 233 47 156 q 80 388 47 314 q 167 518 113 461 q 287 608 221 575 q 421 642 353 642 q 508 616 476 642 q 560 542 540 590 l 568 542 l 538 415 q 540 441 539 429 q 542 464 542 453 q 513 556 542 519 q 446 592 483 592 q 376 565 408 592 q 317 491 344 538 q 270 388 290 444 q 240 269 250 331 q 229 153 229 208 q 246 63 229 90 q 297 36 263 36 q 367 58 329 36 q 442 132 406 81 q 504 271 479 183 l 468 97 l 460 97 q 383 18 432 53 q 269 -17 333 -17 m 582 -17 q 524 -4 550 -17 q 483 35 499 8 q 468 103 468 61 q 472 143 468 121 q 488 213 475 165 l 588 625 l 757 625 l 642 149 q 633 104 636 122 q 631 78 631 86 q 650 51 631 51 q 708 90 671 51 q 783 219 746 128 l 815 207 q 764 100 797 151 q 685 16 731 49 q 582 -17 639 -17 m 467 -326 q 381 -302 413 -326 q 349 -235 349 -278 q 414 -112 349 -176 q 611 19 479 -49 l 671 17 q 527 -90 581 -33 q 474 -196 474 -147 q 490 -237 474 -222 q 536 -251 507 -251 q 578 -244 554 -251 q 633 -222 601 -237 l 653 -258 q 570 -307 624 -287 q 467 -326 517 -326 z "},"å":{"ha":799,"x_min":47,"x_max":815,"o":"m 269 -17 q 160 13 211 -17 q 78 99 108 43 q 47 233 47 156 q 80 388 47 314 q 167 518 113 461 q 287 608 221 575 q 421 642 353 642 q 508 616 476 642 q 560 542 540 590 l 568 542 l 538 415 q 540 441 539 429 q 542 464 542 453 q 513 556 542 519 q 446 592 483 592 q 376 565 408 592 q 317 491 344 538 q 270 388 290 444 q 240 269 250 331 q 229 153 229 208 q 246 63 229 90 q 297 36 263 36 q 367 58 329 36 q 442 132 406 81 q 504 271 479 183 l 468 97 l 460 97 q 383 18 432 53 q 269 -17 333 -17 m 582 -17 q 524 -4 550 -17 q 483 35 499 8 q 468 103 468 61 q 472 143 468 121 q 488 213 475 165 l 588 625 l 757 625 l 642 149 q 633 104 636 122 q 631 78 631 86 q 650 51 631 51 q 708 90 671 51 q 783 219 746 128 l 815 207 q 764 100 797 151 q 685 16 731 49 q 582 -17 639 -17 m 560 740 q 460 782 503 740 q 418 882 418 824 q 460 981 418 939 q 560 1022 503 1022 q 659 981 617 1022 q 701 882 701 940 q 660 782 701 824 q 560 740 618 740 m 558 813 q 607 833 588 813 q 626 881 626 854 q 606 928 626 908 q 560 947 586 947 q 512 928 532 947 q 492 882 492 908 q 512 833 492 854 q 558 813 532 813 z "},"ǻ":{"ha":799,"x_min":47,"x_max":1017,"o":"m 269 -17 q 160 13 211 -17 q 78 99 108 43 q 47 233 47 156 q 80 388 47 314 q 167 518 113 461 q 287 608 221 575 q 421 642 353 642 q 508 616 476 642 q 560 542 540 590 l 568 542 l 538 415 q 540 441 539 429 q 542 464 542 453 q 513 556 542 519 q 446 592 483 592 q 376 565 408 592 q 317 491 344 538 q 270 388 290 444 q 240 269 250 331 q 229 153 229 208 q 246 63 229 90 q 297 36 263 36 q 367 58 329 36 q 442 132 406 81 q 504 271 479 183 l 468 97 l 460 97 q 383 18 432 53 q 269 -17 333 -17 m 582 -17 q 524 -4 550 -17 q 483 35 499 8 q 468 103 468 61 q 472 143 468 121 q 488 213 475 165 l 588 625 l 757 625 l 642 149 q 633 104 636 122 q 631 78 631 86 q 650 51 631 51 q 708 90 671 51 q 783 219 746 128 l 815 207 q 764 100 797 151 q 685 16 731 49 q 582 -17 639 -17 m 560 740 q 460 782 503 740 q 418 882 418 824 q 460 981 418 939 q 560 1022 503 1022 q 659 981 617 1022 q 701 882 701 940 q 660 782 701 824 q 560 740 618 740 m 558 813 q 607 833 588 813 q 626 881 626 854 q 606 928 626 908 q 560 947 586 947 q 512 928 532 947 q 492 882 492 908 q 512 833 492 854 q 558 813 532 813 m 631 1047 l 833 1268 q 894 1319 869 1307 q 942 1331 919 1331 q 999 1309 981 1331 q 1017 1260 1017 1288 q 1002 1217 1017 1236 q 951 1179 988 1199 l 707 1047 l 631 1047 z "},"ã":{"ha":799,"x_min":47,"x_max":815,"o":"m 269 -17 q 160 13 211 -17 q 78 99 108 43 q 47 233 47 156 q 80 388 47 314 q 167 518 113 461 q 287 608 221 575 q 421 642 353 642 q 508 616 476 642 q 560 542 540 590 l 568 542 l 538 415 q 540 441 539 429 q 542 464 542 453 q 513 556 542 519 q 446 592 483 592 q 376 565 408 592 q 317 491 344 538 q 270 388 290 444 q 240 269 250 331 q 229 153 229 208 q 246 63 229 90 q 297 36 263 36 q 367 58 329 36 q 442 132 406 81 q 504 271 479 183 l 468 97 l 460 97 q 383 18 432 53 q 269 -17 333 -17 m 582 -17 q 524 -4 550 -17 q 483 35 499 8 q 468 103 468 61 q 472 143 468 121 q 488 213 475 165 l 588 625 l 757 625 l 642 149 q 633 104 636 122 q 631 78 631 86 q 650 51 631 51 q 708 90 671 51 q 783 219 746 128 l 815 207 q 764 100 797 151 q 685 16 731 49 q 582 -17 639 -17 m 264 751 q 305 841 278 800 q 370 907 332 882 q 457 932 408 932 q 526 916 500 932 q 578 885 553 900 q 636 869 603 869 q 706 892 678 869 q 746 935 735 914 l 794 935 q 717 801 767 849 q 599 753 668 753 q 528 768 556 753 q 477 799 501 783 q 417 815 453 815 q 351 797 381 815 q 310 751 322 778 l 264 751 z "},"æ":{"ha":1144,"x_min":47,"x_max":1119,"o":"m 781 -17 q 630 21 690 -17 q 539 119 569 58 q 508 246 508 179 q 543 390 508 319 q 636 517 578 460 q 764 608 694 574 q 906 642 833 642 q 1015 621 967 642 q 1091 563 1063 600 q 1119 476 1119 525 q 1083 374 1119 421 q 980 299 1047 328 q 815 271 913 271 q 744 274 782 271 q 676 281 706 276 q 638 286 646 285 l 644 331 q 696 319 668 321 q 768 317 724 317 q 887 342 842 317 q 953 408 932 367 q 974 497 974 449 q 952 573 974 546 q 889 600 931 600 q 818 569 850 600 q 762 486 786 538 q 721 374 738 435 q 695 256 704 314 q 686 153 686 197 q 715 64 686 93 q 797 35 743 35 q 933 70 864 35 q 1064 199 1003 106 l 1096 175 q 961 33 1042 83 q 781 -17 881 -17 m 269 -17 q 159 13 210 -17 q 78 97 108 42 q 47 229 47 153 q 80 385 47 311 q 167 516 113 458 q 288 608 221 574 q 422 642 354 642 q 509 616 476 642 q 561 542 542 590 l 569 542 l 539 415 q 541 442 540 429 q 542 464 542 454 q 513 556 542 519 q 447 592 483 592 q 377 564 410 592 q 317 490 344 536 q 270 385 290 443 q 240 265 250 326 q 229 149 229 204 q 246 62 229 88 q 297 36 263 36 q 372 59 332 36 q 447 132 411 82 q 503 265 483 182 l 521 208 l 529 143 l 519 143 q 458 65 494 101 q 374 6 422 28 q 269 -17 326 -17 m 482 189 l 589 625 l 758 625 l 642 158 l 482 189 z "},"ǽ":{"ha":1144,"x_min":47,"x_max":1119,"o":"m 781 -17 q 630 21 690 -17 q 539 119 569 58 q 508 246 508 179 q 543 390 508 319 q 636 517 578 460 q 764 608 694 574 q 906 642 833 642 q 1015 621 967 642 q 1091 563 1063 600 q 1119 476 1119 525 q 1083 374 1119 421 q 980 299 1047 328 q 815 271 913 271 q 744 274 782 271 q 676 281 706 276 q 638 286 646 285 l 644 331 q 696 319 668 321 q 768 317 724 317 q 887 342 842 317 q 953 408 932 367 q 974 497 974 449 q 952 573 974 546 q 889 600 931 600 q 818 569 850 600 q 762 486 786 538 q 721 374 738 435 q 695 256 704 314 q 686 153 686 197 q 715 64 686 93 q 797 35 743 35 q 933 70 864 35 q 1064 199 1003 106 l 1096 175 q 961 33 1042 83 q 781 -17 881 -17 m 269 -17 q 159 13 210 -17 q 78 97 108 42 q 47 229 47 153 q 80 385 47 311 q 167 516 113 458 q 288 608 221 574 q 422 642 354 642 q 509 616 476 642 q 561 542 542 590 l 569 542 l 539 415 q 541 442 540 429 q 542 464 542 454 q 513 556 542 519 q 447 592 483 592 q 377 564 410 592 q 317 490 344 536 q 270 385 290 443 q 240 265 250 326 q 229 149 229 204 q 246 62 229 88 q 297 36 263 36 q 372 59 332 36 q 447 132 411 82 q 503 265 483 182 l 521 208 l 529 143 l 519 143 q 458 65 494 101 q 374 6 422 28 q 269 -17 326 -17 m 482 189 l 589 625 l 758 625 l 642 158 l 482 189 m 628 728 l 831 949 q 892 999 867 988 q 939 1011 917 1011 q 996 990 978 1011 q 1014 940 1014 968 q 999 898 1014 917 q 949 860 985 879 l 704 728 l 628 728 z "},"b":{"ha":739,"x_min":54,"x_max":689,"o":"m 278 -18 q 113 40 171 -18 q 54 186 54 97 q 56 223 54 199 q 67 283 58 247 l 249 1047 l 415 1047 l 218 201 q 213 167 215 188 q 210 128 210 146 q 231 56 210 79 q 286 32 253 32 q 372 70 332 32 q 441 173 411 108 q 488 317 471 238 q 506 481 506 397 q 493 567 506 542 q 446 593 481 593 q 350 550 399 593 q 264 421 301 507 l 296 553 l 306 553 q 376 617 332 592 q 472 642 419 642 q 575 615 525 642 q 657 533 625 588 q 689 394 689 478 q 656 240 689 314 q 566 108 624 165 q 434 16 508 50 q 278 -18 360 -18 m 110 1008 l 110 1047 l 399 1047 l 399 1008 l 110 1008 z "},"c":{"ha":661,"x_min":40,"x_max":651,"o":"m 314 -17 q 165 22 226 -17 q 72 122 104 61 q 40 253 40 183 q 73 394 40 325 q 163 519 106 464 q 293 608 219 575 q 446 642 367 642 q 553 623 507 642 q 626 573 600 604 q 651 501 651 542 q 628 438 651 465 q 556 410 604 410 q 490 431 514 410 q 467 483 467 453 q 474 517 467 503 q 488 544 481 532 q 494 568 494 556 q 478 593 494 586 q 440 600 461 600 q 379 583 407 600 q 328 533 351 567 q 287 446 306 499 q 252 322 268 393 q 224 160 236 251 q 243 65 217 96 q 332 35 269 35 q 464 70 396 35 q 592 199 532 106 l 624 175 q 492 34 571 85 q 314 -17 413 -17 z "},"ć":{"ha":661,"x_min":40,"x_max":764,"o":"m 314 -17 q 165 22 226 -17 q 72 122 104 61 q 40 253 40 183 q 73 394 40 325 q 163 519 106 464 q 293 608 219 575 q 446 642 367 642 q 553 623 507 642 q 626 573 600 604 q 651 501 651 542 q 628 438 651 465 q 556 410 604 410 q 490 431 514 410 q 467 483 467 453 q 474 517 467 503 q 488 544 481 532 q 494 568 494 556 q 478 593 494 586 q 440 600 461 600 q 379 583 407 600 q 328 533 351 567 q 287 446 306 499 q 252 322 268 393 q 224 160 236 251 q 243 65 217 96 q 332 35 269 35 q 464 70 396 35 q 592 199 532 106 l 624 175 q 492 34 571 85 q 314 -17 413 -17 m 376 728 l 579 949 q 640 999 615 988 q 688 1011 665 1011 q 744 990 726 1011 q 763 940 763 968 q 748 898 763 917 q 697 860 733 879 l 453 728 l 376 728 z "},"č":{"ha":661,"x_min":40,"x_max":746,"o":"m 314 -17 q 165 22 226 -17 q 72 122 104 61 q 40 253 40 183 q 73 394 40 325 q 163 519 106 464 q 293 608 219 575 q 446 642 367 642 q 553 623 507 642 q 626 573 600 604 q 651 501 651 542 q 628 438 651 465 q 556 410 604 410 q 490 431 514 410 q 467 483 467 453 q 474 517 467 503 q 488 544 481 532 q 494 568 494 556 q 478 593 494 586 q 440 600 461 600 q 379 583 407 600 q 328 533 351 567 q 287 446 306 499 q 252 322 268 393 q 224 160 236 251 q 243 65 217 96 q 332 35 269 35 q 464 70 396 35 q 592 199 532 106 l 624 175 q 492 34 571 85 q 314 -17 413 -17 m 400 728 l 260 1006 l 319 1006 l 475 876 l 688 1006 l 747 1006 l 486 728 l 400 728 z "},"ç":{"ha":661,"x_min":40,"x_max":651,"o":"m 314 -17 q 165 22 226 -17 q 72 122 104 61 q 40 253 40 183 q 73 394 40 325 q 163 519 106 464 q 293 608 219 575 q 446 642 367 642 q 553 623 507 642 q 626 573 600 604 q 651 501 651 542 q 628 438 651 465 q 556 410 604 410 q 490 431 514 410 q 467 483 467 453 q 474 517 467 503 q 488 544 481 532 q 494 568 494 556 q 478 593 494 586 q 440 600 461 600 q 379 583 407 600 q 328 533 351 567 q 287 446 306 499 q 252 322 268 393 q 224 160 236 251 q 243 65 217 96 q 332 35 269 35 q 464 70 396 35 q 592 199 532 106 l 624 175 q 492 34 571 85 q 314 -17 413 -17 m 193 -322 q 125 -314 151 -322 q 88 -299 99 -306 l 111 -251 q 141 -262 118 -257 q 186 -267 164 -267 q 259 -248 231 -267 q 288 -193 288 -229 q 267 -152 288 -168 q 193 -135 246 -136 l 282 14 l 339 14 l 279 -92 l 306 -92 q 390 -116 361 -92 q 419 -182 419 -140 q 383 -260 419 -229 q 295 -307 347 -292 q 193 -322 243 -322 z "},"ĉ":{"ha":661,"x_min":40,"x_max":701,"o":"m 314 -17 q 165 22 226 -17 q 72 122 104 61 q 40 253 40 183 q 73 394 40 325 q 163 519 106 464 q 293 608 219 575 q 446 642 367 642 q 553 623 507 642 q 626 573 600 604 q 651 501 651 542 q 628 438 651 465 q 556 410 604 410 q 490 431 514 410 q 467 483 467 453 q 474 517 467 503 q 488 544 481 532 q 494 568 494 556 q 478 593 494 586 q 440 600 461 600 q 379 583 407 600 q 328 533 351 567 q 287 446 306 499 q 252 322 268 393 q 224 160 236 251 q 243 65 217 96 q 332 35 269 35 q 464 70 396 35 q 592 199 532 106 l 624 175 q 492 34 571 85 q 314 -17 413 -17 m 215 728 l 475 1006 l 561 1006 l 701 728 l 642 728 l 486 857 l 274 728 l 215 728 z "},"ċ":{"ha":661,"x_min":40,"x_max":651,"o":"m 314 -17 q 165 22 226 -17 q 72 122 104 61 q 40 253 40 183 q 73 394 40 325 q 163 519 106 464 q 293 608 219 575 q 446 642 367 642 q 553 623 507 642 q 626 573 600 604 q 651 501 651 542 q 628 438 651 465 q 556 410 604 410 q 490 431 514 410 q 467 483 467 453 q 474 517 467 503 q 488 544 481 532 q 494 568 494 556 q 478 593 494 586 q 440 600 461 600 q 379 583 407 600 q 328 533 351 567 q 287 446 306 499 q 252 322 268 393 q 224 160 236 251 q 243 65 217 96 q 332 35 269 35 q 464 70 396 35 q 592 199 532 106 l 624 175 q 492 34 571 85 q 314 -17 413 -17 m 467 753 q 394 784 425 753 q 363 858 363 815 q 394 933 363 901 q 467 964 425 964 q 542 933 511 964 q 574 858 574 901 q 542 784 574 815 q 467 753 511 753 z "},"d":{"ha":824,"x_min":49,"x_max":878,"o":"m 599 -17 q 515 11 547 -17 q 483 99 483 39 q 488 140 483 117 q 503 213 492 164 l 704 1047 l 878 1047 l 656 125 q 650 96 651 107 q 649 79 649 85 q 671 56 649 56 q 735 92 696 56 q 817 226 774 129 l 849 214 q 792 103 826 156 q 709 17 757 50 q 599 -17 661 -17 m 276 -17 q 165 13 217 -17 q 81 98 113 43 q 49 233 49 153 q 82 388 49 315 q 170 519 115 461 q 292 609 225 576 q 425 642 358 642 q 519 616 483 642 q 576 540 554 590 l 586 540 l 554 414 q 557 440 556 429 q 558 464 558 451 q 525 555 558 518 q 449 592 492 592 q 379 564 413 592 q 319 490 346 536 q 273 387 293 444 q 242 269 253 329 q 232 154 232 210 q 250 63 232 89 q 304 36 268 36 q 375 57 335 36 q 455 129 415 78 q 519 271 494 181 l 485 97 l 475 97 q 398 19 449 56 q 276 -17 347 -17 m 549 1008 l 549 1047 l 819 1047 l 819 1008 l 549 1008 z "},"ð":{"ha":793,"x_min":35,"x_max":856,"o":"m 331 -17 q 179 16 246 -17 q 74 110 113 49 q 35 251 35 171 q 68 398 35 329 q 159 520 101 467 q 290 605 217 574 q 440 636 363 636 q 524 625 486 636 q 588 596 563 614 l 593 597 q 598 641 596 622 q 600 683 600 660 q 538 899 600 815 q 356 1007 476 983 l 378 1046 q 544 997 468 1038 q 676 890 619 957 q 763 735 732 824 q 794 544 794 647 q 761 341 794 440 q 666 160 728 242 q 519 31 604 79 q 331 -17 433 -17 m 350 29 q 438 56 401 29 q 503 144 475 82 q 556 308 531 206 q 575 404 567 354 q 583 515 583 454 q 542 565 571 544 q 472 585 513 585 q 375 545 418 585 q 301 443 332 506 q 254 310 271 381 q 238 175 238 239 q 249 91 238 124 q 286 44 261 58 q 350 29 311 29 m 369 775 l 353 829 l 840 993 l 856 940 l 369 775 z "},"ď":{"ha":824,"x_min":49,"x_max":1156,"o":"m 599 -17 q 515 11 547 -17 q 483 99 483 39 q 488 140 483 117 q 503 213 492 164 l 704 1047 l 878 1047 l 656 125 q 650 96 651 107 q 649 79 649 85 q 671 56 649 56 q 735 92 696 56 q 817 226 774 129 l 849 214 q 792 103 826 156 q 709 17 757 50 q 599 -17 661 -17 m 276 -17 q 165 13 217 -17 q 81 98 113 43 q 49 233 49 153 q 82 388 49 315 q 170 519 115 461 q 292 609 225 576 q 425 642 358 642 q 519 616 483 642 q 576 540 554 590 l 586 540 l 554 414 q 557 440 556 429 q 558 464 558 451 q 525 555 558 518 q 449 592 492 592 q 379 564 413 592 q 319 490 346 536 q 273 387 293 444 q 242 269 253 329 q 232 154 232 210 q 250 63 232 89 q 304 36 268 36 q 375 57 335 36 q 455 129 415 78 q 519 271 494 181 l 485 97 l 475 97 q 398 19 449 56 q 276 -17 347 -17 m 549 1008 l 549 1047 l 819 1047 l 819 1008 l 549 1008 m 904 635 l 886 667 q 1040 772 988 718 q 1093 875 1093 826 q 1086 904 1093 896 q 1072 913 1079 913 q 1055 900 1063 913 q 1033 874 1047 888 q 989 861 1018 861 q 923 892 944 861 q 901 957 901 922 q 936 1033 901 1004 q 1019 1063 971 1063 q 1096 1038 1065 1063 q 1141 978 1126 1014 q 1156 907 1156 942 q 1089 759 1156 832 q 904 635 1022 686 z "},"đ":{"ha":824,"x_min":49,"x_max":907,"o":"m 599 -17 q 515 11 547 -17 q 483 99 483 39 q 488 140 483 117 q 503 213 492 164 l 704 1047 l 878 1047 l 656 125 q 650 96 651 107 q 649 79 649 85 q 671 56 649 56 q 735 92 696 56 q 817 226 774 129 l 849 214 q 792 103 826 156 q 709 17 757 50 q 599 -17 661 -17 m 276 -17 q 165 13 217 -17 q 81 98 113 43 q 49 233 49 153 q 82 388 49 315 q 170 519 115 461 q 292 609 225 576 q 425 642 358 642 q 519 616 483 642 q 576 540 554 590 l 586 540 l 554 414 q 557 440 556 429 q 558 464 558 451 q 525 555 558 518 q 449 592 492 592 q 379 564 413 592 q 319 490 346 536 q 273 387 293 444 q 242 269 253 329 q 232 154 232 210 q 250 63 232 89 q 304 36 268 36 q 375 57 335 36 q 455 129 415 78 q 519 271 494 181 l 485 97 l 475 97 q 398 19 449 56 q 276 -17 347 -17 m 549 1008 l 549 1047 l 819 1047 l 819 1008 l 549 1008 m 400 781 l 400 835 l 907 835 l 907 781 l 400 781 z "},"ḍ":{"ha":824,"x_min":49,"x_max":878,"o":"m 599 -17 q 515 11 547 -17 q 483 99 483 39 q 488 140 483 117 q 503 213 492 164 l 704 1047 l 878 1047 l 656 125 q 650 96 651 107 q 649 79 649 85 q 671 56 649 56 q 735 92 696 56 q 817 226 774 129 l 849 214 q 792 103 826 156 q 709 17 757 50 q 599 -17 661 -17 m 276 -17 q 165 13 217 -17 q 81 98 113 43 q 49 233 49 153 q 82 388 49 315 q 170 519 115 461 q 292 609 225 576 q 425 642 358 642 q 519 616 483 642 q 576 540 554 590 l 586 540 l 554 414 q 557 440 556 429 q 558 464 558 451 q 525 555 558 518 q 449 592 492 592 q 379 564 413 592 q 319 490 346 536 q 273 387 293 444 q 242 269 253 329 q 232 154 232 210 q 250 63 232 89 q 304 36 268 36 q 375 57 335 36 q 455 129 415 78 q 519 271 494 181 l 485 97 l 475 97 q 398 19 449 56 q 276 -17 347 -17 m 549 1008 l 549 1047 l 819 1047 l 819 1008 l 549 1008 m 292 -310 q 219 -278 250 -310 q 188 -204 188 -247 q 219 -130 188 -161 q 292 -99 250 -99 q 367 -130 336 -99 q 399 -204 399 -161 q 367 -278 399 -247 q 292 -310 336 -310 z "},"ǳ":{"ha":1500,"x_min":49,"x_max":1489,"o":"m 599 -17 q 515 11 547 -17 q 483 99 483 39 q 488 140 483 117 q 503 213 492 164 l 704 1047 l 878 1047 l 656 125 q 650 96 651 107 q 649 79 649 85 q 671 56 649 56 q 735 92 696 56 q 817 226 774 129 l 849 214 q 792 103 826 156 q 709 17 757 50 q 599 -17 661 -17 m 276 -17 q 165 13 217 -17 q 81 98 113 43 q 49 233 49 153 q 82 388 49 315 q 170 519 115 461 q 292 609 225 576 q 425 642 358 642 q 519 616 483 642 q 576 540 554 590 l 586 540 l 554 414 q 557 440 556 429 q 558 464 558 451 q 525 555 558 518 q 449 592 492 592 q 379 564 413 592 q 319 490 346 536 q 273 387 293 444 q 242 269 253 329 q 232 154 232 210 q 250 63 232 89 q 304 36 268 36 q 375 57 335 36 q 455 129 415 78 q 519 271 494 181 l 485 97 l 475 97 q 398 19 449 56 q 276 -17 347 -17 m 549 1008 l 549 1047 l 819 1047 l 819 1008 l 549 1008 m 885 -15 q 851 -3 863 -15 q 840 29 840 10 q 858 76 840 49 q 936 156 876 103 l 1296 472 l 1293 476 q 1190 456 1240 463 q 1103 449 1140 449 q 1044 451 1072 449 q 988 465 1017 454 l 936 367 l 904 381 l 1018 625 l 1049 625 q 1135 602 1093 611 q 1219 588 1178 593 q 1306 579 1261 582 q 1399 576 1350 576 q 1415 586 1411 576 q 1420 608 1418 596 q 1429 629 1422 619 q 1457 639 1436 639 q 1489 611 1489 639 q 1480 585 1489 600 q 1444 546 1471 571 l 1032 188 l 1032 182 q 1150 174 1101 182 q 1233 155 1199 165 q 1292 136 1267 144 q 1336 128 1317 128 q 1378 144 1367 128 q 1390 172 1390 161 q 1377 189 1390 185 q 1347 197 1364 193 q 1315 213 1329 201 q 1301 249 1301 224 q 1321 292 1301 278 q 1363 307 1340 307 q 1414 278 1396 307 q 1432 206 1432 250 q 1404 99 1432 150 q 1327 15 1376 47 q 1215 -18 1278 -18 q 1113 3 1161 -18 q 1022 44 1065 24 q 942 65 979 65 q 922 53 922 65 q 924 24 921 40 q 921 -3 926 8 q 885 -15 915 -15 z "},"ǆ":{"ha":1500,"x_min":49,"x_max":1563,"o":"m 599 -17 q 515 11 547 -17 q 483 99 483 39 q 488 140 483 117 q 503 213 492 164 l 704 1047 l 878 1047 l 656 125 q 650 96 651 107 q 649 79 649 85 q 671 56 649 56 q 735 92 696 56 q 817 226 774 129 l 849 214 q 792 103 826 156 q 709 17 757 50 q 599 -17 661 -17 m 276 -17 q 165 13 217 -17 q 81 98 113 43 q 49 233 49 153 q 82 388 49 315 q 170 519 115 461 q 292 609 225 576 q 425 642 358 642 q 519 616 483 642 q 576 540 554 590 l 586 540 l 554 414 q 557 440 556 429 q 558 464 558 451 q 525 555 558 518 q 449 592 492 592 q 379 564 413 592 q 319 490 346 536 q 273 387 293 444 q 242 269 253 329 q 232 154 232 210 q 250 63 232 89 q 304 36 268 36 q 375 57 335 36 q 455 129 415 78 q 519 271 494 181 l 485 97 l 475 97 q 398 19 449 56 q 276 -17 347 -17 m 549 1008 l 549 1047 l 819 1047 l 819 1008 l 549 1008 m 885 -15 q 851 -3 863 -15 q 840 29 840 10 q 858 76 840 49 q 936 156 876 103 l 1296 472 l 1293 476 q 1190 456 1240 463 q 1103 449 1140 449 q 1044 451 1072 449 q 988 465 1017 454 l 936 367 l 904 381 l 1018 625 l 1049 625 q 1135 602 1093 611 q 1219 588 1178 593 q 1306 579 1261 582 q 1399 576 1350 576 q 1415 586 1411 576 q 1420 608 1418 596 q 1429 629 1422 619 q 1457 639 1436 639 q 1489 611 1489 639 q 1480 585 1489 600 q 1444 546 1471 571 l 1032 188 l 1032 182 q 1150 174 1101 182 q 1233 155 1199 165 q 1292 136 1267 144 q 1336 128 1317 128 q 1378 144 1367 128 q 1390 172 1390 161 q 1377 189 1390 185 q 1347 197 1364 193 q 1315 213 1329 201 q 1301 249 1301 224 q 1321 292 1301 278 q 1363 307 1340 307 q 1414 278 1396 307 q 1432 206 1432 250 q 1404 99 1432 150 q 1327 15 1376 47 q 1215 -18 1278 -18 q 1113 3 1161 -18 q 1022 44 1065 24 q 942 65 979 65 q 922 53 922 65 q 924 24 921 40 q 921 -3 926 8 q 885 -15 915 -15 m 1217 728 l 1076 1006 l 1136 1006 l 1292 876 l 1504 1006 l 1564 1006 l 1303 728 l 1217 728 z "},"e":{"ha":682,"x_min":40,"x_max":657,"o":"m 322 -17 q 169 22 232 -17 q 74 121 107 60 q 40 251 40 182 q 74 394 40 325 q 164 520 107 464 q 293 609 221 576 q 442 642 365 642 q 553 620 504 642 q 629 560 601 599 q 657 471 657 521 q 622 372 657 417 q 520 301 588 328 q 358 275 453 275 q 285 278 324 275 q 217 285 247 281 q 179 290 188 289 l 186 335 q 238 323 210 325 q 310 321 265 321 q 426 344 382 321 q 492 406 471 367 q 513 492 513 444 q 491 571 513 542 q 431 600 469 600 q 367 576 397 600 q 312 499 338 551 q 265 365 286 447 q 231 165 244 282 q 251 66 224 97 q 340 35 278 35 q 475 70 406 35 q 606 199 544 106 l 638 175 q 506 35 586 88 q 322 -17 425 -17 z "},"é":{"ha":682,"x_min":40,"x_max":760,"o":"m 322 -17 q 169 22 232 -17 q 74 121 107 60 q 40 251 40 182 q 74 394 40 325 q 164 520 107 464 q 293 609 221 576 q 442 642 365 642 q 553 620 504 642 q 629 560 601 599 q 657 471 657 521 q 622 372 657 417 q 520 301 588 328 q 358 275 453 275 q 285 278 324 275 q 217 285 247 281 q 179 290 188 289 l 186 335 q 238 323 210 325 q 310 321 265 321 q 426 344 382 321 q 492 406 471 367 q 513 492 513 444 q 491 571 513 542 q 431 600 469 600 q 367 576 397 600 q 312 499 338 551 q 265 365 286 447 q 231 165 244 282 q 251 66 224 97 q 340 35 278 35 q 475 70 406 35 q 606 199 544 106 l 638 175 q 506 35 586 88 q 322 -17 425 -17 m 374 728 l 576 949 q 638 999 613 988 q 685 1011 663 1011 q 742 990 724 1011 q 760 940 760 968 q 745 898 760 917 q 694 860 731 879 l 450 728 l 374 728 z "},"ĕ":{"ha":682,"x_min":40,"x_max":692,"o":"m 322 -17 q 169 22 232 -17 q 74 121 107 60 q 40 251 40 182 q 74 394 40 325 q 164 520 107 464 q 293 609 221 576 q 442 642 365 642 q 553 620 504 642 q 629 560 601 599 q 657 471 657 521 q 622 372 657 417 q 520 301 588 328 q 358 275 453 275 q 285 278 324 275 q 217 285 247 281 q 179 290 188 289 l 186 335 q 238 323 210 325 q 310 321 265 321 q 426 344 382 321 q 492 406 471 367 q 513 492 513 444 q 491 571 513 542 q 431 600 469 600 q 367 576 397 600 q 312 499 338 551 q 265 365 286 447 q 231 165 244 282 q 251 66 224 97 q 340 35 278 35 q 475 70 406 35 q 606 199 544 106 l 638 175 q 506 35 586 88 q 322 -17 425 -17 m 419 728 q 282 774 332 728 q 232 900 232 821 q 233 931 232 914 q 239 964 235 947 l 296 964 q 294 955 294 960 q 294 946 294 950 q 336 876 294 897 q 442 854 378 854 q 562 880 510 854 q 632 964 614 906 l 692 964 q 640 844 676 897 q 549 759 604 790 q 419 728 494 728 z "},"ě":{"ha":682,"x_min":40,"x_max":743,"o":"m 322 -17 q 169 22 232 -17 q 74 121 107 60 q 40 251 40 182 q 74 394 40 325 q 164 520 107 464 q 293 609 221 576 q 442 642 365 642 q 553 620 504 642 q 629 560 601 599 q 657 471 657 521 q 622 372 657 417 q 520 301 588 328 q 358 275 453 275 q 285 278 324 275 q 217 285 247 281 q 179 290 188 289 l 186 335 q 238 323 210 325 q 310 321 265 321 q 426 344 382 321 q 492 406 471 367 q 513 492 513 444 q 491 571 513 542 q 431 600 469 600 q 367 576 397 600 q 312 499 338 551 q 265 365 286 447 q 231 165 244 282 q 251 66 224 97 q 340 35 278 35 q 475 70 406 35 q 606 199 544 106 l 638 175 q 506 35 586 88 q 322 -17 425 -17 m 396 728 l 256 1006 l 315 1006 l 471 876 l 683 1006 l 743 1006 l 482 728 l 396 728 z "},"ê":{"ha":682,"x_min":40,"x_max":697,"o":"m 322 -17 q 169 22 232 -17 q 74 121 107 60 q 40 251 40 182 q 74 394 40 325 q 164 520 107 464 q 293 609 221 576 q 442 642 365 642 q 553 620 504 642 q 629 560 601 599 q 657 471 657 521 q 622 372 657 417 q 520 301 588 328 q 358 275 453 275 q 285 278 324 275 q 217 285 247 281 q 179 290 188 289 l 186 335 q 238 323 210 325 q 310 321 265 321 q 426 344 382 321 q 492 406 471 367 q 513 492 513 444 q 491 571 513 542 q 431 600 469 600 q 367 576 397 600 q 312 499 338 551 q 265 365 286 447 q 231 165 244 282 q 251 66 224 97 q 340 35 278 35 q 475 70 406 35 q 606 199 544 106 l 638 175 q 506 35 586 88 q 322 -17 425 -17 m 211 728 l 471 1006 l 557 1006 l 697 728 l 638 728 l 482 857 l 269 728 l 211 728 z "},"ế":{"ha":682,"x_min":40,"x_max":685,"o":"m 322 -17 q 169 22 232 -17 q 74 121 107 60 q 40 251 40 182 q 74 394 40 325 q 164 520 107 464 q 293 609 221 576 q 442 642 365 642 q 553 620 504 642 q 629 560 601 599 q 657 471 657 521 q 622 372 657 417 q 520 301 588 328 q 358 275 453 275 q 285 278 324 275 q 217 285 247 281 q 179 290 188 289 l 186 335 q 238 323 210 325 q 310 321 265 321 q 426 344 382 321 q 492 406 471 367 q 513 492 513 444 q 491 571 513 542 q 431 600 469 600 q 367 576 397 600 q 312 499 338 551 q 265 365 286 447 q 231 165 244 282 q 251 66 224 97 q 340 35 278 35 q 475 70 406 35 q 606 199 544 106 l 638 175 q 506 35 586 88 q 322 -17 425 -17 m 206 729 l 411 879 l 492 879 l 649 729 l 585 729 l 442 790 l 268 729 l 206 729 m 251 926 l 494 1075 q 562 1110 536 1100 q 614 1121 588 1121 q 666 1103 647 1121 q 685 1058 685 1085 q 665 1011 685 1033 q 604 981 646 989 l 340 926 l 251 926 z "},"ệ":{"ha":682,"x_min":40,"x_max":697,"o":"m 322 -17 q 169 22 232 -17 q 74 121 107 60 q 40 251 40 182 q 74 394 40 325 q 164 520 107 464 q 293 609 221 576 q 442 642 365 642 q 553 620 504 642 q 629 560 601 599 q 657 471 657 521 q 622 372 657 417 q 520 301 588 328 q 358 275 453 275 q 285 278 324 275 q 217 285 247 281 q 179 290 188 289 l 186 335 q 238 323 210 325 q 310 321 265 321 q 426 344 382 321 q 492 406 471 367 q 513 492 513 444 q 491 571 513 542 q 431 600 469 600 q 367 576 397 600 q 312 499 338 551 q 265 365 286 447 q 231 165 244 282 q 251 66 224 97 q 340 35 278 35 q 475 70 406 35 q 606 199 544 106 l 638 175 q 506 35 586 88 q 322 -17 425 -17 m 221 -310 q 148 -278 179 -310 q 117 -204 117 -247 q 148 -130 117 -161 q 221 -99 179 -99 q 297 -130 265 -99 q 328 -204 328 -161 q 297 -278 328 -247 q 221 -310 265 -310 m 211 728 l 471 1006 l 557 1006 l 697 728 l 638 728 l 482 857 l 269 728 l 211 728 z "},"ề":{"ha":682,"x_min":40,"x_max":707,"o":"m 322 -17 q 169 22 232 -17 q 74 121 107 60 q 40 251 40 182 q 74 394 40 325 q 164 520 107 464 q 293 609 221 576 q 442 642 365 642 q 553 620 504 642 q 629 560 601 599 q 657 471 657 521 q 622 372 657 417 q 520 301 588 328 q 358 275 453 275 q 285 278 324 275 q 217 285 247 281 q 179 290 188 289 l 186 335 q 238 323 210 325 q 310 321 265 321 q 426 344 382 321 q 492 406 471 367 q 513 492 513 444 q 491 571 513 542 q 431 600 469 600 q 367 576 397 600 q 312 499 338 551 q 265 365 286 447 q 231 165 244 282 q 251 66 224 97 q 340 35 278 35 q 475 70 406 35 q 606 199 544 106 l 638 175 q 506 35 586 88 q 322 -17 425 -17 m 211 729 l 417 879 l 497 879 l 654 729 l 590 729 l 447 790 l 274 729 l 211 729 m 618 926 l 358 982 q 307 1009 324 989 q 290 1051 290 1029 q 311 1100 290 1079 q 369 1121 332 1121 q 417 1110 394 1121 q 479 1075 440 1100 l 707 926 l 618 926 z "}}}
